%FSLAX45Y45*%
G04 Gerber Fmt 4.5, Leading zero omitted, Abs format (unit mm)*
G04 Created by KiCad (PCBNEW (5.1.7-0-10_14)) date 2020-10-21 09:08:39*
%MOMM*%
%LPD*%
G01*
G04 APERTURE LIST*
%ADD10C,0.200000*%
%ADD11C,0.300000*%
G04 APERTURE END LIST*
D10*
X11567522Y-9565043D02*
X11607522Y-9605043D01*
X11607522Y-9565043D02*
X11567522Y-9605043D01*
X11712478Y-9710000D02*
X11752478Y-9750000D01*
X11752478Y-9710000D02*
X11712478Y-9750000D01*
X16036629Y-8816916D02*
X16076629Y-8856916D01*
X16076629Y-8816916D02*
X16036629Y-8856916D01*
X16103371Y-8623084D02*
X16143371Y-8663084D01*
X16143371Y-8623084D02*
X16103371Y-8663084D01*
D11*
X9933256Y-15365838D02*
X9933256Y-15065838D01*
X10004685Y-15065838D01*
X10047542Y-15080124D01*
X10076113Y-15108695D01*
X10090399Y-15137267D01*
X10104685Y-15194410D01*
X10104685Y-15237267D01*
X10090399Y-15294410D01*
X10076113Y-15322981D01*
X10047542Y-15351553D01*
X10004685Y-15365838D01*
X9933256Y-15365838D01*
X10233256Y-15365838D02*
X10233256Y-15165838D01*
X10233256Y-15222981D02*
X10247542Y-15194410D01*
X10261828Y-15180124D01*
X10290399Y-15165838D01*
X10318970Y-15165838D01*
X10418970Y-15365838D02*
X10418970Y-15165838D01*
X10418970Y-15065838D02*
X10404685Y-15080124D01*
X10418970Y-15094410D01*
X10433256Y-15080124D01*
X10418970Y-15065838D01*
X10418970Y-15094410D01*
X10604685Y-15365838D02*
X10576113Y-15351553D01*
X10561828Y-15322981D01*
X10561828Y-15065838D01*
X10761828Y-15365838D02*
X10733256Y-15351553D01*
X10718970Y-15322981D01*
X10718970Y-15065838D01*
X11104685Y-15365838D02*
X11104685Y-15065838D01*
X11204685Y-15280124D01*
X11304685Y-15065838D01*
X11304685Y-15365838D01*
X11576113Y-15365838D02*
X11576113Y-15208695D01*
X11561828Y-15180124D01*
X11533256Y-15165838D01*
X11476113Y-15165838D01*
X11447542Y-15180124D01*
X11576113Y-15351553D02*
X11547542Y-15365838D01*
X11476113Y-15365838D01*
X11447542Y-15351553D01*
X11433256Y-15322981D01*
X11433256Y-15294410D01*
X11447542Y-15265838D01*
X11476113Y-15251553D01*
X11547542Y-15251553D01*
X11576113Y-15237267D01*
X11718970Y-15165838D02*
X11718970Y-15465838D01*
X11718970Y-15180124D02*
X11747542Y-15165838D01*
X11804685Y-15165838D01*
X11833256Y-15180124D01*
X11847542Y-15194410D01*
X11861828Y-15222981D01*
X11861828Y-15308695D01*
X11847542Y-15337267D01*
X11833256Y-15351553D01*
X11804685Y-15365838D01*
X11747542Y-15365838D01*
X11718970Y-15351553D01*
X11990399Y-15337267D02*
X12004685Y-15351553D01*
X11990399Y-15365838D01*
X11976113Y-15351553D01*
X11990399Y-15337267D01*
X11990399Y-15365838D01*
X11990399Y-15180124D02*
X12004685Y-15194410D01*
X11990399Y-15208695D01*
X11976113Y-15194410D01*
X11990399Y-15180124D01*
X11990399Y-15208695D01*
X9606828Y-15840124D02*
X9646828Y-15880124D01*
X9646828Y-15840124D02*
X9606828Y-15880124D01*
X9990399Y-15695838D02*
X10018970Y-15695838D01*
X10047542Y-15710124D01*
X10061828Y-15724410D01*
X10076113Y-15752981D01*
X10090399Y-15810124D01*
X10090399Y-15881553D01*
X10076113Y-15938695D01*
X10061828Y-15967267D01*
X10047542Y-15981553D01*
X10018970Y-15995838D01*
X9990399Y-15995838D01*
X9961828Y-15981553D01*
X9947542Y-15967267D01*
X9933256Y-15938695D01*
X9918970Y-15881553D01*
X9918970Y-15810124D01*
X9933256Y-15752981D01*
X9947542Y-15724410D01*
X9961828Y-15710124D01*
X9990399Y-15695838D01*
X10218970Y-15967267D02*
X10233256Y-15981553D01*
X10218970Y-15995838D01*
X10204685Y-15981553D01*
X10218970Y-15967267D01*
X10218970Y-15995838D01*
X10490399Y-15795838D02*
X10490399Y-15995838D01*
X10418970Y-15681553D02*
X10347542Y-15895838D01*
X10533256Y-15895838D01*
X10704685Y-15695838D02*
X10733256Y-15695838D01*
X10761828Y-15710124D01*
X10776113Y-15724410D01*
X10790399Y-15752981D01*
X10804685Y-15810124D01*
X10804685Y-15881553D01*
X10790399Y-15938695D01*
X10776113Y-15967267D01*
X10761828Y-15981553D01*
X10733256Y-15995838D01*
X10704685Y-15995838D01*
X10676113Y-15981553D01*
X10661828Y-15967267D01*
X10647542Y-15938695D01*
X10633256Y-15881553D01*
X10633256Y-15810124D01*
X10647542Y-15752981D01*
X10661828Y-15724410D01*
X10676113Y-15710124D01*
X10704685Y-15695838D01*
X10933256Y-15995838D02*
X10933256Y-15795838D01*
X10933256Y-15824410D02*
X10947542Y-15810124D01*
X10976113Y-15795838D01*
X11018970Y-15795838D01*
X11047542Y-15810124D01*
X11061828Y-15838695D01*
X11061828Y-15995838D01*
X11061828Y-15838695D02*
X11076113Y-15810124D01*
X11104685Y-15795838D01*
X11147542Y-15795838D01*
X11176113Y-15810124D01*
X11190399Y-15838695D01*
X11190399Y-15995838D01*
X11333256Y-15995838D02*
X11333256Y-15795838D01*
X11333256Y-15824410D02*
X11347542Y-15810124D01*
X11376113Y-15795838D01*
X11418970Y-15795838D01*
X11447542Y-15810124D01*
X11461828Y-15838695D01*
X11461828Y-15995838D01*
X11461828Y-15838695D02*
X11476113Y-15810124D01*
X11504685Y-15795838D01*
X11547542Y-15795838D01*
X11576113Y-15810124D01*
X11590399Y-15838695D01*
X11590399Y-15995838D01*
X12176113Y-15681553D02*
X11918970Y-16067267D01*
X12561828Y-15695838D02*
X12590399Y-15695838D01*
X12618970Y-15710124D01*
X12633256Y-15724410D01*
X12647542Y-15752981D01*
X12661828Y-15810124D01*
X12661828Y-15881553D01*
X12647542Y-15938695D01*
X12633256Y-15967267D01*
X12618970Y-15981553D01*
X12590399Y-15995838D01*
X12561828Y-15995838D01*
X12533256Y-15981553D01*
X12518970Y-15967267D01*
X12504685Y-15938695D01*
X12490399Y-15881553D01*
X12490399Y-15810124D01*
X12504685Y-15752981D01*
X12518970Y-15724410D01*
X12533256Y-15710124D01*
X12561828Y-15695838D01*
X12790399Y-15967267D02*
X12804685Y-15981553D01*
X12790399Y-15995838D01*
X12776113Y-15981553D01*
X12790399Y-15967267D01*
X12790399Y-15995838D01*
X12990399Y-15695838D02*
X13018970Y-15695838D01*
X13047542Y-15710124D01*
X13061828Y-15724410D01*
X13076113Y-15752981D01*
X13090399Y-15810124D01*
X13090399Y-15881553D01*
X13076113Y-15938695D01*
X13061828Y-15967267D01*
X13047542Y-15981553D01*
X13018970Y-15995838D01*
X12990399Y-15995838D01*
X12961828Y-15981553D01*
X12947542Y-15967267D01*
X12933256Y-15938695D01*
X12918970Y-15881553D01*
X12918970Y-15810124D01*
X12933256Y-15752981D01*
X12947542Y-15724410D01*
X12961828Y-15710124D01*
X12990399Y-15695838D01*
X13376113Y-15995838D02*
X13204685Y-15995838D01*
X13290399Y-15995838D02*
X13290399Y-15695838D01*
X13261828Y-15738695D01*
X13233256Y-15767267D01*
X13204685Y-15781553D01*
X13633256Y-15695838D02*
X13576113Y-15695838D01*
X13547542Y-15710124D01*
X13533256Y-15724410D01*
X13504685Y-15767267D01*
X13490399Y-15824410D01*
X13490399Y-15938695D01*
X13504685Y-15967267D01*
X13518970Y-15981553D01*
X13547542Y-15995838D01*
X13604685Y-15995838D01*
X13633256Y-15981553D01*
X13647542Y-15967267D01*
X13661828Y-15938695D01*
X13661828Y-15867267D01*
X13647542Y-15838695D01*
X13633256Y-15824410D01*
X13604685Y-15810124D01*
X13547542Y-15810124D01*
X13518970Y-15824410D01*
X13504685Y-15838695D01*
X13490399Y-15867267D01*
X13776113Y-15695838D02*
X13776113Y-15752981D01*
X13890399Y-15695838D02*
X13890399Y-15752981D01*
X14333256Y-16110124D02*
X14318970Y-16095838D01*
X14290399Y-16052981D01*
X14276113Y-16024410D01*
X14261828Y-15981553D01*
X14247542Y-15910124D01*
X14247542Y-15852981D01*
X14261828Y-15781553D01*
X14276113Y-15738695D01*
X14290399Y-15710124D01*
X14318970Y-15667267D01*
X14333256Y-15652981D01*
X14576113Y-15795838D02*
X14576113Y-15995838D01*
X14504685Y-15681553D02*
X14433256Y-15895838D01*
X14618970Y-15895838D01*
X14961828Y-15995838D02*
X14961828Y-15695838D01*
X15090399Y-15995838D02*
X15090399Y-15838695D01*
X15076113Y-15810124D01*
X15047542Y-15795838D01*
X15004685Y-15795838D01*
X14976113Y-15810124D01*
X14961828Y-15824410D01*
X15276113Y-15995838D02*
X15247542Y-15981553D01*
X15233256Y-15967267D01*
X15218970Y-15938695D01*
X15218970Y-15852981D01*
X15233256Y-15824410D01*
X15247542Y-15810124D01*
X15276113Y-15795838D01*
X15318970Y-15795838D01*
X15347542Y-15810124D01*
X15361828Y-15824410D01*
X15376113Y-15852981D01*
X15376113Y-15938695D01*
X15361828Y-15967267D01*
X15347542Y-15981553D01*
X15318970Y-15995838D01*
X15276113Y-15995838D01*
X15547542Y-15995838D02*
X15518970Y-15981553D01*
X15504685Y-15952981D01*
X15504685Y-15695838D01*
X15776113Y-15981553D02*
X15747542Y-15995838D01*
X15690399Y-15995838D01*
X15661828Y-15981553D01*
X15647542Y-15952981D01*
X15647542Y-15838695D01*
X15661828Y-15810124D01*
X15690399Y-15795838D01*
X15747542Y-15795838D01*
X15776113Y-15810124D01*
X15790399Y-15838695D01*
X15790399Y-15867267D01*
X15647542Y-15895838D01*
X15904685Y-15981553D02*
X15933256Y-15995838D01*
X15990399Y-15995838D01*
X16018970Y-15981553D01*
X16033256Y-15952981D01*
X16033256Y-15938695D01*
X16018970Y-15910124D01*
X15990399Y-15895838D01*
X15947542Y-15895838D01*
X15918970Y-15881553D01*
X15904685Y-15852981D01*
X15904685Y-15838695D01*
X15918970Y-15810124D01*
X15947542Y-15795838D01*
X15990399Y-15795838D01*
X16018970Y-15810124D01*
X16133256Y-16110124D02*
X16147542Y-16095838D01*
X16176113Y-16052981D01*
X16190399Y-16024410D01*
X16204685Y-15981553D01*
X16218970Y-15910124D01*
X16218970Y-15852981D01*
X16204685Y-15781553D01*
X16190399Y-15738695D01*
X16176113Y-15710124D01*
X16147542Y-15667267D01*
X16133256Y-15652981D01*
M02*
