%TF.GenerationSoftware,KiCad,Pcbnew,(5.1.7-0-10_14)*%
%TF.CreationDate,2020-10-21T09:08:44+08:00*%
%TF.ProjectId,HallowBadges,48616c6c-6f77-4426-9164-6765732e6b69,rev?*%
%TF.SameCoordinates,Original*%
%TF.FileFunction,Profile,NP*%
%FSLAX46Y46*%
G04 Gerber Fmt 4.6, Leading zero omitted, Abs format (unit mm)*
G04 Created by KiCad (PCBNEW (5.1.7-0-10_14)) date 2020-10-21 09:08:44*
%MOMM*%
%LPD*%
G01*
G04 APERTURE LIST*
%TA.AperFunction,Profile*%
%ADD10C,0.100000*%
%TD*%
G04 APERTURE END LIST*
D10*
%TO.C,Ref\u002A\u002A*%
X125690400Y-68966540D02*
X125690400Y-68966540D01*
X125690400Y-68966540D02*
X125576300Y-68909840D01*
X125576300Y-68909840D02*
X125484300Y-68866640D01*
X125484300Y-68866640D02*
X125392500Y-68825040D01*
X125392500Y-68825040D02*
X125300100Y-68784540D01*
X125300100Y-68784540D02*
X125207700Y-68745040D01*
X125207700Y-68745040D02*
X125114800Y-68706540D01*
X125114800Y-68706540D02*
X125022500Y-68669240D01*
X125022500Y-68669240D02*
X124930000Y-68632740D01*
X124930000Y-68632740D02*
X124836700Y-68596840D01*
X124836700Y-68596840D02*
X124742900Y-68561740D01*
X124742900Y-68561740D02*
X124649700Y-68527540D01*
X124649700Y-68527540D02*
X124556100Y-68494140D01*
X124556100Y-68494140D02*
X124461700Y-68461240D01*
X124461700Y-68461240D02*
X124367600Y-68429240D01*
X124367600Y-68429240D02*
X124272800Y-68397740D01*
X124272800Y-68397740D02*
X124177600Y-68366940D01*
X124177600Y-68366940D02*
X124082200Y-68336840D01*
X124082200Y-68336840D02*
X123986700Y-68307440D01*
X123986700Y-68307440D02*
X123891400Y-68278740D01*
X123891400Y-68278740D02*
X123795800Y-68250840D01*
X123795800Y-68250840D02*
X123699200Y-68223340D01*
X123699200Y-68223340D02*
X123603200Y-68196640D01*
X123603200Y-68196640D02*
X123507200Y-68170740D01*
X123507200Y-68170740D02*
X123410700Y-68145440D01*
X123410700Y-68145440D02*
X123314300Y-68120840D01*
X123314300Y-68120840D02*
X123217200Y-68096740D01*
X123217200Y-68096740D02*
X123120100Y-68073340D01*
X123120100Y-68073340D02*
X123022600Y-68050540D01*
X123022600Y-68050540D02*
X122925000Y-68028440D01*
X122925000Y-68028440D02*
X122827900Y-68007240D01*
X122827900Y-68007240D02*
X122730000Y-67986440D01*
X122730000Y-67986440D02*
X122631700Y-67966240D01*
X122631700Y-67966240D02*
X122533700Y-67946840D01*
X122533700Y-67946840D02*
X122435700Y-67928140D01*
X122435700Y-67928140D02*
X122337100Y-67910040D01*
X122337100Y-67910040D02*
X122238200Y-67892540D01*
X122238200Y-67892540D02*
X122139800Y-67875840D01*
X122139800Y-67875840D02*
X122041700Y-67859840D01*
X122041700Y-67859840D02*
X121943000Y-67844340D01*
X121943000Y-67844340D02*
X121843800Y-67829640D01*
X121843800Y-67829640D02*
X121744500Y-67815440D01*
X121744500Y-67815440D02*
X121645500Y-67802040D01*
X121645500Y-67802040D02*
X121546500Y-67789340D01*
X121546500Y-67789340D02*
X121447900Y-67777440D01*
X121447900Y-67777440D02*
X121348900Y-67766040D01*
X121348900Y-67766040D02*
X121249500Y-67755340D01*
X121249500Y-67755340D02*
X121149800Y-67745340D01*
X121149800Y-67745340D02*
X121049800Y-67735940D01*
X121049800Y-67735940D02*
X120949500Y-67727240D01*
X120949500Y-67727240D02*
X120849300Y-67719240D01*
X120849300Y-67719240D02*
X120749600Y-67711940D01*
X120749600Y-67711940D02*
X120650100Y-67705440D01*
X120650100Y-67705440D02*
X120551200Y-67699540D01*
X120551200Y-67699540D02*
X120452200Y-67694440D01*
X120452200Y-67694440D02*
X120352900Y-67689940D01*
X120352900Y-67689940D02*
X120253400Y-67686140D01*
X120253400Y-67686140D02*
X120153800Y-67683040D01*
X120153800Y-67683040D02*
X120054100Y-67680540D01*
X120054100Y-67680540D02*
X119954200Y-67678840D01*
X119954200Y-67678840D02*
X119854200Y-67677740D01*
X119854200Y-67677740D02*
X119754100Y-67677440D01*
X119754100Y-67677440D02*
X119653900Y-67677840D01*
X119653900Y-67677840D02*
X119553700Y-67678840D01*
X119553700Y-67678840D02*
X119453400Y-67680640D01*
X119453400Y-67680640D02*
X119353000Y-67683140D01*
X119353000Y-67683140D02*
X119252600Y-67686340D01*
X119252600Y-67686340D02*
X119152100Y-67690240D01*
X119152100Y-67690240D02*
X119051700Y-67694940D01*
X119051700Y-67694940D02*
X118951200Y-67700240D01*
X118951200Y-67700240D02*
X118850800Y-67706340D01*
X118850800Y-67706340D02*
X118750400Y-67713140D01*
X118750400Y-67713140D02*
X118650000Y-67720740D01*
X118650000Y-67720740D02*
X118549600Y-67728940D01*
X118549600Y-67728940D02*
X118449300Y-67737940D01*
X118449300Y-67737940D02*
X118349100Y-67747640D01*
X118349100Y-67747640D02*
X118248900Y-67758040D01*
X118248900Y-67758040D02*
X118148800Y-67769240D01*
X118148800Y-67769240D02*
X118048800Y-67781140D01*
X118048800Y-67781140D02*
X117948900Y-67793740D01*
X117948900Y-67793740D02*
X117849100Y-67807040D01*
X117849100Y-67807040D02*
X117749500Y-67821040D01*
X117749500Y-67821040D02*
X117649900Y-67835840D01*
X117649900Y-67835840D02*
X117550500Y-67851340D01*
X117550500Y-67851340D02*
X117451200Y-67867540D01*
X117451200Y-67867540D02*
X117352100Y-67884440D01*
X117352100Y-67884440D02*
X117253100Y-67902040D01*
X117253100Y-67902040D02*
X117154300Y-67920340D01*
X117154300Y-67920340D02*
X117055600Y-67939440D01*
X117055600Y-67939440D02*
X116957200Y-67959140D01*
X116957200Y-67959140D02*
X116858900Y-67979640D01*
X116858900Y-67979640D02*
X116760800Y-68000840D01*
X116760800Y-68000840D02*
X116662900Y-68022640D01*
X116662900Y-68022640D02*
X116565200Y-68045240D01*
X116565200Y-68045240D02*
X116467800Y-68068440D01*
X116467800Y-68068440D02*
X116370500Y-68092440D01*
X116370500Y-68092440D02*
X116273500Y-68117040D01*
X116273500Y-68117040D02*
X116176700Y-68142340D01*
X116176700Y-68142340D02*
X116080100Y-68168340D01*
X116080100Y-68168340D02*
X115983800Y-68195040D01*
X115983800Y-68195040D02*
X115887700Y-68222440D01*
X115887700Y-68222440D02*
X115791800Y-68250440D01*
X115791800Y-68250440D02*
X115696200Y-68279140D01*
X115696200Y-68279140D02*
X115600900Y-68308440D01*
X115600900Y-68308440D02*
X115505900Y-68338540D01*
X115505900Y-68338540D02*
X115411100Y-68369140D01*
X115411100Y-68369140D02*
X115316500Y-68400540D01*
X115316500Y-68400540D02*
X115222300Y-68432440D01*
X115222300Y-68432440D02*
X115128300Y-68465140D01*
X115128300Y-68465140D02*
X115034600Y-68498340D01*
X115034600Y-68498340D02*
X114941200Y-68532240D01*
X114941200Y-68532240D02*
X114848100Y-68566840D01*
X114848100Y-68566840D02*
X114755300Y-68601940D01*
X114755300Y-68601940D02*
X114662800Y-68637740D01*
X114662800Y-68637740D02*
X114570600Y-68674140D01*
X114570600Y-68674140D02*
X114478700Y-68711140D01*
X114478700Y-68711140D02*
X114387100Y-68748740D01*
X114387100Y-68748740D02*
X114295900Y-68786940D01*
X114295900Y-68786940D02*
X114204500Y-68825940D01*
X114204500Y-68825940D02*
X114112800Y-68865940D01*
X114112800Y-68865940D02*
X114021300Y-68906440D01*
X114021300Y-68906440D02*
X113930200Y-68947540D01*
X113930200Y-68947540D02*
X113839400Y-68989240D01*
X113839400Y-68989240D02*
X113749000Y-69031540D01*
X113749000Y-69031540D02*
X113658900Y-69074440D01*
X113658900Y-69074440D02*
X113569100Y-69117940D01*
X113569100Y-69117940D02*
X113479300Y-69162140D01*
X113479300Y-69162140D02*
X113389200Y-69207340D01*
X113389200Y-69207340D02*
X113299300Y-69253140D01*
X113299300Y-69253140D02*
X113209900Y-69299440D01*
X113209900Y-69299440D02*
X113120800Y-69346340D01*
X113120800Y-69346340D02*
X113032100Y-69393740D01*
X113032100Y-69393740D02*
X112943700Y-69441740D01*
X112943700Y-69441740D02*
X112855700Y-69490340D01*
X112855700Y-69490340D02*
X112768100Y-69539440D01*
X112768100Y-69539440D02*
X112680800Y-69589040D01*
X112680800Y-69589040D02*
X112593900Y-69639240D01*
X112593900Y-69639240D02*
X112507400Y-69689940D01*
X112507400Y-69689940D02*
X112421300Y-69741140D01*
X112421300Y-69741140D02*
X112335500Y-69792840D01*
X112335500Y-69792840D02*
X112250100Y-69845140D01*
X112250100Y-69845140D02*
X112165100Y-69897840D01*
X112165100Y-69897840D02*
X112080400Y-69951140D01*
X112080400Y-69951140D02*
X111996200Y-70004840D01*
X111996200Y-70004840D02*
X111912300Y-70059140D01*
X111912300Y-70059140D02*
X111828800Y-70113840D01*
X111828800Y-70113840D02*
X111745700Y-70169040D01*
X111745700Y-70169040D02*
X111662900Y-70224640D01*
X111662900Y-70224640D02*
X111580600Y-70280740D01*
X111580600Y-70280740D02*
X111498600Y-70337340D01*
X111498600Y-70337340D02*
X111417000Y-70394340D01*
X111417000Y-70394340D02*
X111335800Y-70451840D01*
X111335800Y-70451840D02*
X111255000Y-70509740D01*
X111255000Y-70509740D02*
X111174500Y-70568140D01*
X111174500Y-70568140D02*
X111094500Y-70626940D01*
X111094500Y-70626940D02*
X111014800Y-70686140D01*
X111014800Y-70686140D02*
X110935500Y-70745740D01*
X110935500Y-70745740D02*
X110856600Y-70805840D01*
X110856600Y-70805840D02*
X110778100Y-70866240D01*
X110778100Y-70866240D02*
X110700000Y-70927140D01*
X110700000Y-70927140D02*
X110622300Y-70988340D01*
X110622300Y-70988340D02*
X110544600Y-71050240D01*
X110544600Y-71050240D02*
X110466700Y-71113040D01*
X110466700Y-71113040D02*
X110389200Y-71176140D01*
X110389200Y-71176140D02*
X110312100Y-71239740D01*
X110312100Y-71239740D02*
X110235300Y-71303640D01*
X110235300Y-71303640D02*
X110159000Y-71367940D01*
X110159000Y-71367940D02*
X110083100Y-71432640D01*
X110083100Y-71432640D02*
X110007200Y-71497940D01*
X110007200Y-71497940D02*
X109931200Y-71564040D01*
X109931200Y-71564040D02*
X109855500Y-71630640D01*
X109855500Y-71630640D02*
X109780300Y-71697440D01*
X109780300Y-71697440D02*
X109705400Y-71764740D01*
X109705400Y-71764740D02*
X109631000Y-71832240D01*
X109631000Y-71832240D02*
X109556900Y-71900140D01*
X109556900Y-71900140D02*
X109483200Y-71968340D01*
X109483200Y-71968340D02*
X109410000Y-72036940D01*
X109410000Y-72036940D02*
X109337100Y-72105740D01*
X109337100Y-72105740D02*
X109264700Y-72174940D01*
X109264700Y-72174940D02*
X109192600Y-72244440D01*
X109192600Y-72244440D02*
X109120900Y-72314140D01*
X109120900Y-72314140D02*
X109049600Y-72384240D01*
X109049600Y-72384240D02*
X108978700Y-72454640D01*
X108978700Y-72454640D02*
X108908200Y-72525240D01*
X108908200Y-72525240D02*
X108838100Y-72596140D01*
X108838100Y-72596140D02*
X108768400Y-72667340D01*
X108768400Y-72667340D02*
X108699100Y-72738740D01*
X108699100Y-72738740D02*
X108630200Y-72810440D01*
X108630200Y-72810440D02*
X108561600Y-72882440D01*
X108561600Y-72882440D02*
X108493400Y-72954640D01*
X108493400Y-72954640D02*
X108425700Y-73027140D01*
X108425700Y-73027140D02*
X108358300Y-73099840D01*
X108358300Y-73099840D02*
X108291300Y-73172740D01*
X108291300Y-73172740D02*
X108224600Y-73245940D01*
X108224600Y-73245940D02*
X108158100Y-73319540D01*
X108158100Y-73319540D02*
X108091400Y-73394040D01*
X108091400Y-73394040D02*
X108025200Y-73468740D01*
X108025200Y-73468740D02*
X107959000Y-73543940D01*
X107959000Y-73543940D02*
X107892800Y-73619940D01*
X107892800Y-73619940D02*
X107826900Y-73696240D01*
X107826900Y-73696240D02*
X107761400Y-73772640D01*
X107761400Y-73772640D02*
X107696300Y-73849240D01*
X107696300Y-73849240D02*
X107631600Y-73926040D01*
X107631600Y-73926040D02*
X107567300Y-74003040D01*
X107567300Y-74003040D02*
X107503300Y-74080240D01*
X107503300Y-74080240D02*
X107439800Y-74157540D01*
X107439800Y-74157540D02*
X107376600Y-74235040D01*
X107376600Y-74235040D02*
X107313800Y-74312740D01*
X107313800Y-74312740D02*
X107251400Y-74390640D01*
X107251400Y-74390640D02*
X107189300Y-74468640D01*
X107189300Y-74468640D02*
X107127700Y-74546740D01*
X107127700Y-74546740D02*
X107066400Y-74625040D01*
X107066400Y-74625040D02*
X107005500Y-74703540D01*
X107005500Y-74703540D02*
X106944900Y-74782040D01*
X106944900Y-74782040D02*
X106884800Y-74860840D01*
X106884800Y-74860840D02*
X106824700Y-74939940D01*
X106824700Y-74939940D02*
X106764600Y-75019840D01*
X106764600Y-75019840D02*
X106704800Y-75099840D01*
X106704800Y-75099840D02*
X106645200Y-75180240D01*
X106645200Y-75180240D02*
X106585500Y-75261440D01*
X106585500Y-75261440D02*
X106526200Y-75342640D01*
X106526200Y-75342640D02*
X106467300Y-75424040D01*
X106467300Y-75424040D02*
X106408700Y-75505440D01*
X106408700Y-75505440D02*
X106350500Y-75587040D01*
X106350500Y-75587040D02*
X106292700Y-75668740D01*
X106292700Y-75668740D02*
X106235230Y-75750440D01*
X106235230Y-75750440D02*
X106178140Y-75832240D01*
X106178140Y-75832240D02*
X106121410Y-75914140D01*
X106121410Y-75914140D02*
X106065050Y-75996140D01*
X106065050Y-75996140D02*
X106009040Y-76078140D01*
X106009040Y-76078140D02*
X105953400Y-76160240D01*
X105953400Y-76160240D02*
X105898110Y-76242340D01*
X105898110Y-76242340D02*
X105842970Y-76324840D01*
X105842970Y-76324840D02*
X105787560Y-76408340D01*
X105787560Y-76408340D02*
X105732110Y-76492540D01*
X105732110Y-76492540D02*
X105677020Y-76576740D01*
X105677020Y-76576740D02*
X105622300Y-76661040D01*
X105622300Y-76661040D02*
X105567940Y-76745340D01*
X105567940Y-76745340D02*
X105513930Y-76829640D01*
X105513930Y-76829640D02*
X105460290Y-76913940D01*
X105460290Y-76913940D02*
X105407000Y-76998340D01*
X105407000Y-76998340D02*
X105354070Y-77082740D01*
X105354070Y-77082740D02*
X105301490Y-77167140D01*
X105301490Y-77167140D02*
X105249260Y-77251540D01*
X105249260Y-77251540D02*
X105197370Y-77335940D01*
X105197370Y-77335940D02*
X105145640Y-77420640D01*
X105145640Y-77420640D02*
X105093700Y-77506340D01*
X105093700Y-77506340D02*
X105041720Y-77592640D01*
X105041720Y-77592640D02*
X104990100Y-77678940D01*
X104990100Y-77678940D02*
X104938840Y-77765140D01*
X104938840Y-77765140D02*
X104887930Y-77851440D01*
X104887930Y-77851440D02*
X104837360Y-77937640D01*
X104837360Y-77937640D02*
X104787150Y-78023840D01*
X104787150Y-78023840D02*
X104737280Y-78109940D01*
X104737280Y-78109940D02*
X104687750Y-78196040D01*
X104687750Y-78196040D02*
X104638560Y-78282140D01*
X104638560Y-78282140D02*
X104589540Y-78368540D01*
X104589540Y-78368540D02*
X104540330Y-78455740D01*
X104540330Y-78455740D02*
X104491110Y-78543540D01*
X104491110Y-78543540D02*
X104442250Y-78631340D01*
X104442250Y-78631340D02*
X104393720Y-78719040D01*
X104393720Y-78719040D02*
X104345540Y-78806640D01*
X104345540Y-78806640D02*
X104297700Y-78894240D01*
X104297700Y-78894240D02*
X104250200Y-78981740D01*
X104250200Y-78981740D02*
X104203040Y-79069140D01*
X104203040Y-79069140D02*
X104156210Y-79156540D01*
X104156210Y-79156540D02*
X104109380Y-79244440D01*
X104109380Y-79244440D02*
X104062240Y-79333440D01*
X104062240Y-79333440D02*
X104015430Y-79422440D01*
X104015430Y-79422440D02*
X103968970Y-79511240D01*
X103968970Y-79511240D02*
X103922840Y-79600040D01*
X103922840Y-79600040D02*
X103877050Y-79688640D01*
X103877050Y-79688640D02*
X103831590Y-79777240D01*
X103831590Y-79777240D02*
X103786470Y-79865640D01*
X103786470Y-79865640D02*
X103741510Y-79954240D01*
X103741510Y-79954240D02*
X103696430Y-80043740D01*
X103696430Y-80043740D02*
X103651360Y-80133640D01*
X103651360Y-80133640D02*
X103606640Y-80223440D01*
X103606640Y-80223440D02*
X103562240Y-80313140D01*
X103562240Y-80313140D02*
X103518180Y-80402640D01*
X103518180Y-80402640D02*
X103474450Y-80492040D01*
X103474450Y-80492040D02*
X103431040Y-80581340D01*
X103431040Y-80581340D02*
X103387670Y-80671040D01*
X103387670Y-80671040D02*
X103344030Y-80761840D01*
X103344030Y-80761840D02*
X103300740Y-80852440D01*
X103300740Y-80852440D02*
X103257770Y-80942940D01*
X103257770Y-80942940D02*
X103215120Y-81033240D01*
X103215120Y-81033240D02*
X103172810Y-81123440D01*
X103172810Y-81123440D02*
X103130820Y-81213440D01*
X103130820Y-81213440D02*
X103088870Y-81303840D01*
X103088870Y-81303840D02*
X103046690Y-81395240D01*
X103046690Y-81395240D02*
X103004840Y-81486540D01*
X103004840Y-81486540D02*
X102963310Y-81577540D01*
X102963310Y-81577540D02*
X102922110Y-81668440D01*
X102922110Y-81668440D02*
X102881230Y-81759140D01*
X102881230Y-81759140D02*
X102840670Y-81849640D01*
X102840670Y-81849640D02*
X102800170Y-81940540D01*
X102800170Y-81940540D02*
X102759460Y-82032340D01*
X102759460Y-82032340D02*
X102719070Y-82124040D01*
X102719070Y-82124040D02*
X102679010Y-82215440D01*
X102679010Y-82215440D02*
X102639260Y-82306740D01*
X102639260Y-82306740D02*
X102599830Y-82397740D01*
X102599830Y-82397740D02*
X102560470Y-82489040D01*
X102560470Y-82489040D02*
X102520920Y-82581340D01*
X102520920Y-82581340D02*
X102481700Y-82673440D01*
X102481700Y-82673440D02*
X102442790Y-82765240D01*
X102442790Y-82765240D02*
X102404200Y-82856840D01*
X102404200Y-82856840D02*
X102365680Y-82948840D01*
X102365680Y-82948840D02*
X102327000Y-83041640D01*
X102327000Y-83041640D02*
X102288640Y-83134240D01*
X102288640Y-83134240D02*
X102250600Y-83226540D01*
X102250600Y-83226540D02*
X102212870Y-83318540D01*
X102212870Y-83318540D02*
X102175220Y-83410940D01*
X102175220Y-83410940D02*
X102137430Y-83504140D01*
X102137430Y-83504140D02*
X102099960Y-83597140D01*
X102099960Y-83597140D02*
X102062800Y-83689740D01*
X102062800Y-83689740D02*
X102025960Y-83782140D01*
X102025960Y-83782140D02*
X101989210Y-83874840D01*
X101989210Y-83874840D02*
X101952320Y-83968340D01*
X101952320Y-83968340D02*
X101915760Y-84061440D01*
X101915760Y-84061440D02*
X101879510Y-84154340D01*
X101879510Y-84154340D02*
X101843570Y-84246940D01*
X101843570Y-84246940D02*
X101807730Y-84339740D01*
X101807730Y-84339740D02*
X101771780Y-84433440D01*
X101771780Y-84433440D02*
X101736140Y-84526740D01*
X101736140Y-84526740D02*
X101700810Y-84619640D01*
X101700810Y-84619640D02*
X101665580Y-84712840D01*
X101665580Y-84712840D02*
X101630260Y-84806840D01*
X101630260Y-84806840D02*
X101595250Y-84900440D01*
X101595250Y-84900440D02*
X101560560Y-84993740D01*
X101560560Y-84993740D02*
X101525970Y-85087140D01*
X101525970Y-85087140D02*
X101491300Y-85181340D01*
X101491300Y-85181340D02*
X101456950Y-85275140D01*
X101456950Y-85275140D02*
X101422710Y-85369140D01*
X101422710Y-85369140D02*
X101388400Y-85463840D01*
X101388400Y-85463840D02*
X101354410Y-85558240D01*
X101354410Y-85558240D02*
X101320730Y-85652140D01*
X101320730Y-85652140D02*
X101287360Y-85745740D01*
X101287360Y-85745740D02*
X101254110Y-85839440D01*
X101254110Y-85839440D02*
X101220800Y-85933740D01*
X101220800Y-85933740D02*
X101187800Y-86027740D01*
X101187800Y-86027740D02*
X101154940Y-86121840D01*
X101154940Y-86121840D02*
X101122020Y-86216540D01*
X101122020Y-86216540D02*
X101089420Y-86310840D01*
X101089420Y-86310840D02*
X101057130Y-86404740D01*
X101057130Y-86404740D02*
X101024960Y-86498640D01*
X101024960Y-86498640D02*
X100992770Y-86593240D01*
X100992770Y-86593240D02*
X100960710Y-86687840D01*
X100960710Y-86687840D02*
X100928630Y-86783040D01*
X100928630Y-86783040D02*
X100896870Y-86877840D01*
X100896870Y-86877840D02*
X100865410Y-86972140D01*
X100865410Y-86972140D02*
X100834090Y-87066440D01*
X100834090Y-87066440D02*
X100802760Y-87161340D01*
X100802760Y-87161340D02*
X100771590Y-87256240D01*
X100771590Y-87256240D02*
X100740400Y-87351640D01*
X100740400Y-87351640D02*
X100709530Y-87446640D01*
X100709530Y-87446640D02*
X100678970Y-87541040D01*
X100678970Y-87541040D02*
X100648560Y-87635540D01*
X100648560Y-87635540D02*
X100618010Y-87730940D01*
X100618010Y-87730940D02*
X100587460Y-87826740D01*
X100587460Y-87826740D02*
X100557230Y-87922140D01*
X100557230Y-87922140D02*
X100527320Y-88016940D01*
X100527320Y-88016940D02*
X100497560Y-88111740D01*
X100497560Y-88111740D02*
X100467680Y-88207340D01*
X100467680Y-88207340D02*
X100437840Y-88303440D01*
X100437840Y-88303440D02*
X100408300Y-88398940D01*
X100408300Y-88398940D02*
X100379080Y-88493940D01*
X100379080Y-88493940D02*
X100350030Y-88588840D01*
X100350030Y-88588840D02*
X100320880Y-88684540D01*
X100320880Y-88684540D02*
X100291780Y-88780540D01*
X100291780Y-88780540D02*
X100262980Y-88876040D01*
X100262980Y-88876040D02*
X100234370Y-88971340D01*
X100234370Y-88971340D02*
X100205690Y-89067440D01*
X100205690Y-89067440D02*
X100177050Y-89163740D01*
X100177050Y-89163740D02*
X100148740Y-89259540D01*
X100148740Y-89259540D02*
X100120620Y-89355140D01*
X100120620Y-89355140D02*
X100092430Y-89451440D01*
X100092430Y-89451440D02*
X100064320Y-89547940D01*
X100064320Y-89547940D02*
X100036520Y-89643840D01*
X100036520Y-89643840D02*
X100008930Y-89739540D01*
X100008930Y-89739540D02*
X99981290Y-89835840D01*
X99981290Y-89835840D02*
X99953730Y-89932240D01*
X99953730Y-89932240D02*
X99926500Y-90028140D01*
X99926500Y-90028140D02*
X99899470Y-90123740D01*
X99899470Y-90123740D02*
X99872410Y-90219840D01*
X99872410Y-90219840D02*
X99845450Y-90316140D01*
X99845450Y-90316140D02*
X99818700Y-90412140D01*
X99818700Y-90412140D02*
X99791940Y-90508640D01*
X99791940Y-90508640D02*
X99765280Y-90605240D01*
X99765280Y-90605240D02*
X99738950Y-90701140D01*
X99738950Y-90701140D02*
X99712730Y-90797040D01*
X99712730Y-90797040D02*
X99686420Y-90893840D01*
X99686420Y-90893840D02*
X99660430Y-90989840D01*
X99660430Y-90989840D02*
X99634560Y-91085940D01*
X99634560Y-91085940D02*
X99608610Y-91182740D01*
X99608610Y-91182740D02*
X99582890Y-91279140D01*
X99582890Y-91279140D02*
X99557210Y-91375940D01*
X99557210Y-91375940D02*
X99531660Y-91472640D01*
X99531660Y-91472640D02*
X99506260Y-91569340D01*
X99506260Y-91569340D02*
X99480800Y-91666640D01*
X99480800Y-91666640D02*
X99455690Y-91763140D01*
X99455690Y-91763140D02*
X99430720Y-91859540D01*
X99430720Y-91859540D02*
X99405730Y-91956540D01*
X99405730Y-91956540D02*
X99380890Y-92053340D01*
X99380890Y-92053340D02*
X99356040Y-92150740D01*
X99356040Y-92150740D02*
X99331520Y-92247140D01*
X99331520Y-92247140D02*
X99307180Y-92343440D01*
X99307180Y-92343440D02*
X99282830Y-92440240D01*
X99282830Y-92440240D02*
X99258660Y-92536840D01*
X99258660Y-92536840D02*
X99234490Y-92633740D01*
X99234490Y-92633740D02*
X99210510Y-92730440D01*
X99210510Y-92730440D02*
X99186560Y-92827540D01*
X99186560Y-92827540D02*
X99162790Y-92924240D01*
X99162790Y-92924240D02*
X99139070Y-93021340D01*
X99139070Y-93021340D02*
X99115540Y-93118040D01*
X99115540Y-93118040D02*
X99092050Y-93215040D01*
X99092050Y-93215040D02*
X99068780Y-93311740D01*
X99068780Y-93311740D02*
X99045410Y-93409140D01*
X99045410Y-93409140D02*
X99022120Y-93506740D01*
X99022120Y-93506740D02*
X98999050Y-93603940D01*
X98999050Y-93603940D02*
X98976060Y-93701140D01*
X98976060Y-93701140D02*
X98953300Y-93797940D01*
X98953300Y-93797940D02*
X98930490Y-93895440D01*
X98930490Y-93895440D02*
X98907780Y-93992840D01*
X98907780Y-93992840D02*
X98885320Y-94089740D01*
X98885320Y-94089740D02*
X98862840Y-94187240D01*
X98862840Y-94187240D02*
X98840350Y-94285140D01*
X98840350Y-94285140D02*
X98817990Y-94383040D01*
X98817990Y-94383040D02*
X98795900Y-94480140D01*
X98795900Y-94480140D02*
X98773820Y-94577740D01*
X98773820Y-94577740D02*
X98751890Y-94675040D01*
X98751890Y-94675040D02*
X98730110Y-94772240D01*
X98730110Y-94772240D02*
X98708270Y-94870140D01*
X98708270Y-94870140D02*
X98686710Y-94967240D01*
X98686710Y-94967240D02*
X98665210Y-95064540D01*
X98665210Y-95064540D02*
X98643780Y-95161940D01*
X98643780Y-95161940D02*
X98622440Y-95259540D01*
X98622440Y-95259540D02*
X98601190Y-95357040D01*
X98601190Y-95357040D02*
X98580040Y-95454640D01*
X98580040Y-95454640D02*
X98559000Y-95552140D01*
X98559000Y-95552140D02*
X98538080Y-95649540D01*
X98538080Y-95649540D02*
X98517200Y-95747340D01*
X98517200Y-95747340D02*
X98496360Y-95845340D01*
X98496360Y-95845340D02*
X98475770Y-95942640D01*
X98475770Y-95942640D02*
X98455150Y-96040540D01*
X98455150Y-96040540D02*
X98434710Y-96138040D01*
X98434710Y-96138040D02*
X98414360Y-96235540D01*
X98414360Y-96235540D02*
X98393940Y-96333940D01*
X98393940Y-96333940D02*
X98373650Y-96432140D01*
X98373650Y-96432140D02*
X98353660Y-96529340D01*
X98353660Y-96529340D02*
X98333640Y-96627140D01*
X98333640Y-96627140D02*
X98313630Y-96725340D01*
X98313630Y-96725340D02*
X98293650Y-96823940D01*
X98293650Y-96823940D02*
X98273780Y-96922440D01*
X98273780Y-96922440D02*
X98254190Y-97020040D01*
X98254190Y-97020040D02*
X98234810Y-97117140D01*
X98234810Y-97117140D02*
X98215500Y-97214140D01*
X98215500Y-97214140D02*
X98196170Y-97311840D01*
X98196170Y-97311840D02*
X98176700Y-97410740D01*
X98176700Y-97410740D02*
X98157380Y-97509340D01*
X98157380Y-97509340D02*
X98138230Y-97607540D01*
X98138230Y-97607540D02*
X98119260Y-97705240D01*
X98119260Y-97705240D02*
X98100380Y-97802940D01*
X98100380Y-97802940D02*
X98081490Y-97901240D01*
X98081490Y-97901240D02*
X98062740Y-97999240D01*
X98062740Y-97999240D02*
X98044040Y-98097440D01*
X98044040Y-98097440D02*
X98025530Y-98195140D01*
X98025530Y-98195140D02*
X98007020Y-98293240D01*
X98007020Y-98293240D02*
X97988560Y-98391640D01*
X97988560Y-98391640D02*
X97970180Y-98490040D01*
X97970180Y-98490040D02*
X97951910Y-98588340D01*
X97951910Y-98588340D02*
X97933790Y-98686240D01*
X97933790Y-98686240D02*
X97915770Y-98784140D01*
X97915770Y-98784140D02*
X97897730Y-98882640D01*
X97897730Y-98882640D02*
X97879800Y-98980940D01*
X97879800Y-98980940D02*
X97862020Y-99078940D01*
X97862020Y-99078940D02*
X97844170Y-99177840D01*
X97844170Y-99177840D02*
X97826430Y-99276540D01*
X97826430Y-99276540D02*
X97809000Y-99374040D01*
X97809000Y-99374040D02*
X97791560Y-99472040D01*
X97791560Y-99472040D02*
X97774050Y-99570840D01*
X97774050Y-99570840D02*
X97756700Y-99669340D01*
X97756700Y-99669340D02*
X97739360Y-99768240D01*
X97739360Y-99768240D02*
X97722140Y-99866840D01*
X97722140Y-99866840D02*
X97705050Y-99965240D01*
X97705050Y-99965240D02*
X97688020Y-100063840D01*
X97688020Y-100063840D02*
X97671100Y-100162140D01*
X97671100Y-100162140D02*
X97654220Y-100260840D01*
X97654220Y-100260840D02*
X97637400Y-100359540D01*
X97637400Y-100359540D02*
X97620720Y-100457940D01*
X97620720Y-100457940D02*
X97604050Y-100556840D01*
X97604050Y-100556840D02*
X97587460Y-100655640D01*
X97587460Y-100655640D02*
X97571100Y-100753540D01*
X97571100Y-100753540D02*
X97554750Y-100851940D01*
X97554750Y-100851940D02*
X97538360Y-100951040D01*
X97538360Y-100951040D02*
X97522140Y-101049540D01*
X97522140Y-101049540D02*
X97506100Y-101147540D01*
X97506100Y-101147540D02*
X97490000Y-101246340D01*
X97490000Y-101246340D02*
X97473940Y-101345340D01*
X97473940Y-101345340D02*
X97458040Y-101443840D01*
X97458040Y-101443840D02*
X97442230Y-101542340D01*
X97442230Y-101542340D02*
X97426590Y-101640340D01*
X97426590Y-101640340D02*
X97411010Y-101738840D01*
X97411010Y-101738840D02*
X97395370Y-101838440D01*
X97395370Y-101838440D02*
X97379890Y-101937840D01*
X97379890Y-101937840D02*
X97364560Y-102037040D01*
X97364560Y-102037040D02*
X97349390Y-102136040D01*
X97349390Y-102136040D02*
X97334380Y-102234840D01*
X97334380Y-102234840D02*
X97319520Y-102333340D01*
X97319520Y-102333340D02*
X97304810Y-102431740D01*
X97304810Y-102431740D02*
X97290260Y-102529840D01*
X97290260Y-102529840D02*
X97275762Y-102628440D01*
X97275762Y-102628440D02*
X97261232Y-102728140D01*
X97261232Y-102728140D02*
X97246861Y-102827640D01*
X97246861Y-102827640D02*
X97232646Y-102926940D01*
X97232646Y-102926940D02*
X97218589Y-103025940D01*
X97218589Y-103025940D02*
X97204689Y-103124740D01*
X97204689Y-103124740D02*
X97190945Y-103223340D01*
X97190945Y-103223340D02*
X97177356Y-103321740D01*
X97177356Y-103321740D02*
X97163834Y-103420640D01*
X97163834Y-103420640D02*
X97150297Y-103520540D01*
X97150297Y-103520540D02*
X97136919Y-103620140D01*
X97136919Y-103620140D02*
X97123701Y-103719640D01*
X97123701Y-103719640D02*
X97110642Y-103818840D01*
X97110642Y-103818840D02*
X97097742Y-103917940D01*
X97097742Y-103917940D02*
X97084999Y-104016740D01*
X97084999Y-104016740D02*
X97072413Y-104115340D01*
X97072413Y-104115340D02*
X97059984Y-104213640D01*
X97059984Y-104213640D02*
X97047633Y-104312440D01*
X97047633Y-104312440D02*
X97035286Y-104412240D01*
X97035286Y-104412240D02*
X97023099Y-104511840D01*
X97023099Y-104511840D02*
X97011073Y-104611240D01*
X97011073Y-104611240D02*
X96999207Y-104710440D01*
X96999207Y-104710440D02*
X96987500Y-104809340D01*
X96987500Y-104809340D02*
X96975952Y-104908040D01*
X96975952Y-104908040D02*
X96964491Y-105007140D01*
X96964491Y-105007140D02*
X96953049Y-105107240D01*
X96953049Y-105107240D02*
X96941771Y-105207140D01*
X96941771Y-105207140D02*
X96930655Y-105306840D01*
X96930655Y-105306840D02*
X96919701Y-105406240D01*
X96919701Y-105406240D02*
X96908908Y-105505440D01*
X96908908Y-105505440D02*
X96898276Y-105604440D01*
X96898276Y-105604440D02*
X96887804Y-105703140D01*
X96887804Y-105703140D02*
X96877428Y-105802340D01*
X96877428Y-105802340D02*
X96867089Y-105902440D01*
X96867089Y-105902440D02*
X96856914Y-106002340D01*
X96856914Y-106002340D02*
X96846903Y-106101940D01*
X96846903Y-106101940D02*
X96837055Y-106201440D01*
X96837055Y-106201440D02*
X96827370Y-106300640D01*
X96827370Y-106300640D02*
X96817846Y-106399540D01*
X96817846Y-106399540D02*
X96808427Y-106498940D01*
X96808427Y-106498940D02*
X96799061Y-106599240D01*
X96799061Y-106599240D02*
X96789860Y-106699240D01*
X96789860Y-106699240D02*
X96780824Y-106799040D01*
X96780824Y-106799040D02*
X96771954Y-106898640D01*
X96771954Y-106898640D02*
X96763247Y-106998040D01*
X96763247Y-106998040D02*
X96754703Y-107097140D01*
X96754703Y-107097140D02*
X96746323Y-107196040D01*
X96746323Y-107196040D02*
X96738056Y-107295240D01*
X96738056Y-107295240D02*
X96729857Y-107395440D01*
X96729857Y-107395440D02*
X96721825Y-107495340D01*
X96721825Y-107495340D02*
X96713960Y-107595040D01*
X96713960Y-107595040D02*
X96706259Y-107694440D01*
X96706259Y-107694440D02*
X96698724Y-107793640D01*
X96698724Y-107793640D02*
X96691309Y-107893240D01*
X96691309Y-107893240D02*
X96683977Y-107993640D01*
X96683977Y-107993640D02*
X96676814Y-108093940D01*
X96676814Y-108093940D02*
X96669818Y-108193840D01*
X96669818Y-108193840D02*
X96662990Y-108293540D01*
X96662990Y-108293540D02*
X96656328Y-108393040D01*
X96656328Y-108393040D02*
X96649832Y-108492340D01*
X96649832Y-108492340D02*
X96643501Y-108591340D01*
X96643501Y-108591340D02*
X96637299Y-108690640D01*
X96637299Y-108690640D02*
X96631196Y-108790840D01*
X96631196Y-108790840D02*
X96625261Y-108890740D01*
X96625261Y-108890740D02*
X96619495Y-108990440D01*
X96619495Y-108990440D02*
X96613896Y-109089940D01*
X96613896Y-109089940D02*
X96608434Y-109189740D01*
X96608434Y-109189740D02*
X96603081Y-109290340D01*
X96603081Y-109290340D02*
X96597899Y-109390740D01*
X96597899Y-109390740D02*
X96592888Y-109490840D01*
X96592888Y-109490840D02*
X96588047Y-109590740D01*
X96588047Y-109590740D02*
X96583374Y-109690340D01*
X96583374Y-109690340D02*
X96578870Y-109789740D01*
X96578870Y-109789740D02*
X96574533Y-109888840D01*
X96574533Y-109888840D02*
X96570341Y-109988240D01*
X96570341Y-109988240D02*
X96566273Y-110088540D01*
X96566273Y-110088540D02*
X96562376Y-110188540D01*
X96562376Y-110188540D02*
X96558649Y-110288240D01*
X96558649Y-110288240D02*
X96555092Y-110387740D01*
X96555092Y-110387740D02*
X96551685Y-110487540D01*
X96551685Y-110487540D02*
X96548415Y-110588140D01*
X96548415Y-110588140D02*
X96545317Y-110688440D01*
X96545317Y-110688440D02*
X96542391Y-110788540D01*
X96542391Y-110788540D02*
X96539637Y-110888340D01*
X96539637Y-110888340D02*
X96537054Y-110987940D01*
X96537054Y-110987940D02*
X96534640Y-111087240D01*
X96534640Y-111087240D02*
X96532384Y-111186740D01*
X96532384Y-111186740D02*
X96530276Y-111287140D01*
X96530276Y-111287140D02*
X96528342Y-111387240D01*
X96528342Y-111387240D02*
X96526581Y-111487040D01*
X96526581Y-111487040D02*
X96524991Y-111586640D01*
X96524991Y-111586640D02*
X96523564Y-111686440D01*
X96523564Y-111686440D02*
X96522297Y-111787040D01*
X96522297Y-111787040D02*
X96521205Y-111887340D01*
X96521205Y-111887340D02*
X96520287Y-111987440D01*
X96520287Y-111987440D02*
X96519542Y-112087240D01*
X96519542Y-112087240D02*
X96518969Y-112186740D01*
X96518969Y-112186740D02*
X96518568Y-112286040D01*
X96518568Y-112286040D02*
X96518336Y-112385540D01*
X96518336Y-112385540D02*
X96518277Y-112485740D01*
X96518277Y-112485740D02*
X96518392Y-112585740D01*
X96518392Y-112585740D02*
X96518681Y-112685440D01*
X96518681Y-112685440D02*
X96519146Y-112785440D01*
X96519146Y-112785440D02*
X96519791Y-112886140D01*
X96519791Y-112886140D02*
X96520614Y-112986540D01*
X96520614Y-112986540D02*
X96521612Y-113086640D01*
X96521612Y-113086640D02*
X96522785Y-113186540D01*
X96522785Y-113186540D02*
X96524132Y-113286040D01*
X96524132Y-113286040D02*
X96525653Y-113385340D01*
X96525653Y-113385340D02*
X96527354Y-113484940D01*
X96527354Y-113484940D02*
X96529249Y-113585140D01*
X96529249Y-113585140D02*
X96531320Y-113685140D01*
X96531320Y-113685140D02*
X96533566Y-113784740D01*
X96533566Y-113784740D02*
X96535998Y-113884640D01*
X96535998Y-113884640D02*
X96538633Y-113985240D01*
X96538633Y-113985240D02*
X96541445Y-114085540D01*
X96541445Y-114085540D02*
X96544434Y-114185540D01*
X96544434Y-114185540D02*
X96547599Y-114285340D01*
X96547599Y-114285340D02*
X96550939Y-114384740D01*
X96550939Y-114384740D02*
X96554454Y-114483940D01*
X96554454Y-114483940D02*
X96558160Y-114583240D01*
X96558160Y-114583240D02*
X96562079Y-114683340D01*
X96562079Y-114683340D02*
X96566175Y-114783040D01*
X96566175Y-114783040D02*
X96570467Y-114882940D01*
X96570467Y-114882940D02*
X96574981Y-114983640D01*
X96574981Y-114983640D02*
X96579673Y-115083940D01*
X96579673Y-115083940D02*
X96584544Y-115183940D01*
X96584544Y-115183940D02*
X96589592Y-115283640D01*
X96589592Y-115283640D02*
X96594816Y-115383040D01*
X96594816Y-115383040D02*
X96600215Y-115482140D01*
X96600215Y-115482140D02*
X96605816Y-115581540D01*
X96605816Y-115581540D02*
X96611648Y-115681440D01*
X96611648Y-115681440D02*
X96617658Y-115781140D01*
X96617658Y-115781140D02*
X96623874Y-115880940D01*
X96623874Y-115880940D02*
X96630328Y-115981340D01*
X96630328Y-115981340D02*
X96636961Y-116081540D01*
X96636961Y-116081540D02*
X96643774Y-116181340D01*
X96643774Y-116181340D02*
X96650765Y-116280940D01*
X96650765Y-116280940D02*
X96657932Y-116380140D01*
X96657932Y-116380140D02*
X96665276Y-116479040D01*
X96665276Y-116479040D02*
X96672829Y-116578140D01*
X96672829Y-116578140D02*
X96680630Y-116677840D01*
X96680630Y-116677840D02*
X96688646Y-116777740D01*
X96688646Y-116777740D02*
X96696917Y-116878140D01*
X96696917Y-116878140D02*
X96705368Y-116978340D01*
X96705368Y-116978340D02*
X96713999Y-117078140D01*
X96713999Y-117078140D02*
X96722809Y-117177640D01*
X96722809Y-117177640D02*
X96731796Y-117276840D01*
X96731796Y-117276840D02*
X96740961Y-117375740D01*
X96740961Y-117375740D02*
X96750343Y-117474740D01*
X96750343Y-117474740D02*
X96759989Y-117574440D01*
X96759989Y-117574440D02*
X96769857Y-117674140D01*
X96769857Y-117674140D02*
X96779995Y-117774440D01*
X96779995Y-117774440D02*
X96790313Y-117874440D01*
X96790313Y-117874440D02*
X96800812Y-117974040D01*
X96800812Y-117974040D02*
X96811490Y-118073340D01*
X96811490Y-118073340D02*
X96822346Y-118172440D01*
X96822346Y-118172440D02*
X96833379Y-118271140D01*
X96833379Y-118271140D02*
X96844638Y-118369940D01*
X96844638Y-118369940D02*
X96856174Y-118469240D01*
X96856174Y-118469240D02*
X96867940Y-118568740D01*
X96867940Y-118568740D02*
X96879988Y-118668740D01*
X96879988Y-118668740D02*
X96892218Y-118768440D01*
X96892218Y-118768440D02*
X96904628Y-118867740D01*
X96904628Y-118867740D02*
X96917216Y-118966740D01*
X96917216Y-118966740D02*
X96929982Y-119065440D01*
X96929982Y-119065440D02*
X96942925Y-119163840D01*
X96942925Y-119163840D02*
X96956100Y-119262340D01*
X96956100Y-119262340D02*
X96969623Y-119361740D01*
X96969623Y-119361740D02*
X96983441Y-119461640D01*
X96983441Y-119461640D02*
X96997441Y-119561140D01*
X96997441Y-119561140D02*
X97011620Y-119660340D01*
X97011620Y-119660340D02*
X97025979Y-119759240D01*
X97025979Y-119759240D02*
X97040516Y-119857840D01*
X97040516Y-119857840D02*
X97055229Y-119956040D01*
X97055229Y-119956040D02*
X97070181Y-120054340D01*
X97070181Y-120054340D02*
X97085435Y-120153140D01*
X97085435Y-120153140D02*
X97100930Y-120252040D01*
X97100930Y-120252040D02*
X97116734Y-120351340D01*
X97116734Y-120351340D02*
X97132717Y-120450340D01*
X97132717Y-120450340D02*
X97148879Y-120548940D01*
X97148879Y-120548940D02*
X97165218Y-120647240D01*
X97165218Y-120647240D02*
X97181733Y-120745240D01*
X97181733Y-120745240D02*
X97198492Y-120843240D01*
X97198492Y-120843240D02*
X97215633Y-120942040D01*
X97215633Y-120942040D02*
X97233093Y-121041440D01*
X97233093Y-121041440D02*
X97250732Y-121140340D01*
X97250732Y-121140340D02*
X97268551Y-121238940D01*
X97268551Y-121238940D02*
X97286547Y-121337240D01*
X97286547Y-121337240D02*
X97304720Y-121435140D01*
X97304720Y-121435140D02*
X97323070Y-121532740D01*
X97323070Y-121532740D02*
X97341660Y-121630340D01*
X97341660Y-121630340D02*
X97360660Y-121728740D01*
X97360660Y-121728740D02*
X97379980Y-121827540D01*
X97379980Y-121827540D02*
X97399480Y-121926040D01*
X97399480Y-121926040D02*
X97419160Y-122024140D01*
X97419160Y-122024140D02*
X97439010Y-122121940D01*
X97439010Y-122121940D02*
X97459040Y-122219340D01*
X97459040Y-122219340D02*
X97479320Y-122316740D01*
X97479320Y-122316740D02*
X97500010Y-122414940D01*
X97500010Y-122414940D02*
X97521050Y-122513540D01*
X97521050Y-122513540D02*
X97542250Y-122611740D01*
X97542250Y-122611740D02*
X97563640Y-122709640D01*
X97563640Y-122709640D02*
X97585200Y-122807140D01*
X97585200Y-122807140D02*
X97606930Y-122904340D01*
X97606930Y-122904340D02*
X97628840Y-123001040D01*
X97628840Y-123001040D02*
X97651000Y-123097840D01*
X97651000Y-123097840D02*
X97673590Y-123195440D01*
X97673590Y-123195440D02*
X97696520Y-123293240D01*
X97696520Y-123293240D02*
X97719630Y-123390840D01*
X97719630Y-123390840D02*
X97742910Y-123487940D01*
X97742910Y-123487940D02*
X97766370Y-123584740D01*
X97766370Y-123584740D02*
X97789990Y-123681140D01*
X97789990Y-123681140D02*
X97813960Y-123777940D01*
X97813960Y-123777940D02*
X97838460Y-123875740D01*
X97838460Y-123875740D02*
X97863140Y-123973140D01*
X97863140Y-123973140D02*
X97887990Y-124070140D01*
X97887990Y-124070140D02*
X97913010Y-124166840D01*
X97913010Y-124166840D02*
X97938200Y-124263140D01*
X97938200Y-124263140D02*
X97963560Y-124359140D01*
X97963560Y-124359140D02*
X97989280Y-124455340D01*
X97989280Y-124455340D02*
X98015540Y-124552640D01*
X98015540Y-124552640D02*
X98041970Y-124649540D01*
X98041970Y-124649540D02*
X98068570Y-124746040D01*
X98068570Y-124746040D02*
X98095340Y-124842140D01*
X98095340Y-124842140D02*
X98122280Y-124937840D01*
X98122280Y-124937840D02*
X98149480Y-125033540D01*
X98149480Y-125033540D02*
X98177140Y-125129940D01*
X98177140Y-125129940D02*
X98205170Y-125226540D01*
X98205170Y-125226540D02*
X98233370Y-125322740D01*
X98233370Y-125322740D02*
X98261730Y-125418540D01*
X98261730Y-125418540D02*
X98290260Y-125514040D01*
X98290260Y-125514040D02*
X98318950Y-125609140D01*
X98318950Y-125609140D02*
X98348010Y-125704440D01*
X98348010Y-125704440D02*
X98377640Y-125800740D01*
X98377640Y-125800740D02*
X98407440Y-125896540D01*
X98407440Y-125896540D02*
X98437410Y-125992040D01*
X98437410Y-125992040D02*
X98467540Y-126087140D01*
X98467540Y-126087140D02*
X98497830Y-126181840D01*
X98497830Y-126181840D02*
X98528490Y-126276740D01*
X98528490Y-126276740D02*
X98559730Y-126372640D01*
X98559730Y-126372640D02*
X98591140Y-126468040D01*
X98591140Y-126468040D02*
X98622710Y-126563040D01*
X98622710Y-126563040D02*
X98654450Y-126657740D01*
X98654450Y-126657740D02*
X98686340Y-126751940D01*
X98686340Y-126751940D02*
X98718610Y-126846440D01*
X98718610Y-126846440D02*
X98751470Y-126941740D01*
X98751470Y-126941740D02*
X98784490Y-127036640D01*
X98784490Y-127036640D02*
X98817670Y-127131140D01*
X98817670Y-127131140D02*
X98851020Y-127225240D01*
X98851020Y-127225240D02*
X98884520Y-127318940D01*
X98884520Y-127318940D02*
X98918400Y-127412840D01*
X98918400Y-127412840D02*
X98952870Y-127507540D01*
X98952870Y-127507540D02*
X98987510Y-127601840D01*
X98987510Y-127601840D02*
X99022310Y-127695740D01*
X99022310Y-127695740D02*
X99057260Y-127789240D01*
X99057260Y-127789240D02*
X99092370Y-127882240D01*
X99092370Y-127882240D02*
X99127850Y-127975540D01*
X99127850Y-127975540D02*
X99163950Y-128069540D01*
X99163950Y-128069540D02*
X99200200Y-128163240D01*
X99200200Y-128163240D02*
X99236600Y-128256440D01*
X99236600Y-128256440D02*
X99273160Y-128349240D01*
X99273160Y-128349240D02*
X99309870Y-128441540D01*
X99309870Y-128441540D02*
X99346950Y-128534140D01*
X99346950Y-128534140D02*
X99384660Y-128627440D01*
X99384660Y-128627440D02*
X99422520Y-128720240D01*
X99422520Y-128720240D02*
X99460520Y-128812740D01*
X99460520Y-128812740D02*
X99498680Y-128904740D01*
X99498680Y-128904740D02*
X99536980Y-128996340D01*
X99536980Y-128996340D02*
X99575660Y-129088140D01*
X99575660Y-129088140D02*
X99614970Y-129180540D01*
X99614970Y-129180540D02*
X99654430Y-129272540D01*
X99654430Y-129272540D02*
X99694030Y-129364240D01*
X99694030Y-129364240D02*
X99733770Y-129455340D01*
X99733770Y-129455340D02*
X99773900Y-129546740D01*
X99773900Y-129546740D02*
X99814650Y-129638740D01*
X99814650Y-129638740D02*
X99855550Y-129730240D01*
X99855550Y-129730240D02*
X99896590Y-129821440D01*
X99896590Y-129821440D02*
X99937770Y-129912140D01*
X99937770Y-129912140D02*
X99979090Y-130002340D01*
X99979090Y-130002340D02*
X100020800Y-130092740D01*
X100020800Y-130092740D02*
X100063130Y-130183840D01*
X100063130Y-130183840D02*
X100105610Y-130274340D01*
X100105610Y-130274340D02*
X100148220Y-130364540D01*
X100148220Y-130364540D02*
X100191220Y-130454840D01*
X100191220Y-130454840D02*
X100234850Y-130545640D01*
X100234850Y-130545640D02*
X100278620Y-130636140D01*
X100278620Y-130636140D02*
X100322520Y-130726140D01*
X100322520Y-130726140D02*
X100366560Y-130815640D01*
X100366560Y-130815640D02*
X100410730Y-130904740D01*
X100410730Y-130904740D02*
X100455280Y-130993940D01*
X100455280Y-130993940D02*
X100500470Y-131083740D01*
X100500470Y-131083740D02*
X100545790Y-131173040D01*
X100545790Y-131173040D02*
X100591240Y-131261940D01*
X100591240Y-131261940D02*
X100636810Y-131350440D01*
X100636810Y-131350440D02*
X100682770Y-131438940D01*
X100682770Y-131438940D02*
X100729370Y-131527940D01*
X100729370Y-131527940D02*
X100776100Y-131616640D01*
X100776100Y-131616640D02*
X100822950Y-131704740D01*
X100822950Y-131704740D02*
X100869920Y-131792540D01*
X100869920Y-131792540D02*
X100917010Y-131879840D01*
X100917010Y-131879840D02*
X100964470Y-131967140D01*
X100964470Y-131967140D02*
X101012590Y-132054940D01*
X101012590Y-132054940D02*
X101060820Y-132142440D01*
X101060820Y-132142440D02*
X101109430Y-132229840D01*
X101109430Y-132229840D02*
X101158690Y-132317740D01*
X101158690Y-132317740D02*
X101208070Y-132405240D01*
X101208070Y-132405240D02*
X101257560Y-132492240D01*
X101257560Y-132492240D02*
X101307160Y-132578840D01*
X101307160Y-132578840D02*
X101356870Y-132664940D01*
X101356870Y-132664940D02*
X101406960Y-132751140D01*
X101406960Y-132751140D02*
X101457690Y-132837740D01*
X101457690Y-132837740D02*
X101508540Y-132923840D01*
X101508540Y-132923840D02*
X101559490Y-133009540D01*
X101559490Y-133009540D02*
X101610810Y-133095240D01*
X101610810Y-133095240D02*
X101662780Y-133181340D01*
X101662780Y-133181340D02*
X101714860Y-133267040D01*
X101714860Y-133267040D02*
X101767040Y-133352240D01*
X101767040Y-133352240D02*
X101819320Y-133437040D01*
X101819320Y-133437040D02*
X101871690Y-133521340D01*
X101871690Y-133521340D02*
X101924440Y-133605640D01*
X101924440Y-133605640D02*
X101977830Y-133690340D01*
X101977830Y-133690340D02*
X102031320Y-133774640D01*
X102031320Y-133774640D02*
X102085180Y-133858840D01*
X102085180Y-133858840D02*
X102139680Y-133943440D01*
X102139680Y-133943440D02*
X102194270Y-134027640D01*
X102194270Y-134027640D02*
X102248960Y-134111340D01*
X102248960Y-134111340D02*
X102303730Y-134194540D01*
X102303730Y-134194540D02*
X102358590Y-134277340D01*
X102358590Y-134277340D02*
X102413820Y-134360040D01*
X102413820Y-134360040D02*
X102469680Y-134443140D01*
X102469680Y-134443140D02*
X102525630Y-134525840D01*
X102525630Y-134525840D02*
X102581940Y-134608340D01*
X102581940Y-134608340D02*
X102638890Y-134691340D01*
X102638890Y-134691340D02*
X102695930Y-134773740D01*
X102695930Y-134773740D02*
X102753040Y-134855740D01*
X102753040Y-134855740D02*
X102810220Y-134937240D01*
X102810220Y-134937240D02*
X102867480Y-135018340D01*
X102867480Y-135018340D02*
X102925100Y-135099340D01*
X102925100Y-135099340D02*
X102983350Y-135180640D01*
X102983350Y-135180640D02*
X103041950Y-135261940D01*
X103041950Y-135261940D02*
X103101190Y-135343440D01*
X103101190Y-135343440D02*
X103160500Y-135424540D01*
X103160500Y-135424540D02*
X103219880Y-135505140D01*
X103219880Y-135505140D02*
X103279320Y-135585240D01*
X103279320Y-135585240D02*
X103338820Y-135664940D01*
X103338820Y-135664940D02*
X103398670Y-135744540D01*
X103398670Y-135744540D02*
X103459150Y-135824340D01*
X103459150Y-135824340D02*
X103519690Y-135903740D01*
X103519690Y-135903740D02*
X103580560Y-135983040D01*
X103580560Y-135983040D02*
X103642070Y-136062540D01*
X103642070Y-136062540D02*
X103703630Y-136141640D01*
X103703630Y-136141640D02*
X103765240Y-136220240D01*
X103765240Y-136220240D02*
X103826900Y-136298340D01*
X103826900Y-136298340D02*
X103888610Y-136376040D01*
X103888610Y-136376040D02*
X103950660Y-136453540D01*
X103950660Y-136453540D02*
X104013320Y-136531340D01*
X104013320Y-136531340D02*
X104076310Y-136609040D01*
X104076310Y-136609040D02*
X104139920Y-136686940D01*
X104139920Y-136686940D02*
X104203570Y-136764340D01*
X104203570Y-136764340D02*
X104267270Y-136841240D01*
X104267270Y-136841240D02*
X104330990Y-136917740D01*
X104330990Y-136917740D02*
X104394760Y-136993740D01*
X104394760Y-136993740D02*
X104458840Y-137069540D01*
X104458840Y-137069540D02*
X104523530Y-137145640D01*
X104523530Y-137145640D02*
X104588550Y-137221540D01*
X104588550Y-137221540D02*
X104654160Y-137297640D01*
X104654160Y-137297640D02*
X104719810Y-137373340D01*
X104719810Y-137373340D02*
X104785470Y-137448440D01*
X104785470Y-137448440D02*
X104851170Y-137523140D01*
X104851170Y-137523140D02*
X104917170Y-137597640D01*
X104917170Y-137597640D02*
X104983770Y-137672340D01*
X104983770Y-137672340D02*
X105050670Y-137746940D01*
X105050670Y-137746940D02*
X105118170Y-137821640D01*
X105118170Y-137821640D02*
X105185680Y-137895840D01*
X105185680Y-137895840D02*
X105253210Y-137969540D01*
X105253210Y-137969540D02*
X105320750Y-138042840D01*
X105320750Y-138042840D02*
X105388290Y-138115640D01*
X105388290Y-138115640D02*
X105456130Y-138188240D01*
X105456130Y-138188240D02*
X105524840Y-138261340D01*
X105524840Y-138261340D02*
X105594140Y-138334440D01*
X105594140Y-138334440D02*
X105663430Y-138407140D01*
X105663430Y-138407140D02*
X105732720Y-138479440D01*
X105732720Y-138479440D02*
X105802010Y-138551140D01*
X105802010Y-138551140D02*
X105871300Y-138622340D01*
X105871300Y-138622340D02*
X105940870Y-138693440D01*
X105940870Y-138693440D02*
X106011290Y-138764940D01*
X106011290Y-138764940D02*
X106082280Y-138836540D01*
X106082280Y-138836540D02*
X106153260Y-138907640D01*
X106153260Y-138907640D02*
X106224220Y-138978240D01*
X106224220Y-138978240D02*
X106295200Y-139048340D01*
X106295200Y-139048340D02*
X106366100Y-139117940D01*
X106366100Y-139117940D02*
X106437300Y-139187440D01*
X106437300Y-139187440D02*
X106509300Y-139257240D01*
X106509300Y-139257240D02*
X106581900Y-139327040D01*
X106581900Y-139327040D02*
X106654500Y-139396440D01*
X106654500Y-139396440D02*
X106727000Y-139465340D01*
X106727000Y-139465340D02*
X106799500Y-139533740D01*
X106799500Y-139533740D02*
X106872000Y-139601740D01*
X106872000Y-139601740D02*
X106944700Y-139669440D01*
X106944700Y-139669440D02*
X107018200Y-139737540D01*
X107018200Y-139737540D02*
X107092300Y-139805640D01*
X107092300Y-139805640D02*
X107166300Y-139873240D01*
X107166300Y-139873240D02*
X107240300Y-139940340D01*
X107240300Y-139940340D02*
X107314200Y-140006940D01*
X107314200Y-140006940D02*
X107388400Y-140073440D01*
X107388400Y-140073440D02*
X107463400Y-140140140D01*
X107463400Y-140140140D02*
X107538900Y-140206840D01*
X107538900Y-140206840D02*
X107614400Y-140273040D01*
X107614400Y-140273040D02*
X107689800Y-140338840D01*
X107689800Y-140338840D02*
X107765100Y-140404040D01*
X107765100Y-140404040D02*
X107840300Y-140468840D01*
X107840300Y-140468840D02*
X107915800Y-140533440D01*
X107915800Y-140533440D02*
X107992100Y-140598240D01*
X107992100Y-140598240D02*
X108068900Y-140663040D01*
X108068900Y-140663040D02*
X108145600Y-140727340D01*
X108145600Y-140727340D02*
X108222200Y-140791240D01*
X108222200Y-140791240D02*
X108298800Y-140854540D01*
X108298800Y-140854540D02*
X108375500Y-140917740D01*
X108375500Y-140917740D02*
X108453000Y-140981040D01*
X108453000Y-140981040D02*
X108531000Y-141044340D01*
X108531000Y-141044340D02*
X108609000Y-141107140D01*
X108609000Y-141107140D02*
X108686800Y-141169540D01*
X108686800Y-141169540D02*
X108764500Y-141231440D01*
X108764500Y-141231440D02*
X108842700Y-141293240D01*
X108842700Y-141293240D02*
X108922000Y-141355440D01*
X108922000Y-141355440D02*
X109001100Y-141417240D01*
X109001100Y-141417240D02*
X109080200Y-141478540D01*
X109080200Y-141478540D02*
X109159100Y-141539340D01*
X109159100Y-141539340D02*
X109237900Y-141599640D01*
X109237900Y-141599640D02*
X109317200Y-141659940D01*
X109317200Y-141659940D02*
X109397500Y-141720540D01*
X109397500Y-141720540D02*
X109477700Y-141780640D01*
X109477700Y-141780640D02*
X109557700Y-141840340D01*
X109557700Y-141840340D02*
X109637700Y-141899540D01*
X109637700Y-141899540D02*
X109718000Y-141958640D01*
X109718000Y-141958640D02*
X109799400Y-142018140D01*
X109799400Y-142018140D02*
X109880600Y-142077140D01*
X109880600Y-142077140D02*
X109961700Y-142135540D01*
X109961700Y-142135540D02*
X110042700Y-142193640D01*
X110042700Y-142193640D02*
X110123500Y-142251140D01*
X110123500Y-142251140D02*
X110204800Y-142308640D01*
X110204800Y-142308640D02*
X110287000Y-142366340D01*
X110287000Y-142366340D02*
X110369000Y-142423640D01*
X110369000Y-142423640D02*
X110450900Y-142480440D01*
X110450900Y-142480440D02*
X110532700Y-142536740D01*
X110532700Y-142536740D02*
X110614900Y-142592940D01*
X110614900Y-142592940D02*
X110698000Y-142649440D01*
X110698000Y-142649440D02*
X110780900Y-142705440D01*
X110780900Y-142705440D02*
X110863700Y-142761040D01*
X110863700Y-142761040D02*
X110946300Y-142816040D01*
X110946300Y-142816040D02*
X111029300Y-142871040D01*
X111029300Y-142871040D02*
X111113300Y-142926240D01*
X111113300Y-142926240D02*
X111197000Y-142980940D01*
X111197000Y-142980940D02*
X111280600Y-143035140D01*
X111280600Y-143035140D02*
X111364500Y-143089240D01*
X111364500Y-143089240D02*
X111449300Y-143143540D01*
X111449300Y-143143540D02*
X111534000Y-143197440D01*
X111534000Y-143197440D02*
X111618400Y-143250740D01*
X111618400Y-143250740D02*
X111702700Y-143303640D01*
X111702700Y-143303640D02*
X111787300Y-143356440D01*
X111787300Y-143356440D02*
X111872800Y-143409340D01*
X111872800Y-143409340D02*
X111958000Y-143461840D01*
X111958000Y-143461840D02*
X112043100Y-143513840D01*
X112043100Y-143513840D02*
X112128000Y-143565340D01*
X112128000Y-143565340D02*
X112213200Y-143616640D01*
X112213200Y-143616640D02*
X112299200Y-143668240D01*
X112299200Y-143668240D02*
X112385000Y-143719240D01*
X112385000Y-143719240D02*
X112471200Y-143770140D01*
X112471200Y-143770140D02*
X112558100Y-143821140D01*
X112558100Y-143821140D02*
X112644800Y-143871740D01*
X112644800Y-143871740D02*
X112731300Y-143921840D01*
X112731300Y-143921840D02*
X112817600Y-143971440D01*
X112817600Y-143971440D02*
X112904200Y-144020840D01*
X112904200Y-144020840D02*
X112991500Y-144070440D01*
X112991500Y-144070440D02*
X113078600Y-144119440D01*
X113078600Y-144119440D02*
X113165500Y-144168140D01*
X113165500Y-144168140D02*
X113252600Y-144216540D01*
X113252600Y-144216540D02*
X113340600Y-144265040D01*
X113340600Y-144265040D02*
X113428200Y-144313140D01*
X113428200Y-144313140D02*
X113515600Y-144360740D01*
X113515600Y-144360740D02*
X113603300Y-144408140D01*
X113603300Y-144408140D02*
X113691700Y-144455540D01*
X113691700Y-144455540D02*
X113779800Y-144502540D01*
X113779800Y-144502540D02*
X113868200Y-144549340D01*
X113868200Y-144549340D02*
X113957300Y-144596240D01*
X113957300Y-144596240D02*
X114046100Y-144642640D01*
X114046100Y-144642640D02*
X114134600Y-144688540D01*
X114134600Y-144688540D02*
X114222900Y-144733940D01*
X114222900Y-144733940D02*
X114311400Y-144779240D01*
X114311400Y-144779240D02*
X114400500Y-144824540D01*
X114400500Y-144824540D02*
X114489900Y-144869640D01*
X114489900Y-144869640D02*
X114579900Y-144914740D01*
X114579900Y-144914740D02*
X114669700Y-144959340D01*
X114669700Y-144959340D02*
X114759100Y-145003440D01*
X114759100Y-145003440D02*
X114848300Y-145047140D01*
X114848300Y-145047140D02*
X114937600Y-145090640D01*
X114937600Y-145090640D02*
X115027600Y-145134140D01*
X115027600Y-145134140D02*
X115117700Y-145177440D01*
X115117700Y-145177440D02*
X115208400Y-145220640D01*
X115208400Y-145220640D02*
X115298900Y-145263440D01*
X115298900Y-145263440D02*
X115389000Y-145305740D01*
X115389000Y-145305740D02*
X115479200Y-145347840D01*
X115479200Y-145347840D02*
X115570100Y-145389940D01*
X115570100Y-145389940D02*
X115661000Y-145431740D01*
X115661000Y-145431740D02*
X115752600Y-145473540D01*
X115752600Y-145473540D02*
X115843800Y-145514840D01*
X115843800Y-145514840D02*
X115934700Y-145555640D01*
X115934700Y-145555640D02*
X116025700Y-145596340D01*
X116025700Y-145596340D02*
X116117200Y-145636840D01*
X116117200Y-145636840D02*
X116208800Y-145677140D01*
X116208800Y-145677140D02*
X116301000Y-145717440D01*
X116301000Y-145717440D02*
X116392800Y-145757140D01*
X116392800Y-145757140D02*
X116484200Y-145796540D01*
X116484200Y-145796540D02*
X116575700Y-145835540D01*
X116575700Y-145835540D02*
X116667700Y-145874540D01*
X116667700Y-145874540D02*
X116759800Y-145913340D01*
X116759800Y-145913340D02*
X116852400Y-145951940D01*
X116852400Y-145951940D02*
X116944600Y-145990140D01*
X116944600Y-145990140D02*
X117036800Y-146028040D01*
X117036800Y-146028040D02*
X117129500Y-146065840D01*
X117129500Y-146065840D02*
X117222200Y-146103440D01*
X117222200Y-146103440D02*
X117315400Y-146140840D01*
X117315400Y-146140840D02*
X117408100Y-146177840D01*
X117408100Y-146177840D02*
X117500900Y-146214540D01*
X117500900Y-146214540D02*
X117594100Y-146251140D01*
X117594100Y-146251140D02*
X117687300Y-146287440D01*
X117687300Y-146287440D02*
X117780900Y-146323640D01*
X117780900Y-146323640D02*
X117874100Y-146359340D01*
X117874100Y-146359340D02*
X117967300Y-146394740D01*
X117967300Y-146394740D02*
X118061200Y-146430240D01*
X118061200Y-146430240D02*
X118155500Y-146465540D01*
X118155500Y-146465540D02*
X118249400Y-146500440D01*
X118249400Y-146500440D02*
X118342800Y-146534840D01*
X118342800Y-146534840D02*
X118436200Y-146568940D01*
X118436200Y-146568940D02*
X118530300Y-146603040D01*
X118530300Y-146603040D02*
X118624700Y-146637040D01*
X118624700Y-146637040D02*
X118718700Y-146670540D01*
X118718700Y-146670540D02*
X118812600Y-146703740D01*
X118812600Y-146703740D02*
X118907200Y-146736940D01*
X118907200Y-146736940D02*
X119002100Y-146769940D01*
X119002100Y-146769940D02*
X119096500Y-146802540D01*
X119096500Y-146802540D02*
X119190700Y-146834840D01*
X119190700Y-146834840D02*
X119285700Y-146867040D01*
X119285700Y-146867040D02*
X119380900Y-146899040D01*
X119380900Y-146899040D02*
X119475500Y-146930640D01*
X119475500Y-146930640D02*
X119570100Y-146961940D01*
X119570100Y-146961940D02*
X119665200Y-146993140D01*
X119665200Y-146993140D02*
X119760600Y-147024140D01*
X119760600Y-147024140D02*
X119855400Y-147054640D01*
X119855400Y-147054640D02*
X119950400Y-147085040D01*
X119950400Y-147085040D02*
X120046400Y-147115440D01*
X120046400Y-147115440D02*
X120141800Y-147145340D01*
X120141800Y-147145340D02*
X120237000Y-147174940D01*
X120237000Y-147174940D02*
X120332700Y-147204540D01*
X120332700Y-147204540D02*
X120428600Y-147233840D01*
X120428600Y-147233840D02*
X120523900Y-147262640D01*
X120523900Y-147262640D02*
X120619300Y-147291340D01*
X120619300Y-147291340D02*
X120715600Y-147319940D01*
X120715600Y-147319940D02*
X120811200Y-147348140D01*
X120811200Y-147348140D02*
X120907000Y-147376040D01*
X120907000Y-147376040D02*
X121003500Y-147403940D01*
X121003500Y-147403940D02*
X121099500Y-147431440D01*
X121099500Y-147431440D02*
X121195400Y-147458640D01*
X121195400Y-147458640D02*
X121292200Y-147485840D01*
X121292200Y-147485840D02*
X121388300Y-147512640D01*
X121388300Y-147512640D02*
X121484400Y-147539140D01*
X121484400Y-147539140D02*
X121581200Y-147565540D01*
X121581200Y-147565540D02*
X121677300Y-147591540D01*
X121677300Y-147591540D02*
X121773500Y-147617240D01*
X121773500Y-147617240D02*
X121870300Y-147642940D01*
X121870300Y-147642940D02*
X121967100Y-147668340D01*
X121967100Y-147668340D02*
X122064500Y-147693540D01*
X122064500Y-147693540D02*
X122161100Y-147718440D01*
X122161100Y-147718440D02*
X122257800Y-147743040D01*
X122257800Y-147743040D02*
X122354900Y-147767440D01*
X122354900Y-147767440D02*
X122452000Y-147791640D01*
X122452000Y-147791640D02*
X122549600Y-147815740D01*
X122549600Y-147815740D02*
X122646500Y-147839340D01*
X122646500Y-147839340D02*
X122743300Y-147862740D01*
X122743300Y-147862740D02*
X122840500Y-147885940D01*
X122840500Y-147885940D02*
X122937600Y-147908840D01*
X122937600Y-147908840D02*
X123035100Y-147931640D01*
X123035100Y-147931640D02*
X123132400Y-147954040D01*
X123132400Y-147954040D02*
X123230200Y-147976340D01*
X123230200Y-147976340D02*
X123327700Y-147998440D01*
X123327700Y-147998440D02*
X123425600Y-148020240D01*
X123425600Y-148020240D02*
X123523200Y-148041740D01*
X123523200Y-148041740D02*
X123621200Y-148063140D01*
X123621200Y-148063140D02*
X123718900Y-148084140D01*
X123718900Y-148084140D02*
X123816900Y-148105040D01*
X123816900Y-148105040D02*
X123914600Y-148125540D01*
X123914600Y-148125540D02*
X124012600Y-148145940D01*
X124012600Y-148145940D02*
X124110200Y-148165940D01*
X124110200Y-148165940D02*
X124208100Y-148185740D01*
X124208100Y-148185740D02*
X124305600Y-148205240D01*
X124305600Y-148205240D02*
X124403800Y-148224640D01*
X124403800Y-148224640D02*
X124502200Y-148243840D01*
X124502200Y-148243840D02*
X124600100Y-148262640D01*
X124600100Y-148262640D02*
X124698700Y-148281340D01*
X124698700Y-148281340D02*
X124797400Y-148299840D01*
X124797400Y-148299840D02*
X124895600Y-148317940D01*
X124895600Y-148317940D02*
X124994400Y-148335940D01*
X124994400Y-148335940D02*
X125093200Y-148353640D01*
X125093200Y-148353640D02*
X125191400Y-148371040D01*
X125191400Y-148371040D02*
X125290200Y-148388340D01*
X125290200Y-148388340D02*
X125388900Y-148405240D01*
X125388900Y-148405240D02*
X125487000Y-148421940D01*
X125487000Y-148421940D02*
X125585500Y-148438340D01*
X125585500Y-148438340D02*
X125684000Y-148454540D01*
X125684000Y-148454540D02*
X125782200Y-148470440D01*
X125782200Y-148470440D02*
X125881300Y-148486140D01*
X125881300Y-148486140D02*
X125979700Y-148501540D01*
X125979700Y-148501540D02*
X126078300Y-148516740D01*
X126078300Y-148516740D02*
X126177200Y-148531740D01*
X126177200Y-148531740D02*
X126276200Y-148546540D01*
X126276200Y-148546540D02*
X126375000Y-148560940D01*
X126375000Y-148560940D02*
X126473400Y-148575140D01*
X126473400Y-148575140D02*
X126572300Y-148589140D01*
X126572300Y-148589140D02*
X126670900Y-148602840D01*
X126670900Y-148602840D02*
X126769900Y-148616340D01*
X126769900Y-148616340D02*
X126868600Y-148629440D01*
X126868600Y-148629440D02*
X126967500Y-148642440D01*
X126967500Y-148642440D02*
X127066000Y-148655140D01*
X127066000Y-148655140D02*
X127165200Y-148667640D01*
X127165200Y-148667640D02*
X127264300Y-148679840D01*
X127264300Y-148679840D02*
X127363500Y-148691840D01*
X127363500Y-148691840D02*
X127463000Y-148703540D01*
X127463000Y-148703540D02*
X127561700Y-148714940D01*
X127561700Y-148714940D02*
X127661400Y-148726240D01*
X127661400Y-148726240D02*
X127761000Y-148737240D01*
X127761000Y-148737240D02*
X127859900Y-148747940D01*
X127859900Y-148747940D02*
X127959500Y-148758340D01*
X127959500Y-148758340D02*
X128059000Y-148768540D01*
X128059000Y-148768540D02*
X128157700Y-148778440D01*
X128157700Y-148778440D02*
X128256800Y-148788040D01*
X128256800Y-148788040D02*
X128356500Y-148797440D01*
X128356500Y-148797440D02*
X128456500Y-148806640D01*
X128456500Y-148806640D02*
X128556100Y-148815540D01*
X128556100Y-148815540D02*
X128654800Y-148824140D01*
X128654800Y-148824140D02*
X128753700Y-148832440D01*
X128753700Y-148832440D02*
X128852700Y-148840440D01*
X128852700Y-148840440D02*
X128951900Y-148848240D01*
X128951900Y-148848240D02*
X129051100Y-148855740D01*
X129051100Y-148855740D02*
X129150300Y-148862940D01*
X129150300Y-148862940D02*
X129249900Y-148869940D01*
X129249900Y-148869940D02*
X129350500Y-148876740D01*
X129350500Y-148876740D02*
X129450800Y-148883240D01*
X129450800Y-148883240D02*
X129550800Y-148889440D01*
X129550800Y-148889440D02*
X129650400Y-148895240D01*
X129650400Y-148895240D02*
X129750100Y-148901240D01*
X129750100Y-148901240D02*
X129850300Y-148906240D01*
X129850300Y-148906240D02*
X129949900Y-148911240D01*
X129949900Y-148911240D02*
X130049300Y-148916240D01*
X130049300Y-148916240D02*
X130149400Y-148920240D01*
X130149400Y-148920240D02*
X130249600Y-148925240D01*
X130249600Y-148925240D02*
X130349300Y-148928240D01*
X130349300Y-148928240D02*
X130449000Y-148932240D01*
X130449000Y-148932240D02*
X130548000Y-148935240D01*
X130548000Y-148935240D02*
X130647200Y-148938240D01*
X130647200Y-148938240D02*
X130746500Y-148941240D01*
X130746500Y-148941240D02*
X130846000Y-148943240D01*
X130846000Y-148943240D02*
X130946500Y-148945240D01*
X130946500Y-148945240D02*
X131047300Y-148947240D01*
X131047300Y-148947240D02*
X131147600Y-148949240D01*
X131147600Y-148949240D02*
X131247200Y-148950240D01*
X131247200Y-148950240D02*
X131346800Y-148951240D01*
X131346800Y-148951240D02*
X131446800Y-148951240D01*
X131446800Y-148951240D02*
X131546400Y-148951240D01*
X131546400Y-148951240D02*
X131646700Y-148951240D01*
X131646700Y-148951240D02*
X131747500Y-148951240D01*
X131747500Y-148951240D02*
X131848500Y-148950240D01*
X131848500Y-148950240D02*
X131949400Y-148949240D01*
X131949400Y-148949240D02*
X132050000Y-148947240D01*
X132050000Y-148947240D02*
X132150200Y-148945240D01*
X132150200Y-148945240D02*
X132250100Y-148943240D01*
X132250100Y-148943240D02*
X132350600Y-148940240D01*
X132350600Y-148940240D02*
X132450800Y-148937240D01*
X132450800Y-148937240D02*
X132550300Y-148934240D01*
X132550300Y-148934240D02*
X132650700Y-148930240D01*
X132650700Y-148930240D02*
X132751400Y-148926240D01*
X132751400Y-148926240D02*
X132852000Y-148922240D01*
X132852000Y-148922240D02*
X132952000Y-148917240D01*
X132952000Y-148917240D02*
X133051700Y-148911240D01*
X133051700Y-148911240D02*
X133152000Y-148906240D01*
X133152000Y-148906240D02*
X133252200Y-148899240D01*
X133252200Y-148899240D02*
X133351500Y-148893040D01*
X133351500Y-148893040D02*
X133450500Y-148886040D01*
X133450500Y-148886040D02*
X133550500Y-148878540D01*
X133550500Y-148878540D02*
X133650400Y-148870640D01*
X133650400Y-148870640D02*
X133749900Y-148862240D01*
X133749900Y-148862240D02*
X133849800Y-148853340D01*
X133849800Y-148853340D02*
X133949500Y-148843940D01*
X133949500Y-148843940D02*
X134048300Y-148834140D01*
X134048300Y-148834140D02*
X134147600Y-148823740D01*
X134147600Y-148823740D02*
X134246500Y-148812840D01*
X134246500Y-148812840D02*
X134345300Y-148801440D01*
X134345300Y-148801440D02*
X134444200Y-148789340D01*
X134444200Y-148789340D02*
X134543100Y-148776740D01*
X134543100Y-148776740D02*
X134641300Y-148763640D01*
X134641300Y-148763640D02*
X134740500Y-148749740D01*
X134740500Y-148749740D02*
X134839500Y-148735240D01*
X134839500Y-148735240D02*
X134937800Y-148720040D01*
X134937800Y-148720040D02*
X135037200Y-148704740D01*
X135037200Y-148704740D02*
X135136300Y-148689640D01*
X135136300Y-148689640D02*
X135235100Y-148674640D01*
X135235100Y-148674640D02*
X135333600Y-148659840D01*
X135333600Y-148659840D02*
X135431800Y-148645240D01*
X135431800Y-148645240D02*
X135530200Y-148630740D01*
X135530200Y-148630740D02*
X135629500Y-148616240D01*
X135629500Y-148616240D02*
X135728400Y-148601840D01*
X135728400Y-148601840D02*
X135827000Y-148587640D01*
X135827000Y-148587640D02*
X135925800Y-148573540D01*
X135925800Y-148573540D02*
X136025400Y-148559440D01*
X136025400Y-148559440D02*
X136124700Y-148545540D01*
X136124700Y-148545540D02*
X136223600Y-148531740D01*
X136223600Y-148531740D02*
X136322200Y-148518140D01*
X136322200Y-148518140D02*
X136420400Y-148504640D01*
X136420400Y-148504640D02*
X136518800Y-148491340D01*
X136518800Y-148491340D02*
X136617900Y-148478040D01*
X136617900Y-148478040D02*
X136716700Y-148464840D01*
X136716700Y-148464840D02*
X136815700Y-148451740D01*
X136815700Y-148451740D02*
X136915400Y-148438640D01*
X136915400Y-148438640D02*
X137014700Y-148425740D01*
X137014700Y-148425740D02*
X137113600Y-148413040D01*
X137113600Y-148413040D02*
X137212100Y-148400440D01*
X137212100Y-148400440D02*
X137310800Y-148387940D01*
X137310800Y-148387940D02*
X137410200Y-148375440D01*
X137410200Y-148375440D02*
X137509100Y-148363140D01*
X137509100Y-148363140D02*
X137608200Y-148350840D01*
X137608200Y-148350840D02*
X137708000Y-148338640D01*
X137708000Y-148338640D02*
X137807300Y-148326640D01*
X137807300Y-148326640D02*
X137906200Y-148314740D01*
X137906200Y-148314740D02*
X138004700Y-148303040D01*
X138004700Y-148303040D02*
X138103300Y-148291340D01*
X138103300Y-148291340D02*
X138202500Y-148279740D01*
X138202500Y-148279740D02*
X138301800Y-148268240D01*
X138301800Y-148268240D02*
X138401700Y-148256740D01*
X138401700Y-148256740D02*
X138501100Y-148245440D01*
X138501100Y-148245440D02*
X138600100Y-148234240D01*
X138600100Y-148234240D02*
X138698700Y-148223140D01*
X138698700Y-148223140D02*
X138797300Y-148212240D01*
X138797300Y-148212240D02*
X138896400Y-148201340D01*
X138896400Y-148201340D02*
X138995600Y-148190540D01*
X138995600Y-148190540D02*
X139095300Y-148179740D01*
X139095300Y-148179740D02*
X139194600Y-148169140D01*
X139194600Y-148169140D02*
X139293400Y-148158640D01*
X139293400Y-148158640D02*
X139392100Y-148148340D01*
X139392100Y-148148340D02*
X139491400Y-148137940D01*
X139491400Y-148137940D02*
X139590700Y-148127740D01*
X139590700Y-148127740D02*
X139690400Y-148117540D01*
X139690400Y-148117540D02*
X139789700Y-148107540D01*
X139789700Y-148107540D02*
X139888400Y-148097640D01*
X139888400Y-148097640D02*
X139987100Y-148087840D01*
X139987100Y-148087840D02*
X140086700Y-148078040D01*
X140086700Y-148078040D02*
X140186700Y-148068240D01*
X140186700Y-148068240D02*
X140286200Y-148058640D01*
X140286200Y-148058640D02*
X140385200Y-148049240D01*
X140385200Y-148049240D02*
X140484100Y-148039840D01*
X140484100Y-148039840D02*
X140583800Y-148030540D01*
X140583800Y-148030540D02*
X140684000Y-148021240D01*
X140684000Y-148021240D02*
X140783500Y-148012040D01*
X140783500Y-148012040D02*
X140882500Y-148003040D01*
X140882500Y-148003040D02*
X140981400Y-147994140D01*
X140981400Y-147994140D02*
X141081000Y-147985240D01*
X141081000Y-147985240D02*
X141181000Y-147976440D01*
X141181000Y-147976440D02*
X141280400Y-147967740D01*
X141280400Y-147967740D02*
X141379600Y-147959140D01*
X141379600Y-147959140D02*
X141479200Y-147950640D01*
X141479200Y-147950640D02*
X141578500Y-147942140D01*
X141578500Y-147942140D02*
X141678100Y-147933840D01*
X141678100Y-147933840D02*
X141777100Y-147925640D01*
X141777100Y-147925640D02*
X141875900Y-147917440D01*
X141875900Y-147917440D02*
X141975400Y-147909340D01*
X141975400Y-147909340D02*
X142075100Y-147901340D01*
X142075100Y-147901340D02*
X142174200Y-147893440D01*
X142174200Y-147893440D02*
X142273000Y-147885640D01*
X142273000Y-147885640D02*
X142372400Y-147877940D01*
X142372400Y-147877940D02*
X142472000Y-147870240D01*
X142472000Y-147870240D02*
X142571300Y-147862640D01*
X142571300Y-147862640D02*
X142671200Y-147855140D01*
X142671200Y-147855140D02*
X142771200Y-147847640D01*
X142771200Y-147847640D02*
X142870500Y-147840340D01*
X142870500Y-147840340D02*
X142969500Y-147833040D01*
X142969500Y-147833040D02*
X143069100Y-147825940D01*
X143069100Y-147825940D02*
X143168600Y-147818840D01*
X143168600Y-147818840D02*
X143267900Y-147811740D01*
X143267900Y-147811740D02*
X143367600Y-147804840D01*
X143367600Y-147804840D02*
X143467300Y-147797940D01*
X143467300Y-147797940D02*
X143566700Y-147791140D01*
X143566700Y-147791140D02*
X143666400Y-147784440D01*
X143666400Y-147784440D02*
X143766200Y-147777840D01*
X143766200Y-147777840D02*
X143865500Y-147771340D01*
X143865500Y-147771340D02*
X143965200Y-147764840D01*
X143965200Y-147764840D02*
X144064900Y-147758440D01*
X144064900Y-147758440D02*
X144164400Y-147752140D01*
X144164400Y-147752140D02*
X144264700Y-147745840D01*
X144264700Y-147745840D02*
X144364100Y-147739740D01*
X144364100Y-147739740D02*
X144463300Y-147733640D01*
X144463300Y-147733640D02*
X144563200Y-147727640D01*
X144563200Y-147727640D02*
X144662900Y-147721640D01*
X144662900Y-147721640D02*
X144763200Y-147715840D01*
X144763200Y-147715840D02*
X144862600Y-147710040D01*
X144862600Y-147710040D02*
X144961800Y-147704340D01*
X144961800Y-147704340D02*
X145061500Y-147698740D01*
X145061500Y-147698740D02*
X145160900Y-147693240D01*
X145160900Y-147693240D02*
X145260800Y-147687740D01*
X145260800Y-147687740D02*
X145360400Y-147682340D01*
X145360400Y-147682340D02*
X145460400Y-147676940D01*
X145460400Y-147676940D02*
X145560100Y-147671740D01*
X145560100Y-147671740D02*
X145660200Y-147666540D01*
X145660200Y-147666540D02*
X145759900Y-147661440D01*
X145759900Y-147661440D02*
X145859800Y-147656440D01*
X145859800Y-147656440D02*
X145959400Y-147651440D01*
X145959400Y-147651440D02*
X146059300Y-147646640D01*
X146059300Y-147646640D02*
X146158700Y-147641840D01*
X146158700Y-147641840D02*
X146258300Y-147637040D01*
X146258300Y-147637040D02*
X146357500Y-147632440D01*
X146357500Y-147632440D02*
X146457400Y-147627840D01*
X146457400Y-147627840D02*
X146557400Y-147623340D01*
X146557400Y-147623340D02*
X146656800Y-147618940D01*
X146656800Y-147618940D02*
X146756400Y-147614540D01*
X146756400Y-147614540D02*
X146855400Y-147610340D01*
X146855400Y-147610340D02*
X146954900Y-147606140D01*
X146954900Y-147606140D02*
X147054400Y-147601940D01*
X147054400Y-147601940D02*
X147153300Y-147597940D01*
X147153300Y-147597940D02*
X147252600Y-147593940D01*
X147252600Y-147593940D02*
X147352400Y-147590040D01*
X147352400Y-147590040D02*
X147452500Y-147586140D01*
X147452500Y-147586140D02*
X147552400Y-147582340D01*
X147552400Y-147582340D02*
X147651600Y-147578640D01*
X147651600Y-147578640D02*
X147751100Y-147575040D01*
X147751100Y-147575040D02*
X147850700Y-147571440D01*
X147850700Y-147571440D02*
X147950500Y-147567940D01*
X147950500Y-147567940D02*
X148050500Y-147564540D01*
X148050500Y-147564540D02*
X148150500Y-147561140D01*
X148150500Y-147561140D02*
X148250600Y-147557940D01*
X148250600Y-147557940D02*
X148350700Y-147554640D01*
X148350700Y-147554640D02*
X148450700Y-147551540D01*
X148450700Y-147551540D02*
X148550600Y-147548440D01*
X148550600Y-147548440D02*
X148650400Y-147545440D01*
X148650400Y-147545440D02*
X148750000Y-147542540D01*
X148750000Y-147542540D02*
X148849800Y-147539740D01*
X148849800Y-147539740D02*
X148949700Y-147536940D01*
X148949700Y-147536940D02*
X149049000Y-147534240D01*
X149049000Y-147534240D02*
X149149100Y-147531540D01*
X149149100Y-147531540D02*
X149249100Y-147528940D01*
X149249100Y-147528940D02*
X149348300Y-147526540D01*
X149348300Y-147526540D02*
X149448200Y-147524040D01*
X149448200Y-147524040D02*
X149548200Y-147521740D01*
X149548200Y-147521740D02*
X149647600Y-147519440D01*
X149647600Y-147519440D02*
X149746700Y-147517240D01*
X149746700Y-147517240D02*
X149846100Y-147515140D01*
X149846100Y-147515140D02*
X149945800Y-147513040D01*
X149945800Y-147513040D02*
X150045700Y-147511040D01*
X150045700Y-147511040D02*
X150145700Y-147509140D01*
X150145700Y-147509140D02*
X150245700Y-147507240D01*
X150245700Y-147507240D02*
X150345600Y-147505540D01*
X150345600Y-147505540D02*
X150445300Y-147503840D01*
X150445300Y-147503840D02*
X150544700Y-147502140D01*
X150544700Y-147502140D02*
X150643800Y-147500640D01*
X150643800Y-147500640D02*
X150743000Y-147499140D01*
X150743000Y-147499140D02*
X150842900Y-147497740D01*
X150842900Y-147497740D02*
X150942700Y-147496440D01*
X150942700Y-147496440D02*
X151042900Y-147495140D01*
X151042900Y-147495140D02*
X151142600Y-147493940D01*
X151142600Y-147493940D02*
X151243000Y-147492840D01*
X151243000Y-147492840D02*
X151343300Y-147491740D01*
X151343300Y-147491740D02*
X151442700Y-147490840D01*
X151442700Y-147490840D02*
X151542300Y-147489940D01*
X151542300Y-147489940D02*
X151641800Y-147489140D01*
X151641800Y-147489140D02*
X151741600Y-147488340D01*
X151741600Y-147488340D02*
X151841700Y-147487740D01*
X151841700Y-147487740D02*
X151941200Y-147487140D01*
X151941200Y-147487140D02*
X152040600Y-147486640D01*
X152040600Y-147486640D02*
X152140700Y-147486240D01*
X152140700Y-147486240D02*
X152240100Y-147485840D01*
X152240100Y-147485840D02*
X152340300Y-147485540D01*
X152340300Y-147485540D02*
X152440800Y-147485440D01*
X152440800Y-147485440D02*
X152541300Y-147485340D01*
X152541300Y-147485340D02*
X152641300Y-147485240D01*
X152641300Y-147485240D02*
X152741300Y-147485340D01*
X152741300Y-147485340D02*
X152841200Y-147485540D01*
X152841200Y-147485540D02*
X152940100Y-147485740D01*
X152940100Y-147485740D02*
X153039200Y-147486040D01*
X153039200Y-147486040D02*
X153139000Y-147486440D01*
X153139000Y-147486440D02*
X153238500Y-147486940D01*
X153238500Y-147486940D02*
X153338000Y-147487540D01*
X153338000Y-147487540D02*
X153438300Y-147488240D01*
X153438300Y-147488240D02*
X153538300Y-147489040D01*
X153538300Y-147489040D02*
X153637400Y-147489940D01*
X153637400Y-147489940D02*
X153736600Y-147490940D01*
X153736600Y-147490940D02*
X153835900Y-147492040D01*
X153835900Y-147492040D02*
X153935500Y-147493240D01*
X153935500Y-147493240D02*
X154035600Y-147494540D01*
X154035600Y-147494540D02*
X154136000Y-147495940D01*
X154136000Y-147495940D02*
X154236600Y-147497540D01*
X154236600Y-147497540D02*
X154336800Y-147499240D01*
X154336800Y-147499240D02*
X154438100Y-147501140D01*
X154438100Y-147501140D02*
X154540700Y-147503340D01*
X154540700Y-147503340D02*
X154667300Y-147506240D01*
X154667300Y-147506240D02*
X154701100Y-147507140D01*
X154701100Y-147507140D02*
X154828400Y-147497140D01*
X154828400Y-147497140D02*
X154930700Y-147488040D01*
X154930700Y-147488040D02*
X155031100Y-147478540D01*
X155031100Y-147478540D02*
X155130900Y-147468740D01*
X155130900Y-147468740D02*
X155230400Y-147458440D01*
X155230400Y-147458440D02*
X155330200Y-147447740D01*
X155330200Y-147447740D02*
X155430300Y-147436740D01*
X155430300Y-147436740D02*
X155530400Y-147425340D01*
X155530400Y-147425340D02*
X155630200Y-147413640D01*
X155630200Y-147413640D02*
X155730200Y-147401540D01*
X155730200Y-147401540D02*
X155829800Y-147389240D01*
X155829800Y-147389240D02*
X155929000Y-147376740D01*
X155929000Y-147376740D02*
X156028600Y-147363940D01*
X156028600Y-147363940D02*
X156127500Y-147350840D01*
X156127500Y-147350840D02*
X156225700Y-147337640D01*
X156225700Y-147337640D02*
X156324100Y-147324240D01*
X156324100Y-147324240D02*
X156423500Y-147310340D01*
X156423500Y-147310340D02*
X156523200Y-147296140D01*
X156523200Y-147296140D02*
X156622100Y-147281840D01*
X156622100Y-147281840D02*
X156720600Y-147267440D01*
X156720600Y-147267440D02*
X156819300Y-147252640D01*
X156819300Y-147252640D02*
X156918300Y-147237640D01*
X156918300Y-147237640D02*
X157017200Y-147222440D01*
X157017200Y-147222440D02*
X157116200Y-147206940D01*
X157116200Y-147206940D02*
X157215000Y-147191240D01*
X157215000Y-147191240D02*
X157313600Y-147175440D01*
X157313600Y-147175440D02*
X157411800Y-147159440D01*
X157411800Y-147159440D02*
X157510200Y-147143140D01*
X157510200Y-147143140D02*
X157609100Y-147126640D01*
X157609100Y-147126640D02*
X157707500Y-147109940D01*
X157707500Y-147109940D02*
X157805800Y-147093040D01*
X157805800Y-147093040D02*
X157904500Y-147075840D01*
X157904500Y-147075840D02*
X158002500Y-147058640D01*
X158002500Y-147058640D02*
X158100300Y-147041240D01*
X158100300Y-147041240D02*
X158198900Y-147023440D01*
X158198900Y-147023440D02*
X158297800Y-147005440D01*
X158297800Y-147005440D02*
X158396200Y-146987240D01*
X158396200Y-146987240D02*
X158494900Y-146968840D01*
X158494900Y-146968840D02*
X158593100Y-146950340D01*
X158593100Y-146950340D02*
X158691400Y-146931640D01*
X158691400Y-146931640D02*
X158789200Y-146912840D01*
X158789200Y-146912840D02*
X158887700Y-146893640D01*
X158887700Y-146893640D02*
X158986100Y-146874340D01*
X158986100Y-146874340D02*
X159083900Y-146854840D01*
X159083900Y-146854840D02*
X159182300Y-146835140D01*
X159182300Y-146835140D02*
X159280700Y-146815240D01*
X159280700Y-146815240D02*
X159378300Y-146795240D01*
X159378300Y-146795240D02*
X159476400Y-146774940D01*
X159476400Y-146774940D02*
X159574400Y-146754540D01*
X159574400Y-146754540D02*
X159671600Y-146734040D01*
X159671600Y-146734040D02*
X159769300Y-146713340D01*
X159769300Y-146713340D02*
X159867400Y-146692240D01*
X159867400Y-146692240D02*
X159965200Y-146671040D01*
X159965200Y-146671040D02*
X160062300Y-146649940D01*
X160062300Y-146649940D02*
X160159600Y-146628440D01*
X160159600Y-146628440D02*
X160257400Y-146606740D01*
X160257400Y-146606740D02*
X160355500Y-146584740D01*
X160355500Y-146584740D02*
X160453400Y-146562540D01*
X160453400Y-146562540D02*
X160550200Y-146540440D01*
X160550200Y-146540440D02*
X160647400Y-146518140D01*
X160647400Y-146518140D02*
X160744900Y-146495540D01*
X160744900Y-146495540D02*
X160842700Y-146472640D01*
X160842700Y-146472640D02*
X160940100Y-146449640D01*
X160940100Y-146449640D02*
X161036500Y-146426740D01*
X161036500Y-146426740D02*
X161133200Y-146403540D01*
X161133200Y-146403540D02*
X161230000Y-146380140D01*
X161230000Y-146380140D02*
X161327200Y-146356440D01*
X161327200Y-146356440D02*
X161424500Y-146332540D01*
X161424500Y-146332540D02*
X161522100Y-146308440D01*
X161522100Y-146308440D02*
X161619300Y-146284240D01*
X161619300Y-146284240D02*
X161715300Y-146260040D01*
X161715300Y-146260040D02*
X161811500Y-146235740D01*
X161811500Y-146235740D02*
X161907900Y-146211140D01*
X161907900Y-146211140D02*
X162004500Y-146186240D01*
X162004500Y-146186240D02*
X162101200Y-146161240D01*
X162101200Y-146161240D02*
X162198100Y-146135940D01*
X162198100Y-146135940D02*
X162295200Y-146110440D01*
X162295200Y-146110440D02*
X162392400Y-146084640D01*
X162392400Y-146084640D02*
X162489800Y-146058740D01*
X162489800Y-146058740D02*
X162586600Y-146032640D01*
X162586600Y-146032640D02*
X162682200Y-146006840D01*
X162682200Y-146006840D02*
X162777900Y-145980740D01*
X162777900Y-145980740D02*
X162873700Y-145954440D01*
X162873700Y-145954440D02*
X162969700Y-145927940D01*
X162969700Y-145927940D02*
X163065700Y-145901140D01*
X163065700Y-145901140D02*
X163161800Y-145874240D01*
X163161800Y-145874240D02*
X163258100Y-145847040D01*
X163258100Y-145847040D02*
X163354400Y-145819740D01*
X163354400Y-145819740D02*
X163450800Y-145792140D01*
X163450800Y-145792140D02*
X163547200Y-145764340D01*
X163547200Y-145764340D02*
X163643800Y-145736340D01*
X163643800Y-145736340D02*
X163740300Y-145708140D01*
X163740300Y-145708140D02*
X163837000Y-145679740D01*
X163837000Y-145679740D02*
X163933400Y-145651240D01*
X163933400Y-145651240D02*
X164029100Y-145622740D01*
X164029100Y-145622740D02*
X164124500Y-145594040D01*
X164124500Y-145594040D02*
X164219300Y-145565440D01*
X164219300Y-145565440D02*
X164314100Y-145536640D01*
X164314100Y-145536640D02*
X164408900Y-145507640D01*
X164408900Y-145507640D02*
X164503800Y-145478540D01*
X164503800Y-145478540D02*
X164598600Y-145449140D01*
X164598600Y-145449140D02*
X164693500Y-145419540D01*
X164693500Y-145419540D02*
X164788400Y-145389840D01*
X164788400Y-145389840D02*
X164883300Y-145359840D01*
X164883300Y-145359840D02*
X164978200Y-145329740D01*
X164978200Y-145329740D02*
X165073100Y-145299340D01*
X165073100Y-145299340D02*
X165168000Y-145268840D01*
X165168000Y-145268840D02*
X165262900Y-145238140D01*
X165262900Y-145238140D02*
X165357700Y-145207240D01*
X165357700Y-145207240D02*
X165452600Y-145176240D01*
X165452600Y-145176240D02*
X165547400Y-145144940D01*
X165547400Y-145144940D02*
X165642200Y-145113540D01*
X165642200Y-145113540D02*
X165737000Y-145081940D01*
X165737000Y-145081940D02*
X165831700Y-145050140D01*
X165831700Y-145050140D02*
X165926400Y-145018140D01*
X165926400Y-145018140D02*
X166021000Y-144985940D01*
X166021000Y-144985940D02*
X166115600Y-144953640D01*
X166115600Y-144953640D02*
X166210200Y-144921140D01*
X166210200Y-144921140D02*
X166304700Y-144888440D01*
X166304700Y-144888440D02*
X166399200Y-144855540D01*
X166399200Y-144855540D02*
X166493600Y-144822540D01*
X166493600Y-144822540D02*
X166587900Y-144789340D01*
X166587900Y-144789340D02*
X166682200Y-144755940D01*
X166682200Y-144755940D02*
X166776400Y-144722440D01*
X166776400Y-144722440D02*
X166870500Y-144688640D01*
X166870500Y-144688640D02*
X166964600Y-144654740D01*
X166964600Y-144654740D02*
X167058500Y-144620740D01*
X167058500Y-144620740D02*
X167152400Y-144586440D01*
X167152400Y-144586440D02*
X167246200Y-144552140D01*
X167246200Y-144552140D02*
X167340000Y-144517540D01*
X167340000Y-144517540D02*
X167433600Y-144482840D01*
X167433600Y-144482840D02*
X167527200Y-144447940D01*
X167527200Y-144447940D02*
X167620600Y-144412840D01*
X167620600Y-144412840D02*
X167714000Y-144377640D01*
X167714000Y-144377640D02*
X167807200Y-144342240D01*
X167807200Y-144342240D02*
X167900400Y-144306740D01*
X167900400Y-144306740D02*
X167993400Y-144271040D01*
X167993400Y-144271040D02*
X168086400Y-144235240D01*
X168086400Y-144235240D02*
X168179200Y-144199140D01*
X168179200Y-144199140D02*
X168271900Y-144163040D01*
X168271900Y-144163040D02*
X168364500Y-144126740D01*
X168364500Y-144126740D02*
X168457000Y-144090240D01*
X168457000Y-144090240D02*
X168549400Y-144053640D01*
X168549400Y-144053640D02*
X168641600Y-144016840D01*
X168641600Y-144016840D02*
X168733700Y-143979940D01*
X168733700Y-143979940D02*
X168825700Y-143942840D01*
X168825700Y-143942840D02*
X168917600Y-143905640D01*
X168917600Y-143905640D02*
X169009300Y-143868240D01*
X169009300Y-143868240D02*
X169101200Y-143830540D01*
X169101200Y-143830540D02*
X169193700Y-143792440D01*
X169193700Y-143792440D02*
X169286300Y-143754140D01*
X169286300Y-143754140D02*
X169379400Y-143715340D01*
X169379400Y-143715340D02*
X169472500Y-143676440D01*
X169472500Y-143676440D02*
X169565300Y-143637340D01*
X169565300Y-143637340D02*
X169658000Y-143598040D01*
X169658000Y-143598040D02*
X169750600Y-143558740D01*
X169750600Y-143558740D02*
X169843000Y-143519140D01*
X169843000Y-143519140D02*
X169935200Y-143479540D01*
X169935200Y-143479540D02*
X170027300Y-143439740D01*
X170027300Y-143439740D02*
X170119200Y-143399740D01*
X170119200Y-143399740D02*
X170210900Y-143359640D01*
X170210900Y-143359640D02*
X170302500Y-143319440D01*
X170302500Y-143319440D02*
X170393900Y-143279040D01*
X170393900Y-143279040D02*
X170485200Y-143238540D01*
X170485200Y-143238540D02*
X170576300Y-143197940D01*
X170576300Y-143197940D02*
X170667200Y-143157140D01*
X170667200Y-143157140D02*
X170757900Y-143116240D01*
X170757900Y-143116240D02*
X170848400Y-143075240D01*
X170848400Y-143075240D02*
X170938800Y-143034040D01*
X170938800Y-143034040D02*
X171029000Y-142992740D01*
X171029000Y-142992740D02*
X171119000Y-142951240D01*
X171119000Y-142951240D02*
X171209100Y-142909540D01*
X171209100Y-142909540D02*
X171300100Y-142867240D01*
X171300100Y-142867240D02*
X171391400Y-142824540D01*
X171391400Y-142824540D02*
X171482600Y-142781740D01*
X171482600Y-142781740D02*
X171573500Y-142738740D01*
X171573500Y-142738740D02*
X171664300Y-142695640D01*
X171664300Y-142695640D02*
X171754900Y-142652440D01*
X171754900Y-142652440D02*
X171845200Y-142609040D01*
X171845200Y-142609040D02*
X171935400Y-142565640D01*
X171935400Y-142565640D02*
X172025400Y-142522040D01*
X172025400Y-142522040D02*
X172115100Y-142478240D01*
X172115100Y-142478240D02*
X172204700Y-142434440D01*
X172204700Y-142434440D02*
X172294000Y-142390440D01*
X172294000Y-142390440D02*
X172383100Y-142346340D01*
X172383100Y-142346340D02*
X172472000Y-142302140D01*
X172472000Y-142302140D02*
X172560800Y-142257840D01*
X172560800Y-142257840D02*
X172649300Y-142213340D01*
X172649300Y-142213340D02*
X172738200Y-142168540D01*
X172738200Y-142168540D02*
X172828100Y-142122940D01*
X172828100Y-142122940D02*
X172917700Y-142077240D01*
X172917700Y-142077240D02*
X173007200Y-142031340D01*
X173007200Y-142031340D02*
X173096400Y-141985440D01*
X173096400Y-141985440D02*
X173185400Y-141939340D01*
X173185400Y-141939340D02*
X173274200Y-141893140D01*
X173274200Y-141893140D02*
X173362700Y-141846840D01*
X173362700Y-141846840D02*
X173451000Y-141800440D01*
X173451000Y-141800440D02*
X173539100Y-141753940D01*
X173539100Y-141753940D02*
X173626900Y-141707340D01*
X173626900Y-141707340D02*
X173714500Y-141660640D01*
X173714500Y-141660640D02*
X173801900Y-141613840D01*
X173801900Y-141613840D02*
X173889700Y-141566540D01*
X173889700Y-141566540D02*
X173978300Y-141518540D01*
X173978300Y-141518540D02*
X174066800Y-141470440D01*
X174066800Y-141470440D02*
X174154900Y-141422240D01*
X174154900Y-141422240D02*
X174242900Y-141373940D01*
X174242900Y-141373940D02*
X174330500Y-141325440D01*
X174330500Y-141325440D02*
X174418000Y-141276940D01*
X174418000Y-141276940D02*
X174505200Y-141228340D01*
X174505200Y-141228340D02*
X174592100Y-141179640D01*
X174592100Y-141179640D02*
X174678800Y-141130740D01*
X174678800Y-141130740D02*
X174765200Y-141081840D01*
X174765200Y-141081840D02*
X174851400Y-141032840D01*
X174851400Y-141032840D02*
X174937800Y-140983440D01*
X174937800Y-140983440D02*
X175025200Y-140933240D01*
X175025200Y-140933240D02*
X175112300Y-140882940D01*
X175112300Y-140882940D02*
X175199200Y-140832540D01*
X175199200Y-140832540D02*
X175285700Y-140782140D01*
X175285700Y-140782140D02*
X175372000Y-140731540D01*
X175372000Y-140731540D02*
X175458100Y-140680840D01*
X175458100Y-140680840D02*
X175543900Y-140630140D01*
X175543900Y-140630140D02*
X175629400Y-140579340D01*
X175629400Y-140579340D02*
X175714600Y-140528340D01*
X175714600Y-140528340D02*
X175800100Y-140477040D01*
X175800100Y-140477040D02*
X175886500Y-140424940D01*
X175886500Y-140424940D02*
X175972500Y-140372740D01*
X175972500Y-140372740D02*
X176058300Y-140320440D01*
X176058300Y-140320440D02*
X176143800Y-140268140D01*
X176143800Y-140268140D02*
X176229100Y-140215740D01*
X176229100Y-140215740D02*
X176314000Y-140163140D01*
X176314000Y-140163140D02*
X176398700Y-140110540D01*
X176398700Y-140110540D02*
X176483000Y-140057940D01*
X176483000Y-140057940D02*
X176567100Y-140005140D01*
X176567100Y-140005140D02*
X176651000Y-139952340D01*
X176651000Y-139952340D02*
X176735000Y-139899040D01*
X176735000Y-139899040D02*
X176819900Y-139845040D01*
X176819900Y-139845040D02*
X176904400Y-139790940D01*
X176904400Y-139790940D02*
X176988700Y-139736840D01*
X176988700Y-139736840D02*
X177072600Y-139682640D01*
X177072600Y-139682640D02*
X177156300Y-139628340D01*
X177156300Y-139628340D02*
X177239600Y-139573940D01*
X177239600Y-139573940D02*
X177322700Y-139519540D01*
X177322700Y-139519540D02*
X177406000Y-139464640D01*
X177406000Y-139464640D02*
X177490000Y-139409040D01*
X177490000Y-139409040D02*
X177573800Y-139353340D01*
X177573800Y-139353340D02*
X177657200Y-139297640D01*
X177657200Y-139297640D02*
X177740300Y-139241840D01*
X177740300Y-139241840D02*
X177823100Y-139185940D01*
X177823100Y-139185940D02*
X177905600Y-139130040D01*
X177905600Y-139130040D02*
X177987800Y-139074040D01*
X177987800Y-139074040D02*
X178069700Y-139017940D01*
X178069700Y-139017940D02*
X178151700Y-138961540D01*
X178151700Y-138961540D02*
X178234500Y-138904240D01*
X178234500Y-138904240D02*
X178317000Y-138847040D01*
X178317000Y-138847040D02*
X178399100Y-138789640D01*
X178399100Y-138789640D02*
X178480900Y-138732240D01*
X178480900Y-138732240D02*
X178562400Y-138674840D01*
X178562400Y-138674840D02*
X178643600Y-138617340D01*
X178643600Y-138617340D02*
X178725000Y-138559440D01*
X178725000Y-138559440D02*
X178807000Y-138500840D01*
X178807000Y-138500840D02*
X178888700Y-138442140D01*
X178888700Y-138442140D02*
X178970000Y-138383340D01*
X178970000Y-138383340D02*
X179051000Y-138324540D01*
X179051000Y-138324540D02*
X179131700Y-138265740D01*
X179131700Y-138265740D02*
X179212100Y-138206840D01*
X179212100Y-138206840D02*
X179292200Y-138147940D01*
X179292200Y-138147940D02*
X179371900Y-138088940D01*
X179371900Y-138088940D02*
X179451700Y-138029540D01*
X179451700Y-138029540D02*
X179532200Y-137969440D01*
X179532200Y-137969440D02*
X179612400Y-137909240D01*
X179612400Y-137909240D02*
X179692200Y-137849040D01*
X179692200Y-137849040D02*
X179771600Y-137788840D01*
X179771600Y-137788840D02*
X179850800Y-137728540D01*
X179850800Y-137728540D02*
X179930000Y-137667940D01*
X179930000Y-137667940D02*
X180009900Y-137606540D01*
X180009900Y-137606540D02*
X180089300Y-137545140D01*
X180089300Y-137545140D02*
X180168500Y-137483640D01*
X180168500Y-137483640D02*
X180247300Y-137422140D01*
X180247300Y-137422140D02*
X180325700Y-137360640D01*
X180325700Y-137360640D02*
X180403900Y-137299040D01*
X180403900Y-137299040D02*
X180481600Y-137237440D01*
X180481600Y-137237440D02*
X180559500Y-137175540D01*
X180559500Y-137175540D02*
X180637900Y-137112840D01*
X180637900Y-137112840D02*
X180716000Y-137050140D01*
X180716000Y-137050140D02*
X180793700Y-136987340D01*
X180793700Y-136987340D02*
X180871000Y-136924640D01*
X180871000Y-136924640D02*
X180948500Y-136861440D01*
X180948500Y-136861440D02*
X181026400Y-136797640D01*
X181026400Y-136797640D02*
X181104000Y-136733740D01*
X181104000Y-136733740D02*
X181181300Y-136669840D01*
X181181300Y-136669840D02*
X181258100Y-136605940D01*
X181258100Y-136605940D02*
X181334600Y-136542040D01*
X181334600Y-136542040D02*
X181410800Y-136478040D01*
X181410800Y-136478040D02*
X181486600Y-136414140D01*
X181486600Y-136414140D02*
X181562500Y-136349840D01*
X181562500Y-136349840D02*
X181638800Y-136284840D01*
X181638800Y-136284840D02*
X181714800Y-136219740D01*
X181714800Y-136219740D02*
X181790400Y-136154740D01*
X181790400Y-136154740D02*
X181866000Y-136089340D01*
X181866000Y-136089340D02*
X181942100Y-136023240D01*
X181942100Y-136023240D02*
X182017900Y-135957140D01*
X182017900Y-135957140D02*
X182093200Y-135890940D01*
X182093200Y-135890940D02*
X182168200Y-135824840D01*
X182168200Y-135824840D02*
X182242800Y-135758740D01*
X182242800Y-135758740D02*
X182317100Y-135692640D01*
X182317100Y-135692640D02*
X182390900Y-135626540D01*
X182390900Y-135626540D02*
X182464800Y-135560140D01*
X182464800Y-135560140D02*
X182539100Y-135492940D01*
X182539100Y-135492940D02*
X182613100Y-135425840D01*
X182613100Y-135425840D02*
X182686600Y-135358740D01*
X182686600Y-135358740D02*
X182760200Y-135291240D01*
X182760200Y-135291240D02*
X182834200Y-135223140D01*
X182834200Y-135223140D02*
X182907800Y-135154940D01*
X182907800Y-135154940D02*
X182981000Y-135086840D01*
X182981000Y-135086840D02*
X183053800Y-135018740D01*
X183053800Y-135018740D02*
X183126200Y-134950640D01*
X183126200Y-134950640D02*
X183198600Y-134882240D01*
X183198600Y-134882240D02*
X183271400Y-134813140D01*
X183271400Y-134813140D02*
X183343800Y-134744040D01*
X183343800Y-134744040D02*
X183415900Y-134675040D01*
X183415900Y-134675040D02*
X183487900Y-134605640D01*
X183487900Y-134605640D02*
X183560200Y-134535540D01*
X183560200Y-134535540D02*
X183632100Y-134465540D01*
X183632100Y-134465540D02*
X183703700Y-134395540D01*
X183703700Y-134395540D02*
X183774800Y-134325640D01*
X183774800Y-134325640D02*
X183845600Y-134255740D01*
X183845600Y-134255740D02*
X183916000Y-134185840D01*
X183916000Y-134185840D02*
X183986300Y-134115640D01*
X183986300Y-134115640D02*
X184057000Y-134044840D01*
X184057000Y-134044840D02*
X184127200Y-133974040D01*
X184127200Y-133974040D02*
X184197500Y-133902840D01*
X184197500Y-133902840D02*
X184268000Y-133831140D01*
X184268000Y-133831140D02*
X184338100Y-133759440D01*
X184338100Y-133759440D02*
X184407800Y-133687740D01*
X184407800Y-133687740D02*
X184477100Y-133616140D01*
X184477100Y-133616140D02*
X184546000Y-133544540D01*
X184546000Y-133544540D02*
X184614800Y-133472640D01*
X184614800Y-133472640D02*
X184683900Y-133400140D01*
X184683900Y-133400140D02*
X184752600Y-133327740D01*
X184752600Y-133327740D02*
X184821200Y-133255040D01*
X184821200Y-133255040D02*
X184890100Y-133181640D01*
X184890100Y-133181640D02*
X184958600Y-133108340D01*
X184958600Y-133108340D02*
X185026600Y-133035040D01*
X185026600Y-133035040D02*
X185094300Y-132961940D01*
X185094300Y-132961940D02*
X185161500Y-132888840D01*
X185161500Y-132888840D02*
X185228700Y-132815440D01*
X185228700Y-132815440D02*
X185296100Y-132741440D01*
X185296100Y-132741440D02*
X185363400Y-132667140D01*
X185363400Y-132667140D02*
X185430900Y-132592340D01*
X185430900Y-132592340D02*
X185497900Y-132517440D01*
X185497900Y-132517440D02*
X185564600Y-132442740D01*
X185564600Y-132442740D02*
X185630800Y-132368140D01*
X185630800Y-132368140D02*
X185696700Y-132293540D01*
X185696700Y-132293540D02*
X185762400Y-132218740D01*
X185762400Y-132218740D02*
X185828300Y-132143340D01*
X185828300Y-132143340D02*
X185893800Y-132068040D01*
X185893800Y-132068040D02*
X185959200Y-131992440D01*
X185959200Y-131992440D02*
X186024700Y-131916340D01*
X186024700Y-131916340D02*
X186089800Y-131840240D01*
X186089800Y-131840240D02*
X186154500Y-131764240D01*
X186154500Y-131764240D02*
X186218800Y-131688440D01*
X186218800Y-131688440D02*
X186282900Y-131612340D01*
X186282900Y-131612340D02*
X186347200Y-131535640D01*
X186347200Y-131535640D02*
X186411400Y-131458740D01*
X186411400Y-131458740D02*
X186475700Y-131381240D01*
X186475700Y-131381240D02*
X186539600Y-131303940D01*
X186539600Y-131303940D02*
X186603000Y-131226640D01*
X186603000Y-131226640D02*
X186666000Y-131149540D01*
X186666000Y-131149540D02*
X186728600Y-131072540D01*
X186728600Y-131072540D02*
X186791100Y-130995240D01*
X186791100Y-130995240D02*
X186853900Y-130917140D01*
X186853900Y-130917140D02*
X186916800Y-130838440D01*
X186916800Y-130838440D02*
X186979300Y-130759940D01*
X186979300Y-130759940D02*
X187041400Y-130681540D01*
X187041400Y-130681540D02*
X187103000Y-130603240D01*
X187103000Y-130603240D02*
X187164200Y-130525140D01*
X187164200Y-130525140D02*
X187225300Y-130446740D01*
X187225300Y-130446740D02*
X187286700Y-130367540D01*
X187286700Y-130367540D02*
X187348100Y-130287840D01*
X187348100Y-130287840D02*
X187409200Y-130208240D01*
X187409200Y-130208240D02*
X187469800Y-130128840D01*
X187469800Y-130128840D02*
X187529900Y-130049540D01*
X187529900Y-130049540D02*
X187589900Y-129970040D01*
X187589900Y-129970040D02*
X187649900Y-129890140D01*
X187649900Y-129890140D02*
X187709700Y-129809940D01*
X187709700Y-129809940D02*
X187769600Y-129729340D01*
X187769600Y-129729340D02*
X187829100Y-129648840D01*
X187829100Y-129648840D02*
X187888100Y-129568540D01*
X187888100Y-129568540D02*
X187946700Y-129488440D01*
X187946700Y-129488440D02*
X188005000Y-129408040D01*
X188005000Y-129408040D02*
X188063700Y-129326940D01*
X188063700Y-129326940D02*
X188122300Y-129245340D01*
X188122300Y-129245340D02*
X188180500Y-129163940D01*
X188180500Y-129163940D02*
X188238300Y-129082740D01*
X188238300Y-129082740D02*
X188295700Y-129001640D01*
X188295700Y-129001640D02*
X188352800Y-128920540D01*
X188352800Y-128920540D02*
X188410100Y-128838540D01*
X188410100Y-128838540D02*
X188467500Y-128756140D01*
X188467500Y-128756140D02*
X188524400Y-128673940D01*
X188524400Y-128673940D02*
X188580900Y-128591840D01*
X188580900Y-128591840D02*
X188637100Y-128509740D01*
X188637100Y-128509740D02*
X188693500Y-128426840D01*
X188693500Y-128426840D02*
X188749900Y-128343440D01*
X188749900Y-128343440D02*
X188805900Y-128260340D01*
X188805900Y-128260340D02*
X188861400Y-128177440D01*
X188861400Y-128177440D02*
X188916500Y-128094740D01*
X188916500Y-128094740D02*
X188971500Y-128011640D01*
X188971500Y-128011640D02*
X189026900Y-127927540D01*
X189026900Y-127927540D02*
X189081900Y-127843540D01*
X189081900Y-127843540D02*
X189136400Y-127759840D01*
X189136400Y-127759840D02*
X189190400Y-127676440D01*
X189190400Y-127676440D02*
X189244400Y-127592540D01*
X189244400Y-127592540D02*
X189298700Y-127507740D01*
X189298700Y-127507740D02*
X189352600Y-127423040D01*
X189352600Y-127423040D02*
X189406000Y-127338740D01*
X189406000Y-127338740D02*
X189459000Y-127254540D01*
X189459000Y-127254540D02*
X189511900Y-127170040D01*
X189511900Y-127170040D02*
X189565000Y-127084640D01*
X189565000Y-127084640D02*
X189617800Y-126999340D01*
X189617800Y-126999340D02*
X189670100Y-126914440D01*
X189670100Y-126914440D02*
X189721900Y-126829740D01*
X189721900Y-126829740D02*
X189773600Y-126744640D01*
X189773600Y-126744640D02*
X189825600Y-126658740D01*
X189825600Y-126658740D02*
X189877200Y-126572940D01*
X189877200Y-126572940D02*
X189928200Y-126487540D01*
X189928200Y-126487540D02*
X189979200Y-126401740D01*
X189979200Y-126401740D02*
X190030400Y-126315140D01*
X190030400Y-126315140D02*
X190081200Y-126228740D01*
X190081200Y-126228740D02*
X190131500Y-126142640D01*
X190131500Y-126142640D02*
X190181500Y-126056540D01*
X190181500Y-126056540D02*
X190231500Y-125969840D01*
X190231500Y-125969840D02*
X190281500Y-125882940D01*
X190281500Y-125882940D02*
X190330900Y-125796240D01*
X190330900Y-125796240D02*
X190379900Y-125709940D01*
X190379900Y-125709940D02*
X190428800Y-125623240D01*
X190428800Y-125623240D02*
X190477800Y-125535740D01*
X190477800Y-125535740D02*
X190526400Y-125448640D01*
X190526400Y-125448640D02*
X190574800Y-125361240D01*
X190574800Y-125361240D02*
X190623400Y-125273040D01*
X190623400Y-125273040D02*
X190671500Y-125185140D01*
X190671500Y-125185140D02*
X190719200Y-125097540D01*
X190719200Y-125097540D02*
X190766700Y-125009740D01*
X190766700Y-125009740D02*
X190814300Y-124921140D01*
X190814300Y-124921140D02*
X190861500Y-124832940D01*
X190861500Y-124832940D02*
X190908200Y-124745040D01*
X190908200Y-124745040D02*
X190954700Y-124656940D01*
X190954700Y-124656940D02*
X191001300Y-124568140D01*
X191001300Y-124568140D02*
X191047500Y-124479640D01*
X191047500Y-124479640D02*
X191093500Y-124391040D01*
X191093500Y-124391040D02*
X191139500Y-124301640D01*
X191139500Y-124301640D02*
X191185100Y-124212640D01*
X191185100Y-124212640D02*
X191230500Y-124123440D01*
X191230500Y-124123440D02*
X191276000Y-124033640D01*
X191276000Y-124033640D02*
X191321000Y-123944140D01*
X191321000Y-123944140D02*
X191365500Y-123855040D01*
X191365500Y-123855040D02*
X191409800Y-123765840D01*
X191409800Y-123765840D02*
X191454200Y-123675940D01*
X191454200Y-123675940D02*
X191498100Y-123586440D01*
X191498100Y-123586440D02*
X191541700Y-123496840D01*
X191541700Y-123496840D02*
X191585400Y-123406640D01*
X191585400Y-123406640D02*
X191628700Y-123316740D01*
X191628700Y-123316740D02*
X191671700Y-123226840D01*
X191671700Y-123226840D02*
X191714700Y-123136340D01*
X191714700Y-123136340D02*
X191757300Y-123046240D01*
X191757300Y-123046240D02*
X191799600Y-122956140D01*
X191799600Y-122956140D02*
X191841900Y-122865340D01*
X191841900Y-122865340D02*
X191883700Y-122775040D01*
X191883700Y-122775040D02*
X191925300Y-122684740D01*
X191925300Y-122684740D02*
X191966900Y-122593840D01*
X191966900Y-122593840D02*
X192008200Y-122502940D01*
X192008200Y-122502940D02*
X192049500Y-122411440D01*
X192049500Y-122411440D02*
X192090400Y-122320540D01*
X192090400Y-122320540D02*
X192130900Y-122229540D01*
X192130900Y-122229540D02*
X192171400Y-122138040D01*
X192171400Y-122138040D02*
X192211700Y-122046540D01*
X192211700Y-122046540D02*
X192251900Y-121954640D01*
X192251900Y-121954640D02*
X192291600Y-121863140D01*
X192291600Y-121863140D02*
X192331000Y-121771740D01*
X192331000Y-121771740D02*
X192370400Y-121679940D01*
X192370400Y-121679940D02*
X192409500Y-121588040D01*
X192409500Y-121588040D02*
X192448500Y-121495840D01*
X192448500Y-121495840D02*
X192487000Y-121404140D01*
X192487000Y-121404140D02*
X192525200Y-121312540D01*
X192525200Y-121312540D02*
X192563500Y-121220040D01*
X192563500Y-121220040D02*
X192601700Y-121127240D01*
X192601700Y-121127240D02*
X192639500Y-121034940D01*
X192639500Y-121034940D02*
X192676900Y-120942740D01*
X192676900Y-120942740D02*
X192714400Y-120849840D01*
X192714400Y-120849840D02*
X192751800Y-120756540D01*
X192751800Y-120756540D02*
X192788600Y-120663840D01*
X192788600Y-120663840D02*
X192825200Y-120571340D01*
X192825200Y-120571340D02*
X192861800Y-120478040D01*
X192861800Y-120478040D02*
X192898200Y-120384540D01*
X192898200Y-120384540D02*
X192934200Y-120291540D01*
X192934200Y-120291540D02*
X192969800Y-120198840D01*
X192969800Y-120198840D02*
X193005500Y-120105440D01*
X193005500Y-120105440D02*
X193040900Y-120011840D01*
X193040900Y-120011840D02*
X193076100Y-119918440D01*
X193076100Y-119918440D02*
X193111200Y-119824440D01*
X193111200Y-119824440D02*
X193146100Y-119730240D01*
X193146100Y-119730240D02*
X193180600Y-119636640D01*
X193180600Y-119636640D02*
X193214700Y-119543440D01*
X193214700Y-119543440D02*
X193248700Y-119449640D01*
X193248700Y-119449640D02*
X193282600Y-119355640D01*
X193282600Y-119355640D02*
X193316100Y-119262040D01*
X193316100Y-119262040D02*
X193349500Y-119167840D01*
X193349500Y-119167840D02*
X193382800Y-119073640D01*
X193382800Y-119073640D02*
X193415600Y-118979740D01*
X193415600Y-118979740D02*
X193448400Y-118885440D01*
X193448400Y-118885440D02*
X193481000Y-118791040D01*
X193481000Y-118791040D02*
X193513300Y-118696640D01*
X193513300Y-118696640D02*
X193545600Y-118601440D01*
X193545600Y-118601440D02*
X193577500Y-118507040D01*
X193577500Y-118507040D02*
X193609100Y-118412740D01*
X193609100Y-118412740D02*
X193640600Y-118317640D01*
X193640600Y-118317640D02*
X193671900Y-118223040D01*
X193671900Y-118223040D02*
X193702900Y-118128040D01*
X193702900Y-118128040D02*
X193733700Y-118033240D01*
X193733700Y-118033240D02*
X193764200Y-117938540D01*
X193764200Y-117938540D02*
X193794700Y-117843240D01*
X193794700Y-117843240D02*
X193824900Y-117748040D01*
X193824900Y-117748040D02*
X193855100Y-117652340D01*
X193855100Y-117652340D02*
X193884900Y-117556840D01*
X193884900Y-117556840D02*
X193914700Y-117460840D01*
X193914700Y-117460840D02*
X193944100Y-117365040D01*
X193944100Y-117365040D02*
X193973500Y-117268840D01*
X193973500Y-117268840D02*
X194002500Y-117172940D01*
X194002500Y-117172940D02*
X194031400Y-117076640D01*
X194031400Y-117076640D02*
X194060000Y-116980640D01*
X194060000Y-116980640D02*
X194088500Y-116884240D01*
X194088500Y-116884240D02*
X194116600Y-116788240D01*
X194116600Y-116788240D02*
X194144600Y-116692040D01*
X194144600Y-116692040D02*
X194172200Y-116596140D01*
X194172200Y-116596140D02*
X194199700Y-116500040D01*
X194199700Y-116500040D02*
X194226800Y-116404340D01*
X194226800Y-116404340D02*
X194254000Y-116307840D01*
X194254000Y-116307840D02*
X194280900Y-116211240D01*
X194280900Y-116211240D02*
X194307500Y-116115040D01*
X194307500Y-116115040D02*
X194334000Y-116018340D01*
X194334000Y-116018340D02*
X194360300Y-115921440D01*
X194360300Y-115921440D02*
X194386300Y-115825240D01*
X194386300Y-115825240D02*
X194412200Y-115728340D01*
X194412200Y-115728340D02*
X194437800Y-115631640D01*
X194437800Y-115631640D02*
X194463100Y-115535440D01*
X194463100Y-115535440D02*
X194488200Y-115438840D01*
X194488200Y-115438840D02*
X194513300Y-115341840D01*
X194513300Y-115341840D02*
X194538200Y-115244540D01*
X194538200Y-115244540D02*
X194562800Y-115147340D01*
X194562800Y-115147340D02*
X194587000Y-115051040D01*
X194587000Y-115051040D02*
X194611100Y-114954440D01*
X194611100Y-114954440D02*
X194635000Y-114857640D01*
X194635000Y-114857640D02*
X194658700Y-114760640D01*
X194658700Y-114760640D02*
X194682200Y-114663640D01*
X194682200Y-114663640D02*
X194705600Y-114566540D01*
X194705600Y-114566540D02*
X194728700Y-114469340D01*
X194728700Y-114469340D02*
X194751600Y-114372240D01*
X194751600Y-114372240D02*
X194774300Y-114275240D01*
X194774300Y-114275240D02*
X194796700Y-114178340D01*
X194796700Y-114178340D02*
X194819000Y-114081240D01*
X194819000Y-114081240D02*
X194841200Y-113983340D01*
X194841200Y-113983340D02*
X194863100Y-113885840D01*
X194863100Y-113885840D02*
X194884900Y-113788240D01*
X194884900Y-113788240D02*
X194906500Y-113690140D01*
X194906500Y-113690140D02*
X194927900Y-113592540D01*
X194927900Y-113592540D02*
X194948900Y-113495040D01*
X194948900Y-113495040D02*
X194970000Y-113396940D01*
X194970000Y-113396940D02*
X194990800Y-113298640D01*
X194990800Y-113298640D02*
X195011300Y-113201040D01*
X195011300Y-113201040D02*
X195031500Y-113103840D01*
X195031500Y-113103840D02*
X195051600Y-113006240D01*
X195051600Y-113006240D02*
X195071500Y-112908440D01*
X195071500Y-112908440D02*
X195091300Y-112810540D01*
X195091300Y-112810540D02*
X195110800Y-112712640D01*
X195110800Y-112712640D02*
X195130200Y-112614740D01*
X195130200Y-112614740D02*
X195149300Y-112517040D01*
X195149300Y-112517040D02*
X195168100Y-112419540D01*
X195168100Y-112419540D02*
X195186800Y-112321740D01*
X195186800Y-112321740D02*
X195205500Y-112223140D01*
X195205500Y-112223140D02*
X195223800Y-112125140D01*
X195223800Y-112125140D02*
X195242000Y-112027240D01*
X195242000Y-112027240D02*
X195260000Y-111928940D01*
X195260000Y-111928940D02*
X195277700Y-111831040D01*
X195277700Y-111831040D02*
X195295400Y-111732440D01*
X195295400Y-111732440D02*
X195312900Y-111633540D01*
X195312900Y-111633540D02*
X195330300Y-111534340D01*
X195330300Y-111534340D02*
X195347500Y-111435140D01*
X195347500Y-111435140D02*
X195364400Y-111336040D01*
X195364400Y-111336040D02*
X195381100Y-111237440D01*
X195381100Y-111237440D02*
X195397500Y-111139240D01*
X195397500Y-111139240D02*
X195413700Y-111040940D01*
X195413700Y-111040940D02*
X195429900Y-110941940D01*
X195429900Y-110941940D02*
X195445800Y-110843240D01*
X195445800Y-110843240D02*
X195461600Y-110744440D01*
X195461600Y-110744440D02*
X195477000Y-110646540D01*
X195477000Y-110646540D02*
X195492200Y-110548440D01*
X195492200Y-110548440D02*
X195507300Y-110450340D01*
X195507300Y-110450340D02*
X195522200Y-110352140D01*
X195522200Y-110352140D02*
X195537000Y-110252940D01*
X195537000Y-110252940D02*
X195551700Y-110153340D01*
X195551700Y-110153340D02*
X195566200Y-110053940D01*
X195566200Y-110053940D02*
X195580500Y-109954840D01*
X195580500Y-109954840D02*
X195594600Y-109855640D01*
X195594600Y-109855640D02*
X195608500Y-109756740D01*
X195608500Y-109756740D02*
X195622200Y-109657440D01*
X195622200Y-109657440D02*
X195635700Y-109558040D01*
X195635700Y-109558040D02*
X195649000Y-109459140D01*
X195649000Y-109459140D02*
X195662200Y-109359740D01*
X195662200Y-109359740D02*
X195675200Y-109260340D01*
X195675200Y-109260340D02*
X195687900Y-109161940D01*
X195687900Y-109161940D02*
X195700500Y-109063040D01*
X195700500Y-109063040D02*
X195712900Y-108963440D01*
X195712900Y-108963440D02*
X195725100Y-108864540D01*
X195725100Y-108864540D02*
X195737100Y-108766140D01*
X195737100Y-108766140D02*
X195749000Y-108666940D01*
X195749000Y-108666940D02*
X195760700Y-108567540D01*
X195760700Y-108567540D02*
X195772200Y-108468640D01*
X195772200Y-108468640D02*
X195783500Y-108369740D01*
X195783500Y-108369740D02*
X195794600Y-108270440D01*
X195794600Y-108270440D02*
X195805600Y-108170240D01*
X195805600Y-108170240D02*
X195816400Y-108070340D01*
X195816400Y-108070340D02*
X195826900Y-107970540D01*
X195826900Y-107970540D02*
X195837300Y-107871040D01*
X195837300Y-107871040D02*
X195847300Y-107771740D01*
X195847300Y-107771740D02*
X195857200Y-107672640D01*
X195857200Y-107672640D02*
X195866700Y-107573740D01*
X195866700Y-107573740D02*
X195876200Y-107474540D01*
X195876200Y-107474540D02*
X195885400Y-107374440D01*
X195885400Y-107374440D02*
X195894500Y-107274640D01*
X195894500Y-107274640D02*
X195903300Y-107174940D01*
X195903300Y-107174940D02*
X195911800Y-107075540D01*
X195911800Y-107075540D02*
X195920200Y-106976340D01*
X195920200Y-106976340D02*
X195928300Y-106876840D01*
X195928300Y-106876840D02*
X195936300Y-106776440D01*
X195936300Y-106776440D02*
X195944000Y-106676340D01*
X195944000Y-106676340D02*
X195951500Y-106576340D01*
X195951500Y-106576340D02*
X195958700Y-106476640D01*
X195958700Y-106476640D02*
X195965800Y-106377240D01*
X195965800Y-106377240D02*
X195972500Y-106277940D01*
X195972500Y-106277940D02*
X195979100Y-106178940D01*
X195979100Y-106178940D02*
X195985400Y-106079640D01*
X195985400Y-106079640D02*
X195991600Y-105979440D01*
X195991600Y-105979440D02*
X195997500Y-105879440D01*
X195997500Y-105879440D02*
X196003200Y-105779740D01*
X196003200Y-105779740D02*
X196008600Y-105680240D01*
X196008600Y-105680240D02*
X196013900Y-105580540D01*
X196013900Y-105580540D02*
X196018900Y-105479940D01*
X196018900Y-105479940D02*
X196023700Y-105379540D01*
X196023700Y-105379540D02*
X196028300Y-105279440D01*
X196028300Y-105279440D02*
X196032600Y-105179540D01*
X196032600Y-105179540D02*
X196036700Y-105079840D01*
X196036700Y-105079840D02*
X196040500Y-104980440D01*
X196040500Y-104980440D02*
X196044100Y-104881240D01*
X196044100Y-104881240D02*
X196047500Y-104781740D01*
X196047500Y-104781740D02*
X196050700Y-104681440D01*
X196050700Y-104681440D02*
X196053600Y-104581340D01*
X196053600Y-104581340D02*
X196056300Y-104481540D01*
X196056300Y-104481540D02*
X196058800Y-104381440D01*
X196058800Y-104381440D02*
X196061000Y-104280640D01*
X196061000Y-104280640D02*
X196063000Y-104179940D01*
X196063000Y-104179940D02*
X196064800Y-104079640D01*
X196064800Y-104079640D02*
X196066300Y-103979440D01*
X196066300Y-103979440D02*
X196067600Y-103879540D01*
X196067600Y-103879540D02*
X196068600Y-103779840D01*
X196068600Y-103779840D02*
X196069400Y-103680440D01*
X196069400Y-103680440D02*
X196070000Y-103581240D01*
X196070000Y-103581240D02*
X196070300Y-103481840D01*
X196070300Y-103481840D02*
X196070400Y-103381540D01*
X196070400Y-103381540D02*
X196070300Y-103281640D01*
X196070300Y-103281640D02*
X196069900Y-103181940D01*
X196069900Y-103181940D02*
X196069200Y-103081940D01*
X196069200Y-103081940D02*
X196068300Y-102981240D01*
X196068300Y-102981240D02*
X196067200Y-102880740D01*
X196067200Y-102880740D02*
X196065800Y-102780540D01*
X196065800Y-102780540D02*
X196064200Y-102680540D01*
X196064200Y-102680540D02*
X196062400Y-102580740D01*
X196062400Y-102580740D02*
X196060300Y-102481340D01*
X196060300Y-102481340D02*
X196057900Y-102382040D01*
X196057900Y-102382040D02*
X196055400Y-102282540D01*
X196055400Y-102282540D02*
X196052500Y-102182340D01*
X196052500Y-102182340D02*
X196049400Y-102082440D01*
X196049400Y-102082440D02*
X196046100Y-101982740D01*
X196046100Y-101982740D02*
X196042500Y-101882740D01*
X196042500Y-101882740D02*
X196038700Y-101782140D01*
X196038700Y-101782140D02*
X196034600Y-101681740D01*
X196034600Y-101681740D02*
X196030200Y-101581640D01*
X196030200Y-101581640D02*
X196025600Y-101481740D01*
X196025600Y-101481740D02*
X196020800Y-101382140D01*
X196020800Y-101382140D02*
X196015700Y-101282740D01*
X196015700Y-101282740D02*
X196010400Y-101183640D01*
X196010400Y-101183640D02*
X196004900Y-101084240D01*
X196004900Y-101084240D02*
X195999000Y-100984240D01*
X195999000Y-100984240D02*
X195992900Y-100884440D01*
X195992900Y-100884440D02*
X195986600Y-100784540D01*
X195986600Y-100784540D02*
X195979900Y-100683840D01*
X195979900Y-100683840D02*
X195973000Y-100583440D01*
X195973000Y-100583440D02*
X195965800Y-100483340D01*
X195965800Y-100483340D02*
X195958400Y-100383440D01*
X195958400Y-100383440D02*
X195950800Y-100283840D01*
X195950800Y-100283840D02*
X195942900Y-100184540D01*
X195942900Y-100184540D02*
X195934800Y-100085440D01*
X195934800Y-100085440D02*
X195926500Y-99986540D01*
X195926500Y-99986540D02*
X195917900Y-99887540D01*
X195917900Y-99887540D02*
X195909000Y-99787840D01*
X195909000Y-99787840D02*
X195899800Y-99688440D01*
X195899800Y-99688440D02*
X195890300Y-99588840D01*
X195890300Y-99588840D02*
X195880600Y-99488540D01*
X195880600Y-99488540D02*
X195870600Y-99388540D01*
X195870600Y-99388540D02*
X195860300Y-99288840D01*
X195860300Y-99288840D02*
X195849800Y-99189440D01*
X195849800Y-99189440D02*
X195839100Y-99090240D01*
X195839100Y-99090240D02*
X195828200Y-98991340D01*
X195828200Y-98991340D02*
X195817000Y-98892640D01*
X195817000Y-98892640D02*
X195805500Y-98793840D01*
X195805500Y-98793840D02*
X195793700Y-98694340D01*
X195793700Y-98694340D02*
X195781600Y-98595140D01*
X195781600Y-98595140D02*
X195769300Y-98495840D01*
X195769300Y-98495840D02*
X195756600Y-98395840D01*
X195756600Y-98395840D02*
X195743700Y-98296140D01*
X195743700Y-98296140D02*
X195730500Y-98196740D01*
X195730500Y-98196740D02*
X195717100Y-98097640D01*
X195717100Y-98097640D02*
X195703500Y-97998740D01*
X195703500Y-97998740D02*
X195689700Y-97900140D01*
X195689700Y-97900140D02*
X195675600Y-97801840D01*
X195675600Y-97801840D02*
X195661200Y-97703340D01*
X195661200Y-97703340D02*
X195646500Y-97604240D01*
X195646500Y-97604240D02*
X195631500Y-97505440D01*
X195631500Y-97505440D02*
X195616200Y-97406540D01*
X195616200Y-97406540D02*
X195600600Y-97307040D01*
X195600600Y-97307040D02*
X195584700Y-97207740D01*
X195584700Y-97207740D02*
X195568600Y-97108740D01*
X195568600Y-97108740D02*
X195552300Y-97010140D01*
X195552300Y-97010140D02*
X195535700Y-96911640D01*
X195535700Y-96911640D02*
X195519000Y-96813540D01*
X195519000Y-96813540D02*
X195501900Y-96715640D01*
X195501900Y-96715640D02*
X195484600Y-96617640D01*
X195484600Y-96617640D02*
X195466900Y-96519140D01*
X195466900Y-96519140D02*
X195449000Y-96420840D01*
X195449000Y-96420840D02*
X195430800Y-96322440D01*
X195430800Y-96322440D02*
X195412200Y-96223540D01*
X195412200Y-96223540D02*
X195393300Y-96124840D01*
X195393300Y-96124840D02*
X195374300Y-96026440D01*
X195374300Y-96026440D02*
X195355000Y-95928340D01*
X195355000Y-95928340D02*
X195335500Y-95830540D01*
X195335500Y-95830540D02*
X195315700Y-95733040D01*
X195315700Y-95733040D02*
X195295800Y-95635740D01*
X195295800Y-95635740D02*
X195275500Y-95538340D01*
X195275500Y-95538340D02*
X195254900Y-95440440D01*
X195254900Y-95440440D02*
X195233900Y-95342440D01*
X195233900Y-95342440D02*
X195212500Y-95243940D01*
X195212500Y-95243940D02*
X195190900Y-95145640D01*
X195190900Y-95145640D02*
X195169100Y-95047740D01*
X195169100Y-95047740D02*
X195147100Y-94950040D01*
X195147100Y-94950040D02*
X195124800Y-94852640D01*
X195124800Y-94852640D02*
X195102300Y-94755640D01*
X195102300Y-94755640D02*
X195079600Y-94658840D01*
X195079600Y-94658840D02*
X195056700Y-94562240D01*
X195056700Y-94562240D02*
X195033500Y-94465640D01*
X195033500Y-94465640D02*
X195009800Y-94368540D01*
X195009800Y-94368540D02*
X194985900Y-94271340D01*
X194985900Y-94271340D02*
X194961500Y-94173640D01*
X194961500Y-94173640D02*
X194937000Y-94076240D01*
X194937000Y-94076240D02*
X194912200Y-93979140D01*
X194912200Y-93979140D02*
X194887200Y-93882340D01*
X194887200Y-93882340D02*
X194861900Y-93785740D01*
X194861900Y-93785740D02*
X194836500Y-93689540D01*
X194836500Y-93689540D02*
X194810800Y-93593640D01*
X194810800Y-93593640D02*
X194784900Y-93497540D01*
X194784900Y-93497540D02*
X194758500Y-93401040D01*
X194758500Y-93401040D02*
X194731800Y-93304440D01*
X194731800Y-93304440D02*
X194704600Y-93207440D01*
X194704600Y-93207440D02*
X194677300Y-93110740D01*
X194677300Y-93110740D02*
X194649700Y-93014240D01*
X194649700Y-93014240D02*
X194622000Y-92918140D01*
X194622000Y-92918140D02*
X194594000Y-92822240D01*
X194594000Y-92822240D02*
X194565800Y-92726740D01*
X194565800Y-92726740D02*
X194537400Y-92631440D01*
X194537400Y-92631440D02*
X194508800Y-92536540D01*
X194508800Y-92536540D02*
X194479900Y-92441440D01*
X194479900Y-92441440D02*
X194450500Y-92345640D01*
X194450500Y-92345640D02*
X194420600Y-92249340D01*
X194420600Y-92249340D02*
X194390500Y-92153440D01*
X194390500Y-92153440D02*
X194360200Y-92057740D01*
X194360200Y-92057740D02*
X194329700Y-91962440D01*
X194329700Y-91962440D02*
X194299000Y-91867340D01*
X194299000Y-91867340D02*
X194268100Y-91772540D01*
X194268100Y-91772540D02*
X194237000Y-91678140D01*
X194237000Y-91678140D02*
X194205700Y-91583940D01*
X194205700Y-91583940D02*
X194174000Y-91489740D01*
X194174000Y-91489740D02*
X194141900Y-91394740D01*
X194141900Y-91394740D02*
X194109200Y-91299340D01*
X194109200Y-91299340D02*
X194076400Y-91204340D01*
X194076400Y-91204340D02*
X194043400Y-91109540D01*
X194043400Y-91109540D02*
X194010200Y-91015040D01*
X194010200Y-91015040D02*
X193976700Y-90920940D01*
X193976700Y-90920940D02*
X193943100Y-90827040D01*
X193943100Y-90827040D02*
X193909300Y-90733540D01*
X193909300Y-90733540D02*
X193875300Y-90640240D01*
X193875300Y-90640240D02*
X193841000Y-90546940D01*
X193841000Y-90546940D02*
X193806100Y-90452940D01*
X193806100Y-90452940D02*
X193770800Y-90358540D01*
X193770800Y-90358540D02*
X193735300Y-90264440D01*
X193735300Y-90264440D02*
X193699500Y-90170640D01*
X193699500Y-90170640D02*
X193663600Y-90077140D01*
X193663600Y-90077140D02*
X193627500Y-89984040D01*
X193627500Y-89984040D02*
X193591200Y-89891140D01*
X193591200Y-89891140D02*
X193554800Y-89798640D01*
X193554800Y-89798640D02*
X193518100Y-89706340D01*
X193518100Y-89706340D02*
X193481100Y-89614040D01*
X193481100Y-89614040D02*
X193443600Y-89521140D01*
X193443600Y-89521140D02*
X193405600Y-89427740D01*
X193405600Y-89427740D02*
X193367400Y-89334740D01*
X193367400Y-89334740D02*
X193329000Y-89242040D01*
X193329000Y-89242040D02*
X193290500Y-89149740D01*
X193290500Y-89149740D02*
X193251700Y-89057640D01*
X193251700Y-89057640D02*
X193212800Y-88965840D01*
X193212800Y-88965840D02*
X193173700Y-88874440D01*
X193173700Y-88874440D02*
X193134400Y-88783240D01*
X193134400Y-88783240D02*
X193094900Y-88692140D01*
X193094900Y-88692140D02*
X193054700Y-88600240D01*
X193054700Y-88600240D02*
X193014000Y-88508140D01*
X193014000Y-88508140D02*
X192973200Y-88416340D01*
X192973200Y-88416340D02*
X192932300Y-88324740D01*
X192932300Y-88324740D02*
X192891100Y-88233540D01*
X192891100Y-88233540D02*
X192849800Y-88142740D01*
X192849800Y-88142740D02*
X192808300Y-88052140D01*
X192808300Y-88052140D02*
X192766600Y-87961840D01*
X192766600Y-87961840D02*
X192724800Y-87871940D01*
X192724800Y-87871940D02*
X192682500Y-87781640D01*
X192682500Y-87781640D02*
X192639500Y-87690440D01*
X192639500Y-87690440D02*
X192596300Y-87599540D01*
X192596300Y-87599540D02*
X192552900Y-87508940D01*
X192552900Y-87508940D02*
X192509400Y-87418740D01*
X192509400Y-87418740D02*
X192465700Y-87328740D01*
X192465700Y-87328740D02*
X192421800Y-87239140D01*
X192421800Y-87239140D02*
X192377800Y-87149840D01*
X192377800Y-87149840D02*
X192333600Y-87060840D01*
X192333600Y-87060840D02*
X192289300Y-86972140D01*
X192289300Y-86972140D02*
X192244500Y-86883240D01*
X192244500Y-86883240D02*
X192198900Y-86793340D01*
X192198900Y-86793340D02*
X192153200Y-86703840D01*
X192153200Y-86703840D02*
X192107400Y-86614640D01*
X192107400Y-86614640D02*
X192061400Y-86525740D01*
X192061400Y-86525740D02*
X192015200Y-86437140D01*
X192015200Y-86437140D02*
X191968900Y-86348840D01*
X191968900Y-86348840D02*
X191922400Y-86260840D01*
X191922400Y-86260840D02*
X191875800Y-86173240D01*
X191875800Y-86173240D02*
X191828700Y-86085340D01*
X191828700Y-86085340D02*
X191780900Y-85996540D01*
X191780900Y-85996540D02*
X191732900Y-85908140D01*
X191732900Y-85908140D02*
X191684700Y-85820040D01*
X191684700Y-85820040D02*
X191636400Y-85732240D01*
X191636400Y-85732240D02*
X191588000Y-85644740D01*
X191588000Y-85644740D02*
X191539400Y-85557640D01*
X191539400Y-85557640D02*
X191490700Y-85470740D01*
X191490700Y-85470740D02*
X191441900Y-85384240D01*
X191441900Y-85384240D02*
X191392600Y-85297440D01*
X191392600Y-85297440D02*
X191342500Y-85209840D01*
X191342500Y-85209840D02*
X191292300Y-85122640D01*
X191292300Y-85122640D02*
X191241900Y-85035640D01*
X191241900Y-85035640D02*
X191191400Y-84949040D01*
X191191400Y-84949040D02*
X191140800Y-84862740D01*
X191140800Y-84862740D02*
X191090000Y-84776840D01*
X191090000Y-84776840D02*
X191039100Y-84691140D01*
X191039100Y-84691140D02*
X190988100Y-84605840D01*
X190988100Y-84605840D02*
X190937000Y-84520740D01*
X190937000Y-84520740D02*
X190885400Y-84435540D01*
X190885400Y-84435540D02*
X190833000Y-84349540D01*
X190833000Y-84349540D02*
X190780500Y-84263840D01*
X190780500Y-84263840D02*
X190727900Y-84178440D01*
X190727900Y-84178440D02*
X190675100Y-84093340D01*
X190675100Y-84093340D02*
X190622200Y-84008640D01*
X190622200Y-84008640D02*
X190569200Y-83924240D01*
X190569200Y-83924240D02*
X190516100Y-83840140D01*
X190516100Y-83840140D02*
X190462900Y-83756340D01*
X190462900Y-83756340D02*
X190409200Y-83672340D01*
X190409200Y-83672340D02*
X190354700Y-83587640D01*
X190354700Y-83587640D02*
X190300100Y-83503240D01*
X190300100Y-83503240D02*
X190245400Y-83419240D01*
X190245400Y-83419240D02*
X190190600Y-83335440D01*
X190190600Y-83335440D02*
X190135700Y-83252040D01*
X190135700Y-83252040D02*
X190080700Y-83168940D01*
X190080700Y-83168940D02*
X190025500Y-83086140D01*
X190025500Y-83086140D02*
X189970300Y-83003740D01*
X189970300Y-83003740D02*
X189914600Y-82921040D01*
X189914600Y-82921040D02*
X189858100Y-82837640D01*
X189858100Y-82837640D02*
X189801500Y-82754640D01*
X189801500Y-82754640D02*
X189744800Y-82671940D01*
X189744800Y-82671940D02*
X189688000Y-82589540D01*
X189688000Y-82589540D02*
X189631100Y-82507540D01*
X189631100Y-82507540D02*
X189574100Y-82425740D01*
X189574100Y-82425740D02*
X189517000Y-82344340D01*
X189517000Y-82344340D02*
X189459500Y-82262740D01*
X189459500Y-82262740D02*
X189401200Y-82180540D01*
X189401200Y-82180540D02*
X189342800Y-82098540D01*
X189342800Y-82098540D02*
X189284300Y-82016940D01*
X189284300Y-82016940D02*
X189225700Y-81935740D01*
X189225700Y-81935740D02*
X189167000Y-81854740D01*
X189167000Y-81854740D02*
X189108200Y-81774140D01*
X189108200Y-81774140D02*
X189049300Y-81693740D01*
X189049300Y-81693740D02*
X188990400Y-81613740D01*
X188990400Y-81613740D02*
X188931300Y-81534140D01*
X188931300Y-81534140D02*
X188871800Y-81454240D01*
X188871800Y-81454240D02*
X188811600Y-81373840D01*
X188811600Y-81373840D02*
X188751200Y-81293640D01*
X188751200Y-81293640D02*
X188690800Y-81213840D01*
X188690800Y-81213840D02*
X188630300Y-81134340D01*
X188630300Y-81134340D02*
X188569700Y-81055140D01*
X188569700Y-81055140D02*
X188509100Y-80976340D01*
X188509100Y-80976340D02*
X188448000Y-80897340D01*
X188448000Y-80897340D02*
X188386100Y-80817740D01*
X188386100Y-80817740D02*
X188324200Y-80738540D01*
X188324200Y-80738540D02*
X188262200Y-80659540D01*
X188262200Y-80659540D02*
X188200100Y-80580940D01*
X188200100Y-80580940D02*
X188137900Y-80502640D01*
X188137900Y-80502640D02*
X188075700Y-80424640D01*
X188075700Y-80424640D02*
X188013400Y-80347040D01*
X188013400Y-80347040D02*
X187951100Y-80269740D01*
X187951100Y-80269740D02*
X187888700Y-80192640D01*
X187888700Y-80192640D02*
X187825800Y-80115540D01*
X187825800Y-80115540D02*
X187762200Y-80037840D01*
X187762200Y-80037840D02*
X187698600Y-79960440D01*
X187698600Y-79960440D02*
X187634800Y-79883440D01*
X187634800Y-79883440D02*
X187571000Y-79806640D01*
X187571000Y-79806640D02*
X187507200Y-79730240D01*
X187507200Y-79730240D02*
X187442900Y-79653740D01*
X187442900Y-79653740D02*
X187377900Y-79576640D01*
X187377900Y-79576640D02*
X187312800Y-79499940D01*
X187312800Y-79499940D02*
X187247700Y-79423540D01*
X187247700Y-79423540D02*
X187182500Y-79347440D01*
X187182500Y-79347440D02*
X187117300Y-79271640D01*
X187117300Y-79271640D02*
X187052000Y-79196240D01*
X187052000Y-79196240D02*
X186986700Y-79121140D01*
X186986700Y-79121140D02*
X186921300Y-79046240D01*
X186921300Y-79046240D02*
X186855900Y-78971840D01*
X186855900Y-78971840D02*
X186790100Y-78897240D01*
X186790100Y-78897240D02*
X186723500Y-78822140D01*
X186723500Y-78822140D02*
X186656900Y-78747340D01*
X186656900Y-78747340D02*
X186590300Y-78672940D01*
X186590300Y-78672940D02*
X186523600Y-78598740D01*
X186523600Y-78598740D02*
X186456500Y-78524540D01*
X186456500Y-78524540D02*
X186388600Y-78449840D01*
X186388600Y-78449840D02*
X186320800Y-78375440D01*
X186320800Y-78375440D02*
X186252900Y-78301440D01*
X186252900Y-78301440D02*
X186184900Y-78227740D01*
X186184900Y-78227740D02*
X186117000Y-78154340D01*
X186117000Y-78154340D02*
X186049000Y-78081240D01*
X186049000Y-78081240D02*
X185980900Y-78008440D01*
X185980900Y-78008440D02*
X185912900Y-77936040D01*
X185912900Y-77936040D02*
X185844800Y-77863940D01*
X185844800Y-77863940D02*
X185776400Y-77791740D01*
X185776400Y-77791740D02*
X185707200Y-77719040D01*
X185707200Y-77719040D02*
X185638000Y-77646740D01*
X185638000Y-77646740D02*
X185568800Y-77574740D01*
X185568800Y-77574740D02*
X185499500Y-77503040D01*
X185499500Y-77503040D02*
X185429900Y-77431240D01*
X185429900Y-77431240D02*
X185359500Y-77359140D01*
X185359500Y-77359140D02*
X185289200Y-77287240D01*
X185289200Y-77287240D02*
X185218800Y-77215740D01*
X185218800Y-77215740D02*
X185148400Y-77144540D01*
X185148400Y-77144540D02*
X185078000Y-77073640D01*
X185078000Y-77073640D02*
X185007600Y-77003040D01*
X185007600Y-77003040D02*
X184937200Y-76932740D01*
X184937200Y-76932740D02*
X184866700Y-76862840D01*
X184866700Y-76862840D02*
X184796000Y-76792840D01*
X184796000Y-76792840D02*
X184724500Y-76722440D01*
X184724500Y-76722440D02*
X184652900Y-76652340D01*
X184652900Y-76652340D02*
X184581400Y-76582640D01*
X184581400Y-76582640D02*
X184509900Y-76513140D01*
X184509900Y-76513140D02*
X184438100Y-76443740D01*
X184438100Y-76443740D02*
X184365500Y-76373840D01*
X184365500Y-76373840D02*
X184292900Y-76304340D01*
X184292900Y-76304340D02*
X184220400Y-76235140D01*
X184220400Y-76235140D02*
X184147800Y-76166240D01*
X184147800Y-76166240D02*
X184075300Y-76097640D01*
X184075300Y-76097640D02*
X184002700Y-76029340D01*
X184002700Y-76029340D02*
X183930200Y-75961440D01*
X183930200Y-75961440D02*
X183857400Y-75893440D01*
X183857400Y-75893440D02*
X183783800Y-75825140D01*
X183783800Y-75825140D02*
X183710300Y-75757140D01*
X183710300Y-75757140D02*
X183636800Y-75689440D01*
X183636800Y-75689440D02*
X183563300Y-75622040D01*
X183563300Y-75622040D02*
X183489400Y-75554640D01*
X183489400Y-75554640D02*
X183414900Y-75486940D01*
X183414900Y-75486940D02*
X183340400Y-75419540D01*
X183340400Y-75419540D02*
X183265900Y-75352440D01*
X183265900Y-75352440D02*
X183191400Y-75285640D01*
X183191400Y-75285640D02*
X183117000Y-75219240D01*
X183117000Y-75219240D02*
X183042600Y-75153040D01*
X183042600Y-75153040D02*
X182968300Y-75087240D01*
X182968300Y-75087240D02*
X182893600Y-75021440D01*
X182893600Y-75021440D02*
X182818200Y-74955240D01*
X182818200Y-74955240D02*
X182742900Y-74889440D01*
X182742900Y-74889440D02*
X182667600Y-74823840D01*
X182667600Y-74823840D02*
X182592000Y-74758340D01*
X182592000Y-74758340D02*
X182515700Y-74692540D01*
X182515700Y-74692540D02*
X182439500Y-74627040D01*
X182439500Y-74627040D02*
X182363300Y-74561840D01*
X182363300Y-74561840D02*
X182287200Y-74496940D01*
X182287200Y-74496940D02*
X182211100Y-74432440D01*
X182211100Y-74432440D02*
X182135000Y-74368240D01*
X182135000Y-74368240D02*
X182059000Y-74304240D01*
X182059000Y-74304240D02*
X181982700Y-74240340D01*
X181982700Y-74240340D02*
X181905800Y-74176140D01*
X181905800Y-74176140D02*
X181828900Y-74112340D01*
X181828900Y-74112340D02*
X181751700Y-74048440D01*
X181751700Y-74048440D02*
X181673800Y-73984340D01*
X181673800Y-73984340D02*
X181596000Y-73920540D01*
X181596000Y-73920540D02*
X181518300Y-73857040D01*
X181518300Y-73857040D02*
X181440600Y-73793840D01*
X181440600Y-73793840D02*
X181363000Y-73730940D01*
X181363000Y-73730940D02*
X181285500Y-73668440D01*
X181285500Y-73668440D02*
X181208100Y-73606240D01*
X181208100Y-73606240D02*
X181130300Y-73544040D01*
X181130300Y-73544040D02*
X181051900Y-73481540D01*
X181051900Y-73481540D02*
X180973600Y-73419440D01*
X180973600Y-73419440D02*
X180895000Y-73357340D01*
X180895000Y-73357340D02*
X180815800Y-73295040D01*
X180815800Y-73295040D02*
X180736700Y-73232940D01*
X180736700Y-73232940D02*
X180657600Y-73171240D01*
X180657600Y-73171240D02*
X180578600Y-73109840D01*
X180578600Y-73109840D02*
X180499700Y-73048840D01*
X180499700Y-73048840D02*
X180420900Y-72988040D01*
X180420900Y-72988040D02*
X180342200Y-72927640D01*
X180342200Y-72927640D02*
X180263200Y-72867240D01*
X180263200Y-72867240D02*
X180183600Y-72806640D01*
X180183600Y-72806640D02*
X180103800Y-72746040D01*
X180103800Y-72746040D02*
X180023300Y-72685240D01*
X180023300Y-72685240D02*
X179942900Y-72624740D01*
X179942900Y-72624740D02*
X179862600Y-72564640D01*
X179862600Y-72564640D02*
X179782500Y-72504740D01*
X179782500Y-72504740D02*
X179702400Y-72445240D01*
X179702400Y-72445240D02*
X179622400Y-72386040D01*
X179622400Y-72386040D02*
X179542500Y-72327240D01*
X179542500Y-72327240D02*
X179462400Y-72268340D01*
X179462400Y-72268340D02*
X179381700Y-72209340D01*
X179381700Y-72209340D02*
X179300800Y-72150340D01*
X179300800Y-72150340D02*
X179219200Y-72091240D01*
X179219200Y-72091240D02*
X179137800Y-72032340D01*
X179137800Y-72032340D02*
X179056500Y-71973840D01*
X179056500Y-71973840D02*
X178975300Y-71915640D01*
X178975300Y-71915640D02*
X178894300Y-71857740D01*
X178894300Y-71857740D02*
X178813300Y-71800240D01*
X178813300Y-71800240D02*
X178732100Y-71742740D01*
X178732100Y-71742740D02*
X178650400Y-71685040D01*
X178650400Y-71685040D02*
X178568400Y-71627440D01*
X178568400Y-71627440D02*
X178485900Y-71569740D01*
X178485900Y-71569740D02*
X178403500Y-71512240D01*
X178403500Y-71512240D02*
X178321200Y-71455140D01*
X178321200Y-71455140D02*
X178239100Y-71398340D01*
X178239100Y-71398340D02*
X178157100Y-71341840D01*
X178157100Y-71341840D02*
X178075200Y-71285640D01*
X178075200Y-71285640D02*
X177993100Y-71229540D01*
X177993100Y-71229540D02*
X177910200Y-71173140D01*
X177910200Y-71173140D02*
X177826700Y-71116440D01*
X177826700Y-71116440D02*
X177743300Y-71060140D01*
X177743300Y-71060140D02*
X177660100Y-71004240D01*
X177660100Y-71004240D02*
X177577100Y-70948540D01*
X177577100Y-70948540D02*
X177494200Y-70893240D01*
X177494200Y-70893240D02*
X177411400Y-70838240D01*
X177411400Y-70838240D02*
X177328400Y-70783240D01*
X177328400Y-70783240D02*
X177245000Y-70728240D01*
X177245000Y-70728240D02*
X177161300Y-70673240D01*
X177161300Y-70673240D02*
X177077100Y-70618140D01*
X177077100Y-70618140D02*
X176993100Y-70563440D01*
X176993100Y-70563440D02*
X176909300Y-70508940D01*
X176909300Y-70508940D02*
X176825600Y-70454840D01*
X176825600Y-70454840D02*
X176742100Y-70401040D01*
X176742100Y-70401040D02*
X176658400Y-70347340D01*
X176658400Y-70347340D02*
X176573900Y-70293240D01*
X176573900Y-70293240D02*
X176488900Y-70239140D01*
X176488900Y-70239140D02*
X176404000Y-70185340D01*
X176404000Y-70185340D02*
X176319400Y-70131840D01*
X176319400Y-70131840D02*
X176234900Y-70078740D01*
X176234900Y-70078740D02*
X176150600Y-70025840D01*
X176150600Y-70025840D02*
X176066100Y-69973140D01*
X176066100Y-69973140D02*
X175980900Y-69920040D01*
X175980900Y-69920040D02*
X175895200Y-69866940D01*
X175895200Y-69866940D02*
X175809600Y-69814140D01*
X175809600Y-69814140D02*
X175724300Y-69761740D01*
X175724300Y-69761740D02*
X175639100Y-69709540D01*
X175639100Y-69709540D02*
X175554100Y-69657740D01*
X175554100Y-69657740D02*
X175469400Y-69606240D01*
X175469400Y-69606240D02*
X175384100Y-69554640D01*
X175384100Y-69554640D02*
X175297800Y-69502640D01*
X175297800Y-69502640D02*
X175211700Y-69450840D01*
X175211700Y-69450840D02*
X175125800Y-69399540D01*
X175125800Y-69399540D02*
X175040100Y-69348440D01*
X175040100Y-69348440D02*
X174954600Y-69297640D01*
X174954600Y-69297640D02*
X174869000Y-69247040D01*
X174869000Y-69247040D02*
X174782600Y-69196140D01*
X174782600Y-69196140D02*
X174695800Y-69145240D01*
X174695800Y-69145240D02*
X174609200Y-69094640D01*
X174609200Y-69094640D02*
X174522900Y-69044340D01*
X174522900Y-69044340D02*
X174436800Y-68994440D01*
X174436800Y-68994440D02*
X174350800Y-68944840D01*
X174350800Y-68944840D02*
X174264500Y-68895140D01*
X174264500Y-68895140D02*
X174177200Y-68845040D01*
X174177200Y-68845040D02*
X174090000Y-68795340D01*
X174090000Y-68795340D02*
X174003200Y-68745940D01*
X174003200Y-68745940D02*
X173916500Y-68696840D01*
X173916500Y-68696840D02*
X173830100Y-68648040D01*
X173830100Y-68648040D02*
X173743200Y-68599240D01*
X173743200Y-68599240D02*
X173655400Y-68550040D01*
X173655400Y-68550040D02*
X173567900Y-68501240D01*
X173567900Y-68501240D02*
X173480600Y-68452640D01*
X173480600Y-68452640D02*
X173393500Y-68404440D01*
X173393500Y-68404440D02*
X173306000Y-68356240D01*
X173306000Y-68356240D02*
X173217600Y-68307740D01*
X173217600Y-68307740D02*
X173129500Y-68259540D01*
X173129500Y-68259540D02*
X173041600Y-68211640D01*
X173041600Y-68211640D02*
X172953900Y-68164040D01*
X172953900Y-68164040D02*
X172866500Y-68116740D01*
X172866500Y-68116740D02*
X172778800Y-68069540D01*
X172778800Y-68069540D02*
X172690100Y-68021940D01*
X172690100Y-68021940D02*
X172601800Y-67974740D01*
X172601800Y-67974740D02*
X172513600Y-67927840D01*
X172513600Y-67927840D02*
X172425800Y-67881240D01*
X172425800Y-67881240D02*
X172337600Y-67834640D01*
X172337600Y-67834640D02*
X172248500Y-67787740D01*
X172248500Y-67787740D02*
X172159700Y-67741240D01*
X172159700Y-67741240D02*
X172071200Y-67695040D01*
X172071200Y-67695040D02*
X171982900Y-67649140D01*
X171982900Y-67649140D02*
X171894400Y-67603340D01*
X171894400Y-67603340D02*
X171805000Y-67557140D01*
X171805000Y-67557140D02*
X171715900Y-67511340D01*
X171715900Y-67511340D02*
X171627000Y-67465940D01*
X171627000Y-67465940D02*
X171538500Y-67420740D01*
X171538500Y-67420740D02*
X171449700Y-67375640D01*
X171449700Y-67375640D02*
X171360000Y-67330340D01*
X171360000Y-67330340D02*
X171270700Y-67285340D01*
X171270700Y-67285340D02*
X171181600Y-67240640D01*
X171181600Y-67240640D02*
X171092300Y-67195940D01*
X171092300Y-67195940D02*
X171002200Y-67151140D01*
X171002200Y-67151140D02*
X170912400Y-67106540D01*
X170912400Y-67106540D02*
X170822900Y-67062340D01*
X170822900Y-67062340D02*
X170733700Y-67018440D01*
X170733700Y-67018440D02*
X170644300Y-66974640D01*
X170644300Y-66974640D02*
X170554100Y-66930640D01*
X170554100Y-66930640D02*
X170464300Y-66886940D01*
X170464300Y-66886940D02*
X170374700Y-66843540D01*
X170374700Y-66843540D02*
X170284900Y-66800240D01*
X170284900Y-66800240D02*
X170194400Y-66756840D01*
X170194400Y-66756840D02*
X170104300Y-66713640D01*
X170104300Y-66713640D02*
X170014400Y-66670840D01*
X170014400Y-66670840D02*
X169924400Y-66628140D01*
X169924400Y-66628140D02*
X169833600Y-66585140D01*
X169833600Y-66585140D02*
X169743200Y-66542640D01*
X169743200Y-66542640D02*
X169652600Y-66500140D01*
X169652600Y-66500140D02*
X169561300Y-66457440D01*
X169561300Y-66457440D02*
X169470400Y-66415140D01*
X169470400Y-66415140D02*
X169379800Y-66373240D01*
X169379800Y-66373240D02*
X169289500Y-66331540D01*
X169289500Y-66331540D02*
X169199200Y-66290040D01*
X169199200Y-66290040D02*
X169108100Y-66248340D01*
X169108100Y-66248340D02*
X169017400Y-66207040D01*
X169017400Y-66207040D02*
X168926600Y-66165740D01*
X168926600Y-66165740D02*
X168835100Y-66124440D01*
X168835100Y-66124440D02*
X168744000Y-66083440D01*
X168744000Y-66083440D02*
X168653300Y-66042740D01*
X168653300Y-66042740D02*
X168562500Y-66002140D01*
X168562500Y-66002140D02*
X168471000Y-65961440D01*
X168471000Y-65961440D02*
X168379500Y-65920940D01*
X168379500Y-65920940D02*
X168287300Y-65880240D01*
X168287300Y-65880240D02*
X168195600Y-65839940D01*
X168195600Y-65839940D02*
X168104200Y-65800040D01*
X168104200Y-65800040D02*
X168012800Y-65760140D01*
X168012800Y-65760140D02*
X167920800Y-65720240D01*
X167920800Y-65720240D02*
X167829200Y-65680640D01*
X167829200Y-65680640D02*
X167737500Y-65641240D01*
X167737500Y-65641240D02*
X167645300Y-65601740D01*
X167645300Y-65601740D02*
X167553500Y-65562540D01*
X167553500Y-65562540D02*
X167461600Y-65523540D01*
X167461600Y-65523540D02*
X167369300Y-65484440D01*
X167369300Y-65484440D02*
X167276900Y-65445540D01*
X167276900Y-65445540D02*
X167183900Y-65406540D01*
X167183900Y-65406540D02*
X167091500Y-65367940D01*
X167091500Y-65367940D02*
X166999500Y-65329640D01*
X166999500Y-65329640D02*
X166907400Y-65291540D01*
X166907400Y-65291540D02*
X166814900Y-65253440D01*
X166814900Y-65253440D02*
X166722400Y-65215440D01*
X166722400Y-65215440D02*
X166629400Y-65177440D01*
X166629400Y-65177440D02*
X166536900Y-65139740D01*
X166536900Y-65139740D02*
X166444400Y-65102240D01*
X166444400Y-65102240D02*
X166351500Y-65064740D01*
X166351500Y-65064740D02*
X166258600Y-65027440D01*
X166258600Y-65027440D02*
X166165300Y-64990140D01*
X166165300Y-64990140D02*
X166072500Y-64953140D01*
X166072500Y-64953140D02*
X165979700Y-64916340D01*
X165979700Y-64916340D02*
X165886500Y-64879640D01*
X165886500Y-64879640D02*
X165793400Y-64843040D01*
X165793400Y-64843040D02*
X165699900Y-64806440D01*
X165699900Y-64806440D02*
X165607000Y-64770240D01*
X165607000Y-64770240D02*
X165514100Y-64734240D01*
X165514100Y-64734240D02*
X165420400Y-64698040D01*
X165420400Y-64698040D02*
X165326500Y-64661940D01*
X165326500Y-64661940D02*
X165233000Y-64626140D01*
X165233000Y-64626140D02*
X165140100Y-64590740D01*
X165140100Y-64590740D02*
X165047200Y-64555540D01*
X165047200Y-64555540D02*
X164953700Y-64520240D01*
X164953700Y-64520240D02*
X164859900Y-64485040D01*
X164859900Y-64485040D02*
X164766600Y-64450140D01*
X164766600Y-64450140D02*
X164673500Y-64415440D01*
X164673500Y-64415440D02*
X164579700Y-64380740D01*
X164579700Y-64380740D02*
X164485600Y-64346040D01*
X164485600Y-64346040D02*
X164392100Y-64311740D01*
X164392100Y-64311740D02*
X164298800Y-64277640D01*
X164298800Y-64277640D02*
X164204900Y-64243440D01*
X164204900Y-64243440D02*
X164110800Y-64209440D01*
X164110800Y-64209440D02*
X164016800Y-64175540D01*
X164016800Y-64175540D02*
X163922300Y-64141640D01*
X163922300Y-64141640D02*
X163827600Y-64107940D01*
X163827600Y-64107940D02*
X163733500Y-64074540D01*
X163733500Y-64074540D02*
X163639700Y-64041340D01*
X163639700Y-64041340D02*
X163545300Y-64008140D01*
X163545300Y-64008140D02*
X163450800Y-63975040D01*
X163450800Y-63975040D02*
X163356600Y-63942240D01*
X163356600Y-63942240D02*
X163261800Y-63909440D01*
X163261800Y-63909440D02*
X163167000Y-63876740D01*
X163167000Y-63876740D02*
X163072800Y-63844440D01*
X163072800Y-63844440D02*
X162978500Y-63812240D01*
X162978500Y-63812240D02*
X162883500Y-63779940D01*
X162883500Y-63779940D02*
X162789100Y-63748040D01*
X162789100Y-63748040D02*
X162694600Y-63716340D01*
X162694600Y-63716340D02*
X162599400Y-63684440D01*
X162599400Y-63684440D02*
X162504900Y-63653040D01*
X162504900Y-63653040D02*
X162410400Y-63621740D01*
X162410400Y-63621740D02*
X162315200Y-63590340D01*
X162315200Y-63590340D02*
X162220300Y-63559340D01*
X162220300Y-63559340D02*
X162125200Y-63528240D01*
X162125200Y-63528240D02*
X162030100Y-63497440D01*
X162030100Y-63497440D02*
X161935000Y-63466740D01*
X161935000Y-63466740D02*
X161839300Y-63436140D01*
X161839300Y-63436140D02*
X161744400Y-63405840D01*
X161744400Y-63405840D02*
X161649500Y-63375740D01*
X161649500Y-63375740D02*
X161554100Y-63345640D01*
X161554100Y-63345640D02*
X161458900Y-63315740D01*
X161458900Y-63315740D02*
X161363100Y-63285840D01*
X161363100Y-63285840D02*
X161267400Y-63256140D01*
X161267400Y-63256140D02*
X161171300Y-63226440D01*
X161171300Y-63226440D02*
X161076000Y-63197240D01*
X161076000Y-63197240D02*
X160980800Y-63168140D01*
X160980800Y-63168140D02*
X160885300Y-63139240D01*
X160885300Y-63139240D02*
X160789900Y-63110440D01*
X160789900Y-63110440D02*
X160694200Y-63081740D01*
X160694200Y-63081740D02*
X160598700Y-63053240D01*
X160598700Y-63053240D02*
X160502800Y-63024840D01*
X160502800Y-63024840D02*
X160407200Y-62996640D01*
X160407200Y-62996640D02*
X160311300Y-62968540D01*
X160311300Y-62968540D02*
X160215800Y-62940740D01*
X160215800Y-62940740D02*
X160119900Y-62913040D01*
X160119900Y-62913040D02*
X160024400Y-62885540D01*
X160024400Y-62885540D02*
X159928000Y-62858040D01*
X159928000Y-62858040D02*
X159831500Y-62830640D01*
X159831500Y-62830640D02*
X159735400Y-62803440D01*
X159735400Y-62803440D02*
X159638500Y-62776340D01*
X159638500Y-62776340D02*
X159541600Y-62749340D01*
X159541600Y-62749340D02*
X159445100Y-62722640D01*
X159445100Y-62722640D02*
X159348500Y-62696040D01*
X159348500Y-62696040D02*
X159252300Y-62669740D01*
X159252300Y-62669740D02*
X159155600Y-62643540D01*
X159155600Y-62643540D02*
X159058900Y-62617440D01*
X159058900Y-62617440D02*
X158962700Y-62591740D01*
X158962700Y-62591740D02*
X158866000Y-62566040D01*
X158866000Y-62566040D02*
X158768900Y-62540340D01*
X158768900Y-62540340D02*
X158671800Y-62514940D01*
X158671800Y-62514940D02*
X158575400Y-62489840D01*
X158575400Y-62489840D02*
X158478500Y-62464840D01*
X158478500Y-62464840D02*
X158381900Y-62440040D01*
X158381900Y-62440040D02*
X158285400Y-62415440D01*
X158285400Y-62415440D02*
X158188100Y-62390840D01*
X158188100Y-62390840D02*
X158091600Y-62366640D01*
X158091600Y-62366640D02*
X157994800Y-62342540D01*
X157994800Y-62342540D02*
X157897900Y-62318640D01*
X157897900Y-62318640D02*
X157800800Y-62294840D01*
X157800800Y-62294840D02*
X157703700Y-62271140D01*
X157703700Y-62271140D02*
X157606400Y-62247740D01*
X157606400Y-62247740D02*
X157509200Y-62224440D01*
X157509200Y-62224440D02*
X157411900Y-62201340D01*
X157411900Y-62201340D02*
X157314600Y-62178440D01*
X157314600Y-62178440D02*
X157217500Y-62155840D01*
X157217500Y-62155840D02*
X157120000Y-62133240D01*
X157120000Y-62133240D02*
X157022300Y-62110840D01*
X157022300Y-62110840D02*
X156925100Y-62088740D01*
X156925100Y-62088740D02*
X156827400Y-62066740D01*
X156827400Y-62066740D02*
X156729900Y-62045040D01*
X156729900Y-62045040D02*
X156632400Y-62023440D01*
X156632400Y-62023440D02*
X156534400Y-62002040D01*
X156534400Y-62002040D02*
X156436800Y-61980840D01*
X156436800Y-61980840D02*
X156339300Y-61959840D01*
X156339300Y-61959840D02*
X156241200Y-61939040D01*
X156241200Y-61939040D02*
X156143200Y-61918340D01*
X156143200Y-61918340D02*
X156046100Y-61898140D01*
X156046100Y-61898140D02*
X155948500Y-61878040D01*
X155948500Y-61878040D02*
X155850600Y-61858040D01*
X155850600Y-61858040D02*
X155752300Y-61838240D01*
X155752300Y-61838240D02*
X155653800Y-61818640D01*
X155653800Y-61818640D02*
X155555200Y-61799140D01*
X155555200Y-61799140D02*
X155456400Y-61779940D01*
X155456400Y-61779940D02*
X155357700Y-61760940D01*
X155357700Y-61760940D02*
X155259000Y-61742140D01*
X155259000Y-61742140D02*
X155160300Y-61723540D01*
X155160300Y-61723540D02*
X155061900Y-61705340D01*
X155061900Y-61705340D02*
X154963700Y-61687340D01*
X154963700Y-61687340D02*
X154865800Y-61669640D01*
X154865800Y-61669640D02*
X154767700Y-61652240D01*
X154767700Y-61652240D02*
X154668900Y-61634840D01*
X154668900Y-61634840D02*
X154570800Y-61617840D01*
X154570800Y-61617840D02*
X154472700Y-61601140D01*
X154472700Y-61601140D02*
X154373700Y-61584540D01*
X154373700Y-61584540D02*
X154274600Y-61568140D01*
X154274600Y-61568140D02*
X154175900Y-61552040D01*
X154175900Y-61552040D02*
X154077200Y-61536340D01*
X154077200Y-61536340D02*
X153979100Y-61520840D01*
X153979100Y-61520840D02*
X153880800Y-61505640D01*
X153880800Y-61505640D02*
X153782300Y-61490740D01*
X153782300Y-61490740D02*
X153683900Y-61476140D01*
X153683900Y-61476140D02*
X153585700Y-61461840D01*
X153585700Y-61461840D02*
X153487000Y-61447740D01*
X153487000Y-61447740D02*
X153387100Y-61433740D01*
X153387100Y-61433740D02*
X153288000Y-61420140D01*
X153288000Y-61420140D02*
X153188800Y-61406940D01*
X153188800Y-61406940D02*
X153089200Y-61393940D01*
X153089200Y-61393940D02*
X152990000Y-61381340D01*
X152990000Y-61381340D02*
X152890100Y-61369040D01*
X152890100Y-61369040D02*
X152790300Y-61357040D01*
X152790300Y-61357040D02*
X152691500Y-61345440D01*
X152691500Y-61345440D02*
X152592600Y-61334240D01*
X152592600Y-61334240D02*
X152493400Y-61323440D01*
X152493400Y-61323440D02*
X152393600Y-61312840D01*
X152393600Y-61312840D02*
X152294000Y-61302740D01*
X152294000Y-61302740D02*
X152194000Y-61292940D01*
X152194000Y-61292940D02*
X152093800Y-61283540D01*
X152093800Y-61283540D02*
X151994000Y-61274540D01*
X151994000Y-61274540D02*
X151894400Y-61266040D01*
X151894400Y-61266040D02*
X151794600Y-61257940D01*
X151794600Y-61257940D02*
X151695000Y-61250340D01*
X151695000Y-61250340D02*
X151595400Y-61243240D01*
X151595400Y-61243240D02*
X151495000Y-61236540D01*
X151495000Y-61236540D02*
X151394400Y-61230340D01*
X151394400Y-61230340D02*
X151294400Y-61224740D01*
X151294400Y-61224740D02*
X151195100Y-61219640D01*
X151195100Y-61219640D02*
X151095600Y-61215140D01*
X151095600Y-61215140D02*
X150995400Y-61211240D01*
X150995400Y-61211240D02*
X150894800Y-61207940D01*
X150894800Y-61207940D02*
X150794400Y-61205240D01*
X150794400Y-61205240D02*
X150694000Y-61203340D01*
X150694000Y-61203340D02*
X150594300Y-61202140D01*
X150594300Y-61202140D02*
X150494000Y-61201640D01*
X150494000Y-61201640D02*
X150393800Y-61201940D01*
X150393800Y-61201940D02*
X150293900Y-61203140D01*
X150293900Y-61203140D02*
X150193800Y-61205240D01*
X150193800Y-61205240D02*
X150093200Y-61208340D01*
X150093200Y-61208340D02*
X149993200Y-61212540D01*
X149993200Y-61212540D02*
X149894100Y-61217740D01*
X149894100Y-61217740D02*
X149795100Y-61224140D01*
X149795100Y-61224140D02*
X149696400Y-61231940D01*
X149696400Y-61231940D02*
X149597200Y-61239940D01*
X149597200Y-61239940D02*
X149498500Y-61247940D01*
X149498500Y-61247940D02*
X149399200Y-61256040D01*
X149399200Y-61256040D02*
X149299900Y-61264140D01*
X149299900Y-61264140D02*
X149201100Y-61272340D01*
X149201100Y-61272340D02*
X149101800Y-61280540D01*
X149101800Y-61280540D02*
X149002500Y-61288840D01*
X149002500Y-61288840D02*
X148903800Y-61297140D01*
X148903800Y-61297140D02*
X148804600Y-61305540D01*
X148804600Y-61305540D02*
X148705500Y-61313940D01*
X148705500Y-61313940D02*
X148606500Y-61322440D01*
X148606500Y-61322440D02*
X148506700Y-61331140D01*
X148506700Y-61331140D02*
X148407500Y-61339740D01*
X148407500Y-61339740D02*
X148308000Y-61348540D01*
X148308000Y-61348540D02*
X148208600Y-61357340D01*
X148208600Y-61357340D02*
X148109400Y-61366140D01*
X148109400Y-61366140D02*
X148009600Y-61375140D01*
X148009600Y-61375140D02*
X147910400Y-61384240D01*
X147910400Y-61384240D02*
X147811000Y-61393340D01*
X147811000Y-61393340D02*
X147711900Y-61402540D01*
X147711900Y-61402540D02*
X147613000Y-61411840D01*
X147613000Y-61411840D02*
X147513600Y-61421240D01*
X147513600Y-61421240D02*
X147414500Y-61430740D01*
X147414500Y-61430740D02*
X147314900Y-61440440D01*
X147314900Y-61440440D02*
X147215600Y-61450140D01*
X147215600Y-61450140D02*
X147115900Y-61460040D01*
X147115900Y-61460040D02*
X147016500Y-61470040D01*
X147016500Y-61470040D02*
X146916800Y-61480240D01*
X146916800Y-61480240D02*
X146817500Y-61490440D01*
X146817500Y-61490440D02*
X146717900Y-61500840D01*
X146717900Y-61500840D02*
X146618700Y-61511340D01*
X146618700Y-61511340D02*
X146519300Y-61522040D01*
X146519300Y-61522040D02*
X146420300Y-61532840D01*
X146420300Y-61532840D02*
X146321100Y-61543840D01*
X146321100Y-61543840D02*
X146222400Y-61554940D01*
X146222400Y-61554940D02*
X146123500Y-61566140D01*
X146123500Y-61566140D02*
X146025100Y-61577540D01*
X146025100Y-61577540D02*
X145925900Y-61589240D01*
X145925900Y-61589240D02*
X145826600Y-61601040D01*
X145826600Y-61601040D02*
X145727900Y-61613040D01*
X145727900Y-61613040D02*
X145628600Y-61625340D01*
X145628600Y-61625340D02*
X145529200Y-61637840D01*
X145529200Y-61637840D02*
X145430400Y-61650440D01*
X145430400Y-61650440D02*
X145331100Y-61663340D01*
X145331100Y-61663340D02*
X145231800Y-61676440D01*
X145231800Y-61676440D02*
X145133200Y-61689740D01*
X145133200Y-61689740D02*
X145034100Y-61703340D01*
X145034100Y-61703340D02*
X144935200Y-61717240D01*
X144935200Y-61717240D02*
X144837000Y-61731140D01*
X144837000Y-61731140D02*
X144738400Y-61745540D01*
X144738400Y-61745540D02*
X144639400Y-61760140D01*
X144639400Y-61760140D02*
X144540100Y-61775140D01*
X144540100Y-61775140D02*
X144441100Y-61790440D01*
X144441100Y-61790440D02*
X144342900Y-61805840D01*
X144342900Y-61805840D02*
X144244500Y-61821640D01*
X144244500Y-61821640D02*
X144145800Y-61837740D01*
X144145800Y-61837740D02*
X144047000Y-61854240D01*
X144047000Y-61854240D02*
X143948600Y-61871040D01*
X143948600Y-61871040D02*
X143850600Y-61888140D01*
X143850600Y-61888140D02*
X143752000Y-61905640D01*
X143752000Y-61905640D02*
X143654300Y-61923440D01*
X143654300Y-61923440D02*
X143556600Y-61941540D01*
X143556600Y-61941540D02*
X143459000Y-61960040D01*
X143459000Y-61960040D02*
X143361300Y-61979040D01*
X143361300Y-61979040D02*
X143263700Y-61998340D01*
X143263700Y-61998340D02*
X143166200Y-62018140D01*
X143166200Y-62018140D02*
X143068800Y-62038240D01*
X143068800Y-62038240D02*
X142971600Y-62058840D01*
X142971600Y-62058840D02*
X142874100Y-62080040D01*
X142874100Y-62080040D02*
X142776400Y-62101640D01*
X142776400Y-62101640D02*
X142679400Y-62123640D01*
X142679400Y-62123640D02*
X142582200Y-62146140D01*
X142582200Y-62146140D02*
X142485700Y-62169040D01*
X142485700Y-62169040D02*
X142388800Y-62192540D01*
X142388800Y-62192540D02*
X142292100Y-62216540D01*
X142292100Y-62216540D02*
X142195500Y-62241040D01*
X142195500Y-62241040D02*
X142098800Y-62266140D01*
X142098800Y-62266140D02*
X142003000Y-62291640D01*
X142003000Y-62291640D02*
X141906500Y-62317840D01*
X141906500Y-62317840D02*
X141810100Y-62344740D01*
X141810100Y-62344740D02*
X141714500Y-62371940D01*
X141714500Y-62371940D02*
X141618400Y-62399840D01*
X141618400Y-62399840D02*
X141522500Y-62428440D01*
X141522500Y-62428440D02*
X141427500Y-62457440D01*
X141427500Y-62457440D02*
X141332100Y-62487140D01*
X141332100Y-62487140D02*
X141237000Y-62517540D01*
X141237000Y-62517540D02*
X141142800Y-62548240D01*
X141142800Y-62548240D02*
X141048300Y-62579740D01*
X141048300Y-62579740D02*
X140953500Y-62612140D01*
X140953500Y-62612140D02*
X140859100Y-62645040D01*
X140859100Y-62645040D02*
X140765700Y-62678340D01*
X140765700Y-62678340D02*
X140672100Y-62712440D01*
X140672100Y-62712440D02*
X140578300Y-62747340D01*
X140578300Y-62747340D02*
X140485100Y-62782840D01*
X140485100Y-62782840D02*
X140392900Y-62818740D01*
X140392900Y-62818740D02*
X140300600Y-62855340D01*
X140300600Y-62855340D02*
X140208300Y-62892840D01*
X140208300Y-62892840D02*
X140116000Y-62931040D01*
X140116000Y-62931040D02*
X140023800Y-62970140D01*
X140023800Y-62970140D02*
X139931700Y-63009940D01*
X139931700Y-63009940D02*
X139840200Y-63050240D01*
X139840200Y-63050240D02*
X139749800Y-63090940D01*
X139749800Y-63090940D02*
X139659600Y-63132340D01*
X139659600Y-63132340D02*
X139569500Y-63174440D01*
X139569500Y-63174440D02*
X139479700Y-63217340D01*
X139479700Y-63217340D02*
X139390000Y-63260940D01*
X139390000Y-63260940D02*
X139300700Y-63305240D01*
X139300700Y-63305240D02*
X139211600Y-63350240D01*
X139211600Y-63350240D02*
X139122900Y-63395840D01*
X139122900Y-63395840D02*
X139034500Y-63442240D01*
X139034500Y-63442240D02*
X138946500Y-63489140D01*
X138946500Y-63489140D02*
X138858900Y-63536740D01*
X138858900Y-63536740D02*
X138771700Y-63584940D01*
X138771700Y-63584940D02*
X138684900Y-63633640D01*
X138684900Y-63633640D02*
X138598600Y-63683040D01*
X138598600Y-63683040D02*
X138512400Y-63733140D01*
X138512400Y-63733140D02*
X138426400Y-63783940D01*
X138426400Y-63783940D02*
X138341200Y-63835040D01*
X138341200Y-63835040D02*
X138255900Y-63887040D01*
X138255900Y-63887040D02*
X138171200Y-63939440D01*
X138171200Y-63939440D02*
X138086800Y-63992540D01*
X138086800Y-63992540D02*
X138002400Y-64046340D01*
X138002400Y-64046340D02*
X137918600Y-64100640D01*
X137918600Y-64100640D02*
X137835300Y-64155340D01*
X137835300Y-64155340D02*
X137752000Y-64210840D01*
X137752000Y-64210840D02*
X137669500Y-64266540D01*
X137669500Y-64266540D02*
X137587500Y-64322640D01*
X137587500Y-64322640D02*
X137505300Y-64379540D01*
X137505300Y-64379540D02*
X137423200Y-64437240D01*
X137423200Y-64437240D02*
X137341700Y-64495240D01*
X137341700Y-64495240D02*
X137261400Y-64553040D01*
X137261400Y-64553040D02*
X137181200Y-64611440D01*
X137181200Y-64611440D02*
X137101200Y-64670440D01*
X137101200Y-64670440D02*
X137021400Y-64729940D01*
X137021400Y-64729940D02*
X136941900Y-64789940D01*
X136941900Y-64789940D02*
X136862700Y-64850340D01*
X136862700Y-64850340D02*
X136784000Y-64911040D01*
X136784000Y-64911040D02*
X136705700Y-64972040D01*
X136705700Y-64972040D02*
X136627400Y-65033640D01*
X136627400Y-65033640D02*
X136548800Y-65096140D01*
X136548800Y-65096140D02*
X136471000Y-65158640D01*
X136471000Y-65158640D02*
X136393800Y-65221240D01*
X136393800Y-65221240D02*
X136317000Y-65284040D01*
X136317000Y-65284040D02*
X136239900Y-65347740D01*
X136239900Y-65347740D02*
X136162900Y-65411940D01*
X136162900Y-65411940D02*
X136086600Y-65476040D01*
X136086600Y-65476040D02*
X136010200Y-65540740D01*
X136010200Y-65540740D02*
X135934400Y-65605640D01*
X135934400Y-65605640D02*
X135859400Y-65670140D01*
X135859400Y-65670140D02*
X135784500Y-65735240D01*
X135784500Y-65735240D02*
X135709000Y-65801340D01*
X135709000Y-65801340D02*
X135633500Y-65867940D01*
X135633500Y-65867940D02*
X135558800Y-65934240D01*
X135558800Y-65934240D02*
X135484500Y-66000840D01*
X135484500Y-66000840D02*
X135410100Y-66067840D01*
X135410100Y-66067840D02*
X135336300Y-66134740D01*
X135336300Y-66134740D02*
X135262400Y-66202340D01*
X135262400Y-66202340D02*
X135188500Y-66270240D01*
X135188500Y-66270240D02*
X135115000Y-66338240D01*
X135115000Y-66338240D02*
X135042100Y-66406040D01*
X135042100Y-66406040D02*
X134969700Y-66473940D01*
X134969700Y-66473940D02*
X134897100Y-66542340D01*
X134897100Y-66542340D02*
X134824400Y-66611140D01*
X134824400Y-66611140D02*
X134751700Y-66680440D01*
X134751700Y-66680440D02*
X134679500Y-66749540D01*
X134679500Y-66749540D02*
X134607200Y-66819140D01*
X134607200Y-66819140D02*
X134535600Y-66888440D01*
X134535600Y-66888440D02*
X134464100Y-66958040D01*
X134464100Y-66958040D02*
X134392900Y-67027540D01*
X134392900Y-67027540D02*
X134321600Y-67097640D01*
X134321600Y-67097640D02*
X134250400Y-67167840D01*
X134250400Y-67167840D02*
X134179600Y-67238040D01*
X134179600Y-67238040D02*
X134108600Y-67308640D01*
X134108600Y-67308640D02*
X134038600Y-67378640D01*
X134038600Y-67378640D02*
X133968400Y-67449140D01*
X133968400Y-67449140D02*
X133898100Y-67520040D01*
X133898100Y-67520040D02*
X133828200Y-67590740D01*
X133828200Y-67590740D02*
X133757900Y-67662140D01*
X133757900Y-67662140D02*
X133687900Y-67733640D01*
X133687900Y-67733640D02*
X133641000Y-67781640D01*
X133641000Y-67781640D02*
X133529800Y-67720540D01*
X133529800Y-67720540D02*
X133441900Y-67668740D01*
X133441900Y-67668740D02*
X133356400Y-67616140D01*
X133356400Y-67616140D02*
X133271700Y-67562140D01*
X133271700Y-67562140D02*
X133188800Y-67507340D01*
X133188800Y-67507340D02*
X133106500Y-67451340D01*
X133106500Y-67451340D02*
X133025100Y-67394240D01*
X133025100Y-67394240D02*
X132943700Y-67335540D01*
X132943700Y-67335540D02*
X132863500Y-67276040D01*
X132863500Y-67276040D02*
X132784100Y-67215540D01*
X132784100Y-67215540D02*
X132705600Y-67154240D01*
X132705600Y-67154240D02*
X132627600Y-67091640D01*
X132627600Y-67091640D02*
X132550400Y-67028040D01*
X132550400Y-67028040D02*
X132474100Y-66963740D01*
X132474100Y-66963740D02*
X132399000Y-66898740D01*
X132399000Y-66898740D02*
X132324800Y-66832940D01*
X132324800Y-66832940D02*
X132250900Y-66765740D01*
X132250900Y-66765740D02*
X132177500Y-66697340D01*
X132177500Y-66697340D02*
X132105000Y-66628140D01*
X132105000Y-66628140D02*
X132033900Y-66558540D01*
X132033900Y-66558540D02*
X131963500Y-66488040D01*
X131963500Y-66488040D02*
X131894000Y-66416540D01*
X131894000Y-66416540D02*
X131825400Y-66344240D01*
X131825400Y-66344240D02*
X131757700Y-66271140D01*
X131757700Y-66271140D02*
X131691100Y-66197240D01*
X131691100Y-66197240D02*
X131625300Y-66122440D01*
X131625300Y-66122440D02*
X131559900Y-66046240D01*
X131559900Y-66046240D02*
X131495700Y-65969440D01*
X131495700Y-65969440D02*
X131432900Y-65892240D01*
X131432900Y-65892240D02*
X131371300Y-65814640D01*
X131371300Y-65814640D02*
X131310700Y-65736140D01*
X131310700Y-65736140D02*
X131250600Y-65656240D01*
X131250600Y-65656240D02*
X131191300Y-65575240D01*
X131191300Y-65575240D02*
X131133400Y-65493940D01*
X131133400Y-65493940D02*
X131076800Y-65412140D01*
X131076800Y-65412140D02*
X131021100Y-65329340D01*
X131021100Y-65329340D02*
X130966700Y-65246140D01*
X130966700Y-65246140D02*
X130913300Y-65162040D01*
X130913300Y-65162040D02*
X130861300Y-65077540D01*
X130861300Y-65077540D02*
X130810100Y-64991840D01*
X130810100Y-64991840D02*
X130760100Y-64905440D01*
X130760100Y-64905440D02*
X130711500Y-64818840D01*
X130711500Y-64818840D02*
X130663800Y-64731240D01*
X130663800Y-64731240D02*
X130617500Y-64643040D01*
X130617500Y-64643040D02*
X130572600Y-64554640D01*
X130572600Y-64554640D02*
X130528700Y-64465440D01*
X130528700Y-64465440D02*
X130486000Y-64375440D01*
X130486000Y-64375440D02*
X130444500Y-64284640D01*
X130444500Y-64284640D02*
X130404400Y-64193540D01*
X130404400Y-64193540D02*
X130365600Y-64102140D01*
X130365600Y-64102140D02*
X130327900Y-64009740D01*
X130327900Y-64009740D02*
X130291700Y-63917240D01*
X130291700Y-63917240D02*
X130256600Y-63823840D01*
X130256600Y-63823840D02*
X130222900Y-63730340D01*
X130222900Y-63730340D02*
X130190500Y-63636040D01*
X130190500Y-63636040D02*
X130159500Y-63541840D01*
X130159500Y-63541840D02*
X130129600Y-63446640D01*
X130129600Y-63446640D02*
X130101200Y-63351240D01*
X130101200Y-63351240D02*
X130074000Y-63255240D01*
X130074000Y-63255240D02*
X130048100Y-63158940D01*
X130048100Y-63158940D02*
X130023700Y-63062840D01*
X130023700Y-63062840D02*
X130000500Y-62965840D01*
X130000500Y-62965840D02*
X129978600Y-62868540D01*
X129978600Y-62868540D02*
X129958200Y-62771840D01*
X129958200Y-62771840D02*
X129939000Y-62674240D01*
X129939000Y-62674240D02*
X129921100Y-62576040D01*
X129921100Y-62576040D02*
X129904400Y-62477240D01*
X129904400Y-62477240D02*
X129889000Y-62378540D01*
X129889000Y-62378540D02*
X129875200Y-62280740D01*
X129875200Y-62280740D02*
X129862600Y-62182640D01*
X129862600Y-62182640D02*
X129851200Y-62084240D01*
X129851200Y-62084240D02*
X129841100Y-61985640D01*
X129841100Y-61985640D02*
X129832300Y-61887040D01*
X129832300Y-61887040D02*
X129824700Y-61787840D01*
X129824700Y-61787840D02*
X129818300Y-61687640D01*
X129818300Y-61687640D02*
X129813100Y-61587740D01*
X129813100Y-61587740D02*
X129809300Y-61488240D01*
X129809300Y-61488240D02*
X129806600Y-61388640D01*
X129806600Y-61388640D02*
X129805200Y-61288640D01*
X129805200Y-61288640D02*
X129804900Y-61188840D01*
X129804900Y-61188840D02*
X129805900Y-61088840D01*
X129805900Y-61088840D02*
X129808000Y-60989340D01*
X129808000Y-60989340D02*
X129811300Y-60889440D01*
X129811300Y-60889440D02*
X129815700Y-60789840D01*
X129815700Y-60789840D02*
X129821200Y-60691240D01*
X129821200Y-60691240D02*
X129827900Y-60592240D01*
X129827900Y-60592240D02*
X129835600Y-60492740D01*
X129835600Y-60492740D02*
X129844500Y-60393440D01*
X129844500Y-60393440D02*
X129854500Y-60294040D01*
X129854500Y-60294040D02*
X129865500Y-60194940D01*
X129865500Y-60194940D02*
X129877600Y-60095440D01*
X129877600Y-60095440D02*
X129890700Y-59996740D01*
X129890700Y-59996740D02*
X129904800Y-59897640D01*
X129904800Y-59897640D02*
X129920000Y-59798540D01*
X129920000Y-59798540D02*
X129936200Y-59699640D01*
X129936200Y-59699640D02*
X129953300Y-59601540D01*
X129953300Y-59601540D02*
X129971200Y-59503940D01*
X129971200Y-59503940D02*
X129990200Y-59406040D01*
X129990200Y-59406040D02*
X130010100Y-59308440D01*
X130010100Y-59308440D02*
X130030800Y-59211240D01*
X130030800Y-59211240D02*
X130052500Y-59114040D01*
X130052500Y-59114040D02*
X130075000Y-59017140D01*
X130075000Y-59017140D02*
X130098400Y-58920640D01*
X130098400Y-58920640D02*
X130122600Y-58824110D01*
X130122600Y-58824110D02*
X130147900Y-58727300D01*
X130147900Y-58727300D02*
X130173700Y-58631670D01*
X130173700Y-58631670D02*
X130200500Y-58535500D01*
X130200500Y-58535500D02*
X130228200Y-58439240D01*
X130228200Y-58439240D02*
X130256700Y-58343420D01*
X130256700Y-58343420D02*
X130285800Y-58248020D01*
X130285800Y-58248020D02*
X130315700Y-58152980D01*
X130315700Y-58152980D02*
X130346400Y-58058030D01*
X130346400Y-58058030D02*
X130377800Y-57963220D01*
X130377800Y-57963220D02*
X130409800Y-57869090D01*
X130409800Y-57869090D02*
X130442600Y-57775200D01*
X130442600Y-57775200D02*
X130465000Y-57712300D01*
X130465000Y-57712300D02*
X130367700Y-57632130D01*
X130367700Y-57632130D02*
X130286500Y-57571290D01*
X130286500Y-57571290D02*
X130204200Y-57513270D01*
X130204200Y-57513270D02*
X130121800Y-57458270D01*
X130121800Y-57458270D02*
X130037900Y-57404960D01*
X130037900Y-57404960D02*
X129952400Y-57353280D01*
X129952400Y-57353280D02*
X129866400Y-57303660D01*
X129866400Y-57303660D02*
X129779200Y-57255680D01*
X129779200Y-57255680D02*
X129691100Y-57209360D01*
X129691100Y-57209360D02*
X129602600Y-57164960D01*
X129602600Y-57164960D02*
X129512500Y-57121800D01*
X129512500Y-57121800D02*
X129422200Y-57080570D01*
X129422200Y-57080570D02*
X129331600Y-57041110D01*
X129331600Y-57041110D02*
X129239700Y-57002980D01*
X129239700Y-57002980D02*
X129146600Y-56966260D01*
X129146600Y-56966260D02*
X129053200Y-56931270D01*
X129053200Y-56931270D02*
X128960400Y-56898270D01*
X128960400Y-56898270D02*
X128867100Y-56866810D01*
X128867100Y-56866810D02*
X128772800Y-56836720D01*
X128772800Y-56836720D02*
X128676900Y-56807860D01*
X128676900Y-56807860D02*
X128580800Y-56780680D01*
X128580800Y-56780680D02*
X128484800Y-56755160D01*
X128484800Y-56755160D02*
X128388900Y-56731310D01*
X128388900Y-56731310D02*
X128292600Y-56708950D01*
X128292600Y-56708950D02*
X128195300Y-56687980D01*
X128195300Y-56687980D02*
X128097900Y-56668550D01*
X128097900Y-56668550D02*
X127999700Y-56650550D01*
X127999700Y-56650550D02*
X127901600Y-56634110D01*
X127901600Y-56634110D02*
X127802900Y-56619110D01*
X127802900Y-56619110D02*
X127704500Y-56605670D01*
X127704500Y-56605670D02*
X127605700Y-56593670D01*
X127605700Y-56593670D02*
X127507300Y-56583190D01*
X127507300Y-56583190D02*
X127408200Y-56574090D01*
X127408200Y-56574090D02*
X127309100Y-56566440D01*
X127309100Y-56566440D02*
X127210700Y-56560250D01*
X127210700Y-56560250D02*
X127111900Y-56555440D01*
X127111900Y-56555440D02*
X127012700Y-56552000D01*
X127012700Y-56552000D02*
X126913400Y-56549930D01*
X126913400Y-56549930D02*
X126814000Y-56549230D01*
X126814000Y-56549230D02*
X126714700Y-56549870D01*
X126714700Y-56549870D02*
X126615500Y-56551850D01*
X126615500Y-56551850D02*
X126516600Y-56555140D01*
X126516600Y-56555140D02*
X126417600Y-56559720D01*
X126417600Y-56559720D02*
X126318100Y-56565630D01*
X126318100Y-56565630D02*
X126219200Y-56572780D01*
X126219200Y-56572780D02*
X126120600Y-56581150D01*
X126120600Y-56581150D02*
X126021500Y-56590820D01*
X126021500Y-56590820D02*
X125922000Y-56601770D01*
X125922000Y-56601770D02*
X125822800Y-56613930D01*
X125822800Y-56613930D02*
X125724600Y-56627180D01*
X125724600Y-56627180D02*
X125626500Y-56641590D01*
X125626500Y-56641590D02*
X125528400Y-56657180D01*
X125528400Y-56657180D02*
X125430000Y-56673990D01*
X125430000Y-56673990D02*
X125332500Y-56691810D01*
X125332500Y-56691810D02*
X125235100Y-56710720D01*
X125235100Y-56710720D02*
X125137500Y-56730810D01*
X125137500Y-56730810D02*
X125040700Y-56751850D01*
X125040700Y-56751850D02*
X124943500Y-56774080D01*
X124943500Y-56774080D02*
X124846300Y-56797400D01*
X124846300Y-56797400D02*
X124749500Y-56821710D01*
X124749500Y-56821710D02*
X124653400Y-56846910D01*
X124653400Y-56846910D02*
X124557800Y-56873010D01*
X124557800Y-56873010D02*
X124462100Y-56900180D01*
X124462100Y-56900180D02*
X124366800Y-56928280D01*
X124366800Y-56928280D02*
X124272000Y-56957240D01*
X124272000Y-56957240D02*
X124177200Y-56987170D01*
X124177200Y-56987170D02*
X124082900Y-57017960D01*
X124082900Y-57017960D02*
X123988500Y-57049720D01*
X123988500Y-57049720D02*
X123894400Y-57082390D01*
X123894400Y-57082390D02*
X123800900Y-57115790D01*
X123800900Y-57115790D02*
X123707900Y-57149960D01*
X123707900Y-57149960D02*
X123615700Y-57184730D01*
X123615700Y-57184730D02*
X123523400Y-57220470D01*
X123523400Y-57220470D02*
X123431500Y-57256970D01*
X123431500Y-57256970D02*
X123339600Y-57294350D01*
X123339600Y-57294350D02*
X123247700Y-57332630D01*
X123247700Y-57332630D02*
X123156700Y-57371400D01*
X123156700Y-57371400D02*
X123065900Y-57411000D01*
X123065900Y-57411000D02*
X122975600Y-57451170D01*
X122975600Y-57451170D02*
X122885500Y-57492100D01*
X122885500Y-57492100D02*
X122795100Y-57534030D01*
X122795100Y-57534030D02*
X122705000Y-57574810D01*
X122705000Y-57574810D02*
X122614200Y-57614500D01*
X122614200Y-57614500D02*
X122522700Y-57653030D01*
X122522700Y-57653030D02*
X122430700Y-57690340D01*
X122430700Y-57690340D02*
X122338200Y-57726380D01*
X122338200Y-57726380D02*
X122245100Y-57761090D01*
X122245100Y-57761090D02*
X122151700Y-57794420D01*
X122151700Y-57794420D02*
X122057900Y-57826330D01*
X122057900Y-57826330D02*
X121963200Y-57856940D01*
X121963200Y-57856940D02*
X121867700Y-57886170D01*
X121867700Y-57886170D02*
X121772600Y-57913670D01*
X121772600Y-57913670D02*
X121676300Y-57939830D01*
X121676300Y-57939830D02*
X121579900Y-57964310D01*
X121579900Y-57964310D02*
X121482900Y-57987200D01*
X121482900Y-57987200D02*
X121385000Y-58008540D01*
X121385000Y-58008540D02*
X121287200Y-58028060D01*
X121287200Y-58028060D02*
X121189100Y-58045850D01*
X121189100Y-58045850D02*
X121090300Y-58061910D01*
X121090300Y-58061910D02*
X120991700Y-58076060D01*
X120991700Y-58076060D02*
X120893000Y-58088350D01*
X120893000Y-58088350D02*
X120793900Y-58098800D01*
X120793900Y-58098800D02*
X120695100Y-58107280D01*
X120695100Y-58107280D02*
X120596500Y-58113840D01*
X120596500Y-58113840D02*
X120497100Y-58118480D01*
X120497100Y-58118480D02*
X120397200Y-58121140D01*
X120397200Y-58121140D02*
X120297100Y-58121780D01*
X120297100Y-58121780D02*
X120197900Y-58120380D01*
X120197900Y-58120380D02*
X120099100Y-58116970D01*
X120099100Y-58116970D02*
X119999900Y-58111500D01*
X119999900Y-58111500D02*
X119900700Y-58103940D01*
X119900700Y-58103940D02*
X119801300Y-58094280D01*
X119801300Y-58094280D02*
X119702000Y-58082510D01*
X119702000Y-58082510D02*
X119602800Y-58068600D01*
X119602800Y-58068600D02*
X119503800Y-58052580D01*
X119503800Y-58052580D02*
X119405100Y-58034430D01*
X119405100Y-58034430D02*
X119306800Y-58014190D01*
X119306800Y-58014190D02*
X119208900Y-57991860D01*
X119208900Y-57991860D02*
X119111600Y-57967480D01*
X119111600Y-57967480D02*
X119015000Y-57941090D01*
X119015000Y-57941090D02*
X118919000Y-57912710D01*
X118919000Y-57912710D02*
X118823900Y-57882410D01*
X118823900Y-57882410D02*
X118729600Y-57850220D01*
X118729600Y-57850220D02*
X118636200Y-57816220D01*
X118636200Y-57816220D02*
X118543800Y-57780450D01*
X118543800Y-57780450D02*
X118452000Y-57742780D01*
X118452000Y-57742780D02*
X118360300Y-57703020D01*
X118360300Y-57703020D02*
X118269900Y-57661690D01*
X118269900Y-57661690D02*
X118180700Y-57618870D01*
X118180700Y-57618870D02*
X118092500Y-57574400D01*
X118092500Y-57574400D02*
X118004400Y-57527900D01*
X118004400Y-57527900D02*
X117916900Y-57479670D01*
X117916900Y-57479670D02*
X117830700Y-57430030D01*
X117830700Y-57430030D02*
X117745400Y-57378850D01*
X117745400Y-57378850D02*
X117661500Y-57326480D01*
X117661500Y-57326480D02*
X117578300Y-57272510D01*
X117578300Y-57272510D02*
X117495900Y-57217080D01*
X117495900Y-57217080D02*
X117414500Y-57160290D01*
X117414500Y-57160290D02*
X117334300Y-57102270D01*
X117334300Y-57102270D02*
X117254800Y-57042900D01*
X117254800Y-57042900D02*
X117175900Y-56981870D01*
X117175900Y-56981870D02*
X117097800Y-56919540D01*
X117097800Y-56919540D02*
X117020900Y-56856120D01*
X117020900Y-56856120D02*
X116944600Y-56791280D01*
X116944600Y-56791280D02*
X116869800Y-56725700D01*
X116869800Y-56725700D02*
X116795600Y-56658680D01*
X116795600Y-56658680D02*
X116722200Y-56590440D01*
X116722200Y-56590440D02*
X116649900Y-56521250D01*
X116649900Y-56521250D02*
X116578900Y-56451360D01*
X116578900Y-56451360D02*
X116509000Y-56380640D01*
X116509000Y-56380640D02*
X116439700Y-56308630D01*
X116439700Y-56308630D02*
X116371500Y-56235690D01*
X116371500Y-56235690D02*
X116304600Y-56162230D01*
X116304600Y-56162230D02*
X116239000Y-56088310D01*
X116239000Y-56088310D02*
X116174200Y-56013380D01*
X116174200Y-56013380D02*
X116110200Y-55937390D01*
X116110200Y-55937390D02*
X116047300Y-55860710D01*
X116047300Y-55860710D02*
X115985200Y-55782980D01*
X115985200Y-55782980D02*
X115923800Y-55704070D01*
X115923800Y-55704070D02*
X115863600Y-55624650D01*
X115863600Y-55624650D02*
X115804400Y-55544590D01*
X115804400Y-55544590D02*
X115746400Y-55463840D01*
X115746400Y-55463840D02*
X115689300Y-55382170D01*
X115689300Y-55382170D02*
X115633200Y-55299650D01*
X115633200Y-55299650D02*
X115578300Y-55216440D01*
X115578300Y-55216440D02*
X115524800Y-55132790D01*
X115524800Y-55132790D02*
X115472100Y-55047560D01*
X115472100Y-55047560D02*
X115419800Y-54959810D01*
X115419800Y-54959810D02*
X115357800Y-54850880D01*
X115357800Y-54850880D02*
X115342100Y-54820160D01*
X115342100Y-54820160D02*
X115335000Y-54946180D01*
X115335000Y-54946180D02*
X115332700Y-55047550D01*
X115332700Y-55047550D02*
X115332400Y-55147020D01*
X115332400Y-55147020D02*
X115333900Y-55246240D01*
X115333900Y-55246240D02*
X115337100Y-55345890D01*
X115337100Y-55345890D02*
X115341800Y-55444750D01*
X115341800Y-55444750D02*
X115348000Y-55543880D01*
X115348000Y-55543880D02*
X115355600Y-55642850D01*
X115355600Y-55642850D02*
X115364700Y-55742300D01*
X115364700Y-55742300D02*
X115375200Y-55841630D01*
X115375200Y-55841630D02*
X115387000Y-55940320D01*
X115387000Y-55940320D02*
X115400100Y-56038700D01*
X115400100Y-56038700D02*
X115414500Y-56137230D01*
X115414500Y-56137230D02*
X115430100Y-56234830D01*
X115430100Y-56234830D02*
X115447100Y-56332800D01*
X115447100Y-56332800D02*
X115465500Y-56430950D01*
X115465500Y-56430950D02*
X115485300Y-56529080D01*
X115485300Y-56529080D02*
X115506300Y-56627030D01*
X115506300Y-56627030D02*
X115528600Y-56724640D01*
X115528600Y-56724640D02*
X115552100Y-56821770D01*
X115552100Y-56821770D02*
X115576900Y-56918310D01*
X115576900Y-56918310D02*
X115602800Y-57014130D01*
X115602800Y-57014130D02*
X115629800Y-57109140D01*
X115629800Y-57109140D02*
X115658200Y-57203970D01*
X115658200Y-57203970D02*
X115688000Y-57299250D01*
X115688000Y-57299250D02*
X115718900Y-57393430D01*
X115718900Y-57393430D02*
X115750900Y-57487130D01*
X115750900Y-57487130D02*
X115784500Y-57580990D01*
X115784500Y-57580990D02*
X115819100Y-57673830D01*
X115819100Y-57673830D02*
X115854900Y-57766290D01*
X115854900Y-57766290D02*
X115892000Y-57858270D01*
X115892000Y-57858270D02*
X115930300Y-57949690D01*
X115930300Y-57949690D02*
X115969900Y-58040790D01*
X115969900Y-58040790D02*
X116010800Y-58131490D01*
X116010800Y-58131490D02*
X116052600Y-58221050D01*
X116052600Y-58221050D02*
X116095900Y-58310650D01*
X116095900Y-58310650D02*
X116140500Y-58399580D01*
X116140500Y-58399580D02*
X116185800Y-58487170D01*
X116185800Y-58487170D02*
X116232600Y-58574520D01*
X116232600Y-58574520D02*
X116280700Y-58661520D01*
X116280700Y-58661520D02*
X116330100Y-58748060D01*
X116330100Y-58748060D02*
X116380700Y-58834050D01*
X116380700Y-58834050D02*
X116432600Y-58919340D01*
X116432600Y-58919340D02*
X116485600Y-59003940D01*
X116485600Y-59003940D02*
X116539700Y-59087640D01*
X116539700Y-59087640D02*
X116594900Y-59170440D01*
X116594900Y-59170440D02*
X116651000Y-59252140D01*
X116651000Y-59252140D02*
X116708200Y-59333240D01*
X116708200Y-59333240D02*
X116766900Y-59414040D01*
X116766900Y-59414040D02*
X116826400Y-59493540D01*
X116826400Y-59493540D02*
X116886800Y-59571940D01*
X116886800Y-59571940D02*
X116948300Y-59649740D01*
X116948300Y-59649740D02*
X117010600Y-59726340D01*
X117010600Y-59726340D02*
X117074200Y-59802440D01*
X117074200Y-59802440D02*
X117139000Y-59877840D01*
X117139000Y-59877840D02*
X117204700Y-59952340D01*
X117204700Y-59952340D02*
X117271400Y-60025840D01*
X117271400Y-60025840D02*
X117339100Y-60098540D01*
X117339100Y-60098540D02*
X117408000Y-60170640D01*
X117408000Y-60170640D02*
X117477400Y-60241240D01*
X117477400Y-60241240D02*
X117547500Y-60310940D01*
X117547500Y-60310940D02*
X117618900Y-60379940D01*
X117618900Y-60379940D02*
X117690700Y-60447640D01*
X117690700Y-60447640D02*
X117763800Y-60514740D01*
X117763800Y-60514740D02*
X117837800Y-60581040D01*
X117837800Y-60581040D02*
X117912600Y-60646340D01*
X117912600Y-60646340D02*
X117987800Y-60710340D01*
X117987800Y-60710340D02*
X118063500Y-60773240D01*
X118063500Y-60773240D02*
X118140300Y-60835440D01*
X118140300Y-60835440D02*
X118217800Y-60896640D01*
X118217800Y-60896640D02*
X118295800Y-60956840D01*
X118295800Y-60956840D02*
X118374800Y-61016140D01*
X118374800Y-61016140D02*
X118454700Y-61074740D01*
X118454700Y-61074740D02*
X118535800Y-61132840D01*
X118535800Y-61132840D02*
X118617400Y-61189740D01*
X118617400Y-61189740D02*
X118699900Y-61245940D01*
X118699900Y-61245940D02*
X118782700Y-61301040D01*
X118782700Y-61301040D02*
X118865600Y-61354740D01*
X118865600Y-61354740D02*
X118949400Y-61407740D01*
X118949400Y-61407740D02*
X119033700Y-61459740D01*
X119033700Y-61459740D02*
X119118700Y-61510940D01*
X119118700Y-61510940D02*
X119204400Y-61561340D01*
X119204400Y-61561340D02*
X119290000Y-61610540D01*
X119290000Y-61610540D02*
X119376300Y-61658840D01*
X119376300Y-61658840D02*
X119462700Y-61706040D01*
X119462700Y-61706040D02*
X119549700Y-61752440D01*
X119549700Y-61752440D02*
X119638100Y-61798540D01*
X119638100Y-61798540D02*
X119726500Y-61845140D01*
X119726500Y-61845140D02*
X119814100Y-61892340D01*
X119814100Y-61892340D02*
X119901500Y-61940340D01*
X119901500Y-61940340D02*
X119988000Y-61988840D01*
X119988000Y-61988840D02*
X120074300Y-62038140D01*
X120074300Y-62038140D02*
X120159700Y-62088040D01*
X120159700Y-62088040D02*
X120245300Y-62138940D01*
X120245300Y-62138940D02*
X120330600Y-62190640D01*
X120330600Y-62190640D02*
X120414900Y-62242740D01*
X120414900Y-62242740D02*
X120499400Y-62295940D01*
X120499400Y-62295940D02*
X120583400Y-62349840D01*
X120583400Y-62349840D02*
X120666400Y-62404140D01*
X120666400Y-62404140D02*
X120749500Y-62459540D01*
X120749500Y-62459540D02*
X120832000Y-62515540D01*
X120832000Y-62515540D02*
X120913600Y-62571840D01*
X120913600Y-62571840D02*
X120995000Y-62629140D01*
X120995000Y-62629140D02*
X121075900Y-62687040D01*
X121075900Y-62687040D02*
X121155700Y-62745240D01*
X121155700Y-62745240D02*
X121235400Y-62804340D01*
X121235400Y-62804340D02*
X121314900Y-62864340D01*
X121314900Y-62864340D02*
X121394000Y-62925140D01*
X121394000Y-62925140D02*
X121472500Y-62986440D01*
X121472500Y-62986440D02*
X121549900Y-63047940D01*
X121549900Y-63047940D02*
X121626900Y-63110240D01*
X121626900Y-63110240D02*
X121703600Y-63173240D01*
X121703600Y-63173240D02*
X121779900Y-63237040D01*
X121779900Y-63237040D02*
X121855700Y-63301440D01*
X121855700Y-63301440D02*
X121931000Y-63366640D01*
X121931000Y-63366640D02*
X122005900Y-63432340D01*
X122005900Y-63432340D02*
X122080200Y-63498740D01*
X122080200Y-63498740D02*
X122153900Y-63565640D01*
X122153900Y-63565640D02*
X122227100Y-63633140D01*
X122227100Y-63633140D02*
X122299600Y-63701140D01*
X122299600Y-63701140D02*
X122371400Y-63769640D01*
X122371400Y-63769640D02*
X122442900Y-63838940D01*
X122442900Y-63838940D02*
X122514000Y-63908840D01*
X122514000Y-63908840D02*
X122584000Y-63978840D01*
X122584000Y-63978840D02*
X122653900Y-64049840D01*
X122653900Y-64049840D02*
X122722900Y-64121040D01*
X122722900Y-64121040D02*
X122791400Y-64192840D01*
X122791400Y-64192840D02*
X122859500Y-64265340D01*
X122859500Y-64265340D02*
X122926800Y-64338140D01*
X122926800Y-64338140D02*
X122993300Y-64411240D01*
X122993300Y-64411240D02*
X123059700Y-64485340D01*
X123059700Y-64485340D02*
X123125800Y-64560240D01*
X123125800Y-64560240D02*
X123191100Y-64635340D01*
X123191100Y-64635340D02*
X123255200Y-64710140D01*
X123255200Y-64710140D02*
X123318800Y-64785640D01*
X123318800Y-64785640D02*
X123382000Y-64861840D01*
X123382000Y-64861840D02*
X123444700Y-64938540D01*
X123444700Y-64938540D02*
X123506800Y-65015740D01*
X123506800Y-65015740D02*
X123568300Y-65093340D01*
X123568300Y-65093340D02*
X123629200Y-65171240D01*
X123629200Y-65171240D02*
X123689700Y-65249940D01*
X123689700Y-65249940D02*
X123750200Y-65329840D01*
X123750200Y-65329840D02*
X123809700Y-65409740D01*
X123809700Y-65409740D02*
X123868400Y-65489740D01*
X123868400Y-65489740D02*
X123926500Y-65570040D01*
X123926500Y-65570040D02*
X123984300Y-65651140D01*
X123984300Y-65651140D02*
X124041300Y-65732440D01*
X124041300Y-65732440D02*
X124098000Y-65814740D01*
X124098000Y-65814740D02*
X124154200Y-65897340D01*
X124154200Y-65897340D02*
X124209300Y-65979840D01*
X124209300Y-65979840D02*
X124264000Y-66062840D01*
X124264000Y-66062840D02*
X124318100Y-66146340D01*
X124318100Y-66146340D02*
X124371500Y-66230040D01*
X124371500Y-66230040D02*
X124424400Y-66314240D01*
X124424400Y-66314240D02*
X124476800Y-66399040D01*
X124476800Y-66399040D02*
X124528300Y-66483640D01*
X124528300Y-66483640D02*
X124579100Y-66568640D01*
X124579100Y-66568640D02*
X124629600Y-66654340D01*
X124629600Y-66654340D02*
X124679200Y-66739840D01*
X124679200Y-66739840D02*
X124728400Y-66826240D01*
X124728400Y-66826240D02*
X124777200Y-66913340D01*
X124777200Y-66913340D02*
X124825300Y-67000640D01*
X124825300Y-67000640D02*
X124872600Y-67087940D01*
X124872600Y-67087940D02*
X124919100Y-67175340D01*
X124919100Y-67175340D02*
X124965300Y-67263640D01*
X124965300Y-67263640D02*
X125010900Y-67352340D01*
X125010900Y-67352340D02*
X125055500Y-67440940D01*
X125055500Y-67440940D02*
X125099300Y-67529340D01*
X125099300Y-67529340D02*
X125142600Y-67618240D01*
X125142600Y-67618240D02*
X125185300Y-67707940D01*
X125185300Y-67707940D02*
X125227300Y-67797740D01*
X125227300Y-67797740D02*
X125268800Y-67888240D01*
X125268800Y-67888240D02*
X125309800Y-67979540D01*
X125309800Y-67979540D02*
X125349900Y-68070940D01*
X125349900Y-68070940D02*
X125389200Y-68162440D01*
X125389200Y-68162440D02*
X125427800Y-68254340D01*
X125427800Y-68254340D02*
X125465600Y-68346640D01*
X125465600Y-68346640D02*
X125502600Y-68439440D01*
X125502600Y-68439440D02*
X125538700Y-68532540D01*
X125538700Y-68532540D02*
X125573700Y-68625440D01*
X125573700Y-68625440D02*
X125607800Y-68719240D01*
X125607800Y-68719240D02*
X125641100Y-68814340D01*
X125641100Y-68814340D02*
X125680700Y-68933540D01*
X125680700Y-68933540D02*
X125690400Y-68966540D01*
X125690400Y-68966540D02*
X125690400Y-68966540D01*
%TD*%
M02*
