%TF.GenerationSoftware,KiCad,Pcbnew,(5.1.7-0-10_14)*%
%TF.CreationDate,2020-10-21T09:08:44+08:00*%
%TF.ProjectId,HallowBadges,48616c6c-6f77-4426-9164-6765732e6b69,rev?*%
%TF.SameCoordinates,Original*%
%TF.FileFunction,Soldermask,Bot*%
%TF.FilePolarity,Negative*%
%FSLAX46Y46*%
G04 Gerber Fmt 4.6, Leading zero omitted, Abs format (unit mm)*
G04 Created by KiCad (PCBNEW (5.1.7-0-10_14)) date 2020-10-21 09:08:44*
%MOMM*%
%LPD*%
G01*
G04 APERTURE LIST*
%ADD10R,5.100000X5.100000*%
%ADD11C,17.800000*%
%ADD12R,3.150000X1.000000*%
%ADD13R,0.800000X0.900000*%
G04 APERTURE END LIST*
%TO.C,R1*%
G36*
G01*
X113200000Y-96250001D02*
X113200000Y-95349999D01*
G75*
G02*
X113449999Y-95100000I249999J0D01*
G01*
X114150001Y-95100000D01*
G75*
G02*
X114400000Y-95349999I0J-249999D01*
G01*
X114400000Y-96250001D01*
G75*
G02*
X114150001Y-96500000I-249999J0D01*
G01*
X113449999Y-96500000D01*
G75*
G02*
X113200000Y-96250001I0J249999D01*
G01*
G37*
G36*
G01*
X115200000Y-96250001D02*
X115200000Y-95349999D01*
G75*
G02*
X115449999Y-95100000I249999J0D01*
G01*
X116150001Y-95100000D01*
G75*
G02*
X116400000Y-95349999I0J-249999D01*
G01*
X116400000Y-96250001D01*
G75*
G02*
X116150001Y-96500000I-249999J0D01*
G01*
X115449999Y-96500000D01*
G75*
G02*
X115200000Y-96250001I0J249999D01*
G01*
G37*
%TD*%
D10*
%TO.C,BT1*%
X156400000Y-129600000D03*
X130800000Y-129600000D03*
D11*
X143600000Y-129600000D03*
%TD*%
D12*
%TO.C,J1*%
X165675000Y-129640000D03*
X170725000Y-129640000D03*
X165675000Y-127100000D03*
X170725000Y-127100000D03*
X165675000Y-124560000D03*
X170725000Y-124560000D03*
%TD*%
D13*
%TO.C,Q1*%
X160350000Y-111300000D03*
X158450000Y-111300000D03*
X159400000Y-109300000D03*
%TD*%
%TO.C,R2*%
G36*
G01*
X160749999Y-85800000D02*
X161650001Y-85800000D01*
G75*
G02*
X161900000Y-86049999I0J-249999D01*
G01*
X161900000Y-86750001D01*
G75*
G02*
X161650001Y-87000000I-249999J0D01*
G01*
X160749999Y-87000000D01*
G75*
G02*
X160500000Y-86750001I0J249999D01*
G01*
X160500000Y-86049999D01*
G75*
G02*
X160749999Y-85800000I249999J0D01*
G01*
G37*
G36*
G01*
X160749999Y-83800000D02*
X161650001Y-83800000D01*
G75*
G02*
X161900000Y-84049999I0J-249999D01*
G01*
X161900000Y-84750001D01*
G75*
G02*
X161650001Y-85000000I-249999J0D01*
G01*
X160749999Y-85000000D01*
G75*
G02*
X160500000Y-84750001I0J249999D01*
G01*
X160500000Y-84049999D01*
G75*
G02*
X160749999Y-83800000I249999J0D01*
G01*
G37*
%TD*%
%TO.C,R3*%
G36*
G01*
X167749999Y-112000000D02*
X168650001Y-112000000D01*
G75*
G02*
X168900000Y-112249999I0J-249999D01*
G01*
X168900000Y-112950001D01*
G75*
G02*
X168650001Y-113200000I-249999J0D01*
G01*
X167749999Y-113200000D01*
G75*
G02*
X167500000Y-112950001I0J249999D01*
G01*
X167500000Y-112249999D01*
G75*
G02*
X167749999Y-112000000I249999J0D01*
G01*
G37*
G36*
G01*
X167749999Y-114000000D02*
X168650001Y-114000000D01*
G75*
G02*
X168900000Y-114249999I0J-249999D01*
G01*
X168900000Y-114950001D01*
G75*
G02*
X168650001Y-115200000I-249999J0D01*
G01*
X167749999Y-115200000D01*
G75*
G02*
X167500000Y-114950001I0J249999D01*
G01*
X167500000Y-114249999D01*
G75*
G02*
X167749999Y-114000000I249999J0D01*
G01*
G37*
%TD*%
%TO.C,R4*%
G36*
G01*
X164800000Y-111750001D02*
X164800000Y-110849999D01*
G75*
G02*
X165049999Y-110600000I249999J0D01*
G01*
X165750001Y-110600000D01*
G75*
G02*
X166000000Y-110849999I0J-249999D01*
G01*
X166000000Y-111750001D01*
G75*
G02*
X165750001Y-112000000I-249999J0D01*
G01*
X165049999Y-112000000D01*
G75*
G02*
X164800000Y-111750001I0J249999D01*
G01*
G37*
G36*
G01*
X162800000Y-111750001D02*
X162800000Y-110849999D01*
G75*
G02*
X163049999Y-110600000I249999J0D01*
G01*
X163750001Y-110600000D01*
G75*
G02*
X164000000Y-110849999I0J-249999D01*
G01*
X164000000Y-111750001D01*
G75*
G02*
X163750001Y-112000000I-249999J0D01*
G01*
X163049999Y-112000000D01*
G75*
G02*
X162800000Y-111750001I0J249999D01*
G01*
G37*
%TD*%
%TO.C,U1*%
G36*
G01*
X158450000Y-118555000D02*
X158450000Y-118255000D01*
G75*
G02*
X158600000Y-118105000I150000J0D01*
G01*
X160250000Y-118105000D01*
G75*
G02*
X160400000Y-118255000I0J-150000D01*
G01*
X160400000Y-118555000D01*
G75*
G02*
X160250000Y-118705000I-150000J0D01*
G01*
X158600000Y-118705000D01*
G75*
G02*
X158450000Y-118555000I0J150000D01*
G01*
G37*
G36*
G01*
X158450000Y-117285000D02*
X158450000Y-116985000D01*
G75*
G02*
X158600000Y-116835000I150000J0D01*
G01*
X160250000Y-116835000D01*
G75*
G02*
X160400000Y-116985000I0J-150000D01*
G01*
X160400000Y-117285000D01*
G75*
G02*
X160250000Y-117435000I-150000J0D01*
G01*
X158600000Y-117435000D01*
G75*
G02*
X158450000Y-117285000I0J150000D01*
G01*
G37*
G36*
G01*
X158450000Y-116015000D02*
X158450000Y-115715000D01*
G75*
G02*
X158600000Y-115565000I150000J0D01*
G01*
X160250000Y-115565000D01*
G75*
G02*
X160400000Y-115715000I0J-150000D01*
G01*
X160400000Y-116015000D01*
G75*
G02*
X160250000Y-116165000I-150000J0D01*
G01*
X158600000Y-116165000D01*
G75*
G02*
X158450000Y-116015000I0J150000D01*
G01*
G37*
G36*
G01*
X158450000Y-114745000D02*
X158450000Y-114445000D01*
G75*
G02*
X158600000Y-114295000I150000J0D01*
G01*
X160250000Y-114295000D01*
G75*
G02*
X160400000Y-114445000I0J-150000D01*
G01*
X160400000Y-114745000D01*
G75*
G02*
X160250000Y-114895000I-150000J0D01*
G01*
X158600000Y-114895000D01*
G75*
G02*
X158450000Y-114745000I0J150000D01*
G01*
G37*
G36*
G01*
X163400000Y-114745000D02*
X163400000Y-114445000D01*
G75*
G02*
X163550000Y-114295000I150000J0D01*
G01*
X165200000Y-114295000D01*
G75*
G02*
X165350000Y-114445000I0J-150000D01*
G01*
X165350000Y-114745000D01*
G75*
G02*
X165200000Y-114895000I-150000J0D01*
G01*
X163550000Y-114895000D01*
G75*
G02*
X163400000Y-114745000I0J150000D01*
G01*
G37*
G36*
G01*
X163400000Y-116015000D02*
X163400000Y-115715000D01*
G75*
G02*
X163550000Y-115565000I150000J0D01*
G01*
X165200000Y-115565000D01*
G75*
G02*
X165350000Y-115715000I0J-150000D01*
G01*
X165350000Y-116015000D01*
G75*
G02*
X165200000Y-116165000I-150000J0D01*
G01*
X163550000Y-116165000D01*
G75*
G02*
X163400000Y-116015000I0J150000D01*
G01*
G37*
G36*
G01*
X163400000Y-117285000D02*
X163400000Y-116985000D01*
G75*
G02*
X163550000Y-116835000I150000J0D01*
G01*
X165200000Y-116835000D01*
G75*
G02*
X165350000Y-116985000I0J-150000D01*
G01*
X165350000Y-117285000D01*
G75*
G02*
X165200000Y-117435000I-150000J0D01*
G01*
X163550000Y-117435000D01*
G75*
G02*
X163400000Y-117285000I0J150000D01*
G01*
G37*
G36*
G01*
X163400000Y-118555000D02*
X163400000Y-118255000D01*
G75*
G02*
X163550000Y-118105000I150000J0D01*
G01*
X165200000Y-118105000D01*
G75*
G02*
X165350000Y-118255000I0J-150000D01*
G01*
X165350000Y-118555000D01*
G75*
G02*
X165200000Y-118705000I-150000J0D01*
G01*
X163550000Y-118705000D01*
G75*
G02*
X163400000Y-118555000I0J150000D01*
G01*
G37*
%TD*%
M02*
