%TF.GenerationSoftware,KiCad,Pcbnew,(5.1.7-0-10_14)*%
%TF.CreationDate,2020-10-21T09:08:44+08:00*%
%TF.ProjectId,HallowBadges,48616c6c-6f77-4426-9164-6765732e6b69,rev?*%
%TF.SameCoordinates,Original*%
%TF.FileFunction,Legend,Top*%
%TF.FilePolarity,Positive*%
%FSLAX46Y46*%
G04 Gerber Fmt 4.6, Leading zero omitted, Abs format (unit mm)*
G04 Created by KiCad (PCBNEW (5.1.7-0-10_14)) date 2020-10-21 09:08:44*
%MOMM*%
%LPD*%
G01*
G04 APERTURE LIST*
%ADD10C,0.010000*%
G04 APERTURE END LIST*
D10*
%TO.C,Ref\u002A\u002A*%
G36*
X165370542Y-99888399D02*
G01*
X165395572Y-99944470D01*
X165431261Y-100033512D01*
X165476282Y-100151920D01*
X165529309Y-100296085D01*
X165589016Y-100462400D01*
X165654078Y-100647259D01*
X165723166Y-100847054D01*
X165794957Y-101058178D01*
X165797197Y-101064824D01*
X165974840Y-101607963D01*
X166152647Y-102182624D01*
X166327573Y-102778117D01*
X166496570Y-103383753D01*
X166656595Y-103988842D01*
X166804601Y-104582694D01*
X166831477Y-104694907D01*
X167122111Y-105994627D01*
X167373073Y-107283214D01*
X167584334Y-108560343D01*
X167755865Y-109825688D01*
X167887635Y-111078926D01*
X167979616Y-112319730D01*
X168031779Y-113547775D01*
X168044093Y-114762738D01*
X168016530Y-115964292D01*
X167952214Y-117109157D01*
X167855811Y-118176101D01*
X167723033Y-119230046D01*
X167554280Y-120269161D01*
X167349952Y-121291618D01*
X167110449Y-122295587D01*
X166836172Y-123279238D01*
X166527520Y-124240741D01*
X166190685Y-125163351D01*
X165970370Y-125706807D01*
X165725462Y-126266459D01*
X165460890Y-126832340D01*
X165181585Y-127394486D01*
X164892476Y-127942930D01*
X164598492Y-128467707D01*
X164348032Y-128888407D01*
X163817094Y-129713214D01*
X163251488Y-130513814D01*
X162651446Y-131289961D01*
X162017201Y-132041408D01*
X161348985Y-132767907D01*
X160647029Y-133469213D01*
X159911568Y-134145079D01*
X159142832Y-134795257D01*
X158341054Y-135419501D01*
X157888334Y-135750081D01*
X157036178Y-136334299D01*
X156152475Y-136892900D01*
X155236972Y-137425990D01*
X154289415Y-137933672D01*
X153309551Y-138416051D01*
X152297125Y-138873230D01*
X151251886Y-139305313D01*
X150173578Y-139712404D01*
X149061949Y-140094608D01*
X147916745Y-140452029D01*
X146737714Y-140784770D01*
X145524600Y-141092936D01*
X144277151Y-141376630D01*
X144077084Y-141419183D01*
X143001299Y-141632790D01*
X141944851Y-141815741D01*
X140899165Y-141969213D01*
X139855673Y-142094383D01*
X138805801Y-142192428D01*
X138055167Y-142246009D01*
X137970596Y-142250075D01*
X137850595Y-142254094D01*
X137700460Y-142258009D01*
X137525487Y-142261763D01*
X137330970Y-142265299D01*
X137122207Y-142268559D01*
X136904491Y-142271486D01*
X136683120Y-142274024D01*
X136463387Y-142276114D01*
X136250590Y-142277700D01*
X136050023Y-142278724D01*
X135866982Y-142279130D01*
X135706762Y-142278859D01*
X135574659Y-142277856D01*
X135475970Y-142276062D01*
X135430500Y-142274354D01*
X135366166Y-142270932D01*
X135268737Y-142265758D01*
X135147392Y-142259317D01*
X135011309Y-142252098D01*
X134869667Y-142244588D01*
X134859000Y-142244022D01*
X133938397Y-142177235D01*
X133037975Y-142075660D01*
X132158322Y-141939509D01*
X131300030Y-141768990D01*
X130463687Y-141564314D01*
X129649884Y-141325689D01*
X128859210Y-141053325D01*
X128092255Y-140747432D01*
X127349608Y-140408218D01*
X126631860Y-140035895D01*
X125939601Y-139630671D01*
X125273419Y-139192756D01*
X124633905Y-138722358D01*
X124381500Y-138521741D01*
X124129506Y-138310515D01*
X123862531Y-138075030D01*
X123588405Y-137822825D01*
X123314953Y-137561436D01*
X123050006Y-137298399D01*
X122801390Y-137041251D01*
X122576934Y-136797528D01*
X122499159Y-136709490D01*
X121968531Y-136069068D01*
X121465036Y-135396395D01*
X120988795Y-134691813D01*
X120539929Y-133955666D01*
X120118558Y-133188299D01*
X119724804Y-132390053D01*
X119358786Y-131561274D01*
X119020627Y-130702304D01*
X118710446Y-129813487D01*
X118428364Y-128895167D01*
X118174503Y-127947687D01*
X117948983Y-126971390D01*
X117751924Y-125966620D01*
X117583449Y-124933721D01*
X117443676Y-123873036D01*
X117332728Y-122784908D01*
X117259237Y-121808157D01*
X117227799Y-121226701D01*
X117204514Y-120613638D01*
X117189403Y-119978882D01*
X117182484Y-119332343D01*
X117183777Y-118683933D01*
X117193302Y-118043564D01*
X117211077Y-117421148D01*
X117237122Y-116826596D01*
X117249091Y-116611740D01*
X117272593Y-116246241D01*
X117300202Y-115870887D01*
X117331148Y-115494080D01*
X117364663Y-115124222D01*
X117399976Y-114769715D01*
X117436320Y-114438962D01*
X117472925Y-114140363D01*
X117480601Y-114082324D01*
X117496399Y-113951263D01*
X117509629Y-113816222D01*
X117519082Y-113691456D01*
X117523545Y-113591221D01*
X117523736Y-113574324D01*
X117527369Y-113464432D01*
X117536602Y-113334965D01*
X117549719Y-113208045D01*
X117555513Y-113164049D01*
X117627638Y-112781827D01*
X117731335Y-112425231D01*
X117865895Y-112095232D01*
X118030609Y-111792798D01*
X118224769Y-111518900D01*
X118447664Y-111274505D01*
X118698585Y-111060585D01*
X118976824Y-110878107D01*
X119281671Y-110728042D01*
X119361133Y-110696022D01*
X119668697Y-110594519D01*
X119995674Y-110520727D01*
X120346460Y-110473924D01*
X120725449Y-110453387D01*
X120845508Y-110452240D01*
X121137788Y-110458039D01*
X121428797Y-110476050D01*
X121723324Y-110507193D01*
X122026158Y-110552390D01*
X122342087Y-110612562D01*
X122675899Y-110688629D01*
X123032384Y-110781512D01*
X123416329Y-110892132D01*
X123832524Y-111021411D01*
X123873500Y-111034563D01*
X124668195Y-111277046D01*
X125501409Y-111505617D01*
X126371605Y-111720059D01*
X127277244Y-111920154D01*
X128216790Y-112105685D01*
X129188704Y-112276435D01*
X130191449Y-112432186D01*
X131223487Y-112572721D01*
X132283280Y-112697822D01*
X133369291Y-112807273D01*
X134479981Y-112900856D01*
X135613814Y-112978353D01*
X136769251Y-113039547D01*
X137944755Y-113084221D01*
X138478500Y-113098844D01*
X138711019Y-113104394D01*
X138908126Y-113108578D01*
X139076734Y-113110990D01*
X139223753Y-113111223D01*
X139356095Y-113108871D01*
X139480672Y-113103526D01*
X139604394Y-113094782D01*
X139734173Y-113082232D01*
X139876920Y-113065470D01*
X140039547Y-113044088D01*
X140228965Y-113017680D01*
X140452085Y-112985840D01*
X140489334Y-112980506D01*
X141584423Y-112810076D01*
X142686148Y-112611826D01*
X143791019Y-112386851D01*
X144895545Y-112136244D01*
X145996238Y-111861100D01*
X147089609Y-111562512D01*
X148172167Y-111241575D01*
X149240424Y-110899382D01*
X150290890Y-110537028D01*
X151320076Y-110155607D01*
X152324493Y-109756213D01*
X153300650Y-109339939D01*
X154245059Y-108907881D01*
X155154231Y-108461131D01*
X155538834Y-108261963D01*
X156506303Y-107734786D01*
X157434639Y-107192144D01*
X158324248Y-106633697D01*
X159175535Y-106059101D01*
X159988907Y-105468015D01*
X160764770Y-104860097D01*
X161503531Y-104235004D01*
X162205596Y-103592394D01*
X162871371Y-102931926D01*
X163501263Y-102253258D01*
X164095678Y-101556046D01*
X164655021Y-100839950D01*
X165113275Y-100201555D01*
X165185438Y-100097970D01*
X165249853Y-100007544D01*
X165302573Y-99935652D01*
X165339649Y-99887671D01*
X165357134Y-99868980D01*
X165357497Y-99868907D01*
X165370542Y-99888399D01*
G37*
X165370542Y-99888399D02*
X165395572Y-99944470D01*
X165431261Y-100033512D01*
X165476282Y-100151920D01*
X165529309Y-100296085D01*
X165589016Y-100462400D01*
X165654078Y-100647259D01*
X165723166Y-100847054D01*
X165794957Y-101058178D01*
X165797197Y-101064824D01*
X165974840Y-101607963D01*
X166152647Y-102182624D01*
X166327573Y-102778117D01*
X166496570Y-103383753D01*
X166656595Y-103988842D01*
X166804601Y-104582694D01*
X166831477Y-104694907D01*
X167122111Y-105994627D01*
X167373073Y-107283214D01*
X167584334Y-108560343D01*
X167755865Y-109825688D01*
X167887635Y-111078926D01*
X167979616Y-112319730D01*
X168031779Y-113547775D01*
X168044093Y-114762738D01*
X168016530Y-115964292D01*
X167952214Y-117109157D01*
X167855811Y-118176101D01*
X167723033Y-119230046D01*
X167554280Y-120269161D01*
X167349952Y-121291618D01*
X167110449Y-122295587D01*
X166836172Y-123279238D01*
X166527520Y-124240741D01*
X166190685Y-125163351D01*
X165970370Y-125706807D01*
X165725462Y-126266459D01*
X165460890Y-126832340D01*
X165181585Y-127394486D01*
X164892476Y-127942930D01*
X164598492Y-128467707D01*
X164348032Y-128888407D01*
X163817094Y-129713214D01*
X163251488Y-130513814D01*
X162651446Y-131289961D01*
X162017201Y-132041408D01*
X161348985Y-132767907D01*
X160647029Y-133469213D01*
X159911568Y-134145079D01*
X159142832Y-134795257D01*
X158341054Y-135419501D01*
X157888334Y-135750081D01*
X157036178Y-136334299D01*
X156152475Y-136892900D01*
X155236972Y-137425990D01*
X154289415Y-137933672D01*
X153309551Y-138416051D01*
X152297125Y-138873230D01*
X151251886Y-139305313D01*
X150173578Y-139712404D01*
X149061949Y-140094608D01*
X147916745Y-140452029D01*
X146737714Y-140784770D01*
X145524600Y-141092936D01*
X144277151Y-141376630D01*
X144077084Y-141419183D01*
X143001299Y-141632790D01*
X141944851Y-141815741D01*
X140899165Y-141969213D01*
X139855673Y-142094383D01*
X138805801Y-142192428D01*
X138055167Y-142246009D01*
X137970596Y-142250075D01*
X137850595Y-142254094D01*
X137700460Y-142258009D01*
X137525487Y-142261763D01*
X137330970Y-142265299D01*
X137122207Y-142268559D01*
X136904491Y-142271486D01*
X136683120Y-142274024D01*
X136463387Y-142276114D01*
X136250590Y-142277700D01*
X136050023Y-142278724D01*
X135866982Y-142279130D01*
X135706762Y-142278859D01*
X135574659Y-142277856D01*
X135475970Y-142276062D01*
X135430500Y-142274354D01*
X135366166Y-142270932D01*
X135268737Y-142265758D01*
X135147392Y-142259317D01*
X135011309Y-142252098D01*
X134869667Y-142244588D01*
X134859000Y-142244022D01*
X133938397Y-142177235D01*
X133037975Y-142075660D01*
X132158322Y-141939509D01*
X131300030Y-141768990D01*
X130463687Y-141564314D01*
X129649884Y-141325689D01*
X128859210Y-141053325D01*
X128092255Y-140747432D01*
X127349608Y-140408218D01*
X126631860Y-140035895D01*
X125939601Y-139630671D01*
X125273419Y-139192756D01*
X124633905Y-138722358D01*
X124381500Y-138521741D01*
X124129506Y-138310515D01*
X123862531Y-138075030D01*
X123588405Y-137822825D01*
X123314953Y-137561436D01*
X123050006Y-137298399D01*
X122801390Y-137041251D01*
X122576934Y-136797528D01*
X122499159Y-136709490D01*
X121968531Y-136069068D01*
X121465036Y-135396395D01*
X120988795Y-134691813D01*
X120539929Y-133955666D01*
X120118558Y-133188299D01*
X119724804Y-132390053D01*
X119358786Y-131561274D01*
X119020627Y-130702304D01*
X118710446Y-129813487D01*
X118428364Y-128895167D01*
X118174503Y-127947687D01*
X117948983Y-126971390D01*
X117751924Y-125966620D01*
X117583449Y-124933721D01*
X117443676Y-123873036D01*
X117332728Y-122784908D01*
X117259237Y-121808157D01*
X117227799Y-121226701D01*
X117204514Y-120613638D01*
X117189403Y-119978882D01*
X117182484Y-119332343D01*
X117183777Y-118683933D01*
X117193302Y-118043564D01*
X117211077Y-117421148D01*
X117237122Y-116826596D01*
X117249091Y-116611740D01*
X117272593Y-116246241D01*
X117300202Y-115870887D01*
X117331148Y-115494080D01*
X117364663Y-115124222D01*
X117399976Y-114769715D01*
X117436320Y-114438962D01*
X117472925Y-114140363D01*
X117480601Y-114082324D01*
X117496399Y-113951263D01*
X117509629Y-113816222D01*
X117519082Y-113691456D01*
X117523545Y-113591221D01*
X117523736Y-113574324D01*
X117527369Y-113464432D01*
X117536602Y-113334965D01*
X117549719Y-113208045D01*
X117555513Y-113164049D01*
X117627638Y-112781827D01*
X117731335Y-112425231D01*
X117865895Y-112095232D01*
X118030609Y-111792798D01*
X118224769Y-111518900D01*
X118447664Y-111274505D01*
X118698585Y-111060585D01*
X118976824Y-110878107D01*
X119281671Y-110728042D01*
X119361133Y-110696022D01*
X119668697Y-110594519D01*
X119995674Y-110520727D01*
X120346460Y-110473924D01*
X120725449Y-110453387D01*
X120845508Y-110452240D01*
X121137788Y-110458039D01*
X121428797Y-110476050D01*
X121723324Y-110507193D01*
X122026158Y-110552390D01*
X122342087Y-110612562D01*
X122675899Y-110688629D01*
X123032384Y-110781512D01*
X123416329Y-110892132D01*
X123832524Y-111021411D01*
X123873500Y-111034563D01*
X124668195Y-111277046D01*
X125501409Y-111505617D01*
X126371605Y-111720059D01*
X127277244Y-111920154D01*
X128216790Y-112105685D01*
X129188704Y-112276435D01*
X130191449Y-112432186D01*
X131223487Y-112572721D01*
X132283280Y-112697822D01*
X133369291Y-112807273D01*
X134479981Y-112900856D01*
X135613814Y-112978353D01*
X136769251Y-113039547D01*
X137944755Y-113084221D01*
X138478500Y-113098844D01*
X138711019Y-113104394D01*
X138908126Y-113108578D01*
X139076734Y-113110990D01*
X139223753Y-113111223D01*
X139356095Y-113108871D01*
X139480672Y-113103526D01*
X139604394Y-113094782D01*
X139734173Y-113082232D01*
X139876920Y-113065470D01*
X140039547Y-113044088D01*
X140228965Y-113017680D01*
X140452085Y-112985840D01*
X140489334Y-112980506D01*
X141584423Y-112810076D01*
X142686148Y-112611826D01*
X143791019Y-112386851D01*
X144895545Y-112136244D01*
X145996238Y-111861100D01*
X147089609Y-111562512D01*
X148172167Y-111241575D01*
X149240424Y-110899382D01*
X150290890Y-110537028D01*
X151320076Y-110155607D01*
X152324493Y-109756213D01*
X153300650Y-109339939D01*
X154245059Y-108907881D01*
X155154231Y-108461131D01*
X155538834Y-108261963D01*
X156506303Y-107734786D01*
X157434639Y-107192144D01*
X158324248Y-106633697D01*
X159175535Y-106059101D01*
X159988907Y-105468015D01*
X160764770Y-104860097D01*
X161503531Y-104235004D01*
X162205596Y-103592394D01*
X162871371Y-102931926D01*
X163501263Y-102253258D01*
X164095678Y-101556046D01*
X164655021Y-100839950D01*
X165113275Y-100201555D01*
X165185438Y-100097970D01*
X165249853Y-100007544D01*
X165302573Y-99935652D01*
X165339649Y-99887671D01*
X165357134Y-99868980D01*
X165357497Y-99868907D01*
X165370542Y-99888399D01*
G36*
X137488209Y-91179451D02*
G01*
X137538092Y-91217408D01*
X137619058Y-91279607D01*
X137729954Y-91365156D01*
X137869630Y-91473160D01*
X138036936Y-91602723D01*
X138230720Y-91752953D01*
X138449833Y-91922953D01*
X138693123Y-92111831D01*
X138959441Y-92318691D01*
X139247634Y-92542639D01*
X139556552Y-92782780D01*
X139885045Y-93038221D01*
X140231963Y-93308066D01*
X140596153Y-93591421D01*
X140976467Y-93887392D01*
X141371752Y-94195084D01*
X141780858Y-94513603D01*
X142202635Y-94842055D01*
X142635932Y-95179544D01*
X143079598Y-95525177D01*
X143532483Y-95878059D01*
X143823446Y-96104810D01*
X150160539Y-101043657D01*
X149764645Y-101436143D01*
X149236641Y-101939936D01*
X148688174Y-102425477D01*
X148125723Y-102887532D01*
X147555769Y-103320865D01*
X146984792Y-103720243D01*
X146733500Y-103884766D01*
X146095451Y-104273402D01*
X145459224Y-104620330D01*
X144823450Y-104926053D01*
X144186761Y-105191077D01*
X143547786Y-105415905D01*
X142905157Y-105601041D01*
X142257505Y-105746991D01*
X141603461Y-105854259D01*
X141283084Y-105892552D01*
X141149436Y-105903882D01*
X140983681Y-105913639D01*
X140794516Y-105921675D01*
X140590638Y-105927842D01*
X140380745Y-105931992D01*
X140173534Y-105933978D01*
X139977703Y-105933651D01*
X139801948Y-105930863D01*
X139654967Y-105925467D01*
X139589750Y-105921350D01*
X138951072Y-105852660D01*
X138319064Y-105745756D01*
X137696634Y-105601704D01*
X137086690Y-105421570D01*
X136492137Y-105206418D01*
X135915882Y-104957314D01*
X135360834Y-104675323D01*
X134829898Y-104361509D01*
X134325981Y-104016939D01*
X134261042Y-103968768D01*
X134177275Y-103904421D01*
X134107430Y-103847694D01*
X134057789Y-103803921D01*
X134034632Y-103778440D01*
X134033713Y-103775675D01*
X134039229Y-103751904D01*
X134055362Y-103689349D01*
X134081595Y-103589910D01*
X134117410Y-103455485D01*
X134162289Y-103287974D01*
X134215715Y-103089275D01*
X134277170Y-102861287D01*
X134346137Y-102605909D01*
X134422097Y-102325040D01*
X134504535Y-102020579D01*
X134592931Y-101694425D01*
X134686768Y-101348476D01*
X134785529Y-100984633D01*
X134888695Y-100604793D01*
X134995751Y-100210856D01*
X135106177Y-99804720D01*
X135219457Y-99388284D01*
X135335072Y-98963448D01*
X135452505Y-98532111D01*
X135571239Y-98096170D01*
X135690756Y-97657526D01*
X135810538Y-97218077D01*
X135930067Y-96779721D01*
X136048827Y-96344359D01*
X136166300Y-95913889D01*
X136281967Y-95490209D01*
X136395312Y-95075219D01*
X136505817Y-94670818D01*
X136612964Y-94278904D01*
X136716235Y-93901377D01*
X136815113Y-93540135D01*
X136909081Y-93197078D01*
X136997621Y-92874104D01*
X137080215Y-92573112D01*
X137156345Y-92296001D01*
X137225495Y-92044670D01*
X137287146Y-91821019D01*
X137340781Y-91626945D01*
X137385882Y-91464348D01*
X137421932Y-91335127D01*
X137448413Y-91241181D01*
X137464808Y-91184408D01*
X137470558Y-91166633D01*
X137488209Y-91179451D01*
G37*
X137488209Y-91179451D02*
X137538092Y-91217408D01*
X137619058Y-91279607D01*
X137729954Y-91365156D01*
X137869630Y-91473160D01*
X138036936Y-91602723D01*
X138230720Y-91752953D01*
X138449833Y-91922953D01*
X138693123Y-92111831D01*
X138959441Y-92318691D01*
X139247634Y-92542639D01*
X139556552Y-92782780D01*
X139885045Y-93038221D01*
X140231963Y-93308066D01*
X140596153Y-93591421D01*
X140976467Y-93887392D01*
X141371752Y-94195084D01*
X141780858Y-94513603D01*
X142202635Y-94842055D01*
X142635932Y-95179544D01*
X143079598Y-95525177D01*
X143532483Y-95878059D01*
X143823446Y-96104810D01*
X150160539Y-101043657D01*
X149764645Y-101436143D01*
X149236641Y-101939936D01*
X148688174Y-102425477D01*
X148125723Y-102887532D01*
X147555769Y-103320865D01*
X146984792Y-103720243D01*
X146733500Y-103884766D01*
X146095451Y-104273402D01*
X145459224Y-104620330D01*
X144823450Y-104926053D01*
X144186761Y-105191077D01*
X143547786Y-105415905D01*
X142905157Y-105601041D01*
X142257505Y-105746991D01*
X141603461Y-105854259D01*
X141283084Y-105892552D01*
X141149436Y-105903882D01*
X140983681Y-105913639D01*
X140794516Y-105921675D01*
X140590638Y-105927842D01*
X140380745Y-105931992D01*
X140173534Y-105933978D01*
X139977703Y-105933651D01*
X139801948Y-105930863D01*
X139654967Y-105925467D01*
X139589750Y-105921350D01*
X138951072Y-105852660D01*
X138319064Y-105745756D01*
X137696634Y-105601704D01*
X137086690Y-105421570D01*
X136492137Y-105206418D01*
X135915882Y-104957314D01*
X135360834Y-104675323D01*
X134829898Y-104361509D01*
X134325981Y-104016939D01*
X134261042Y-103968768D01*
X134177275Y-103904421D01*
X134107430Y-103847694D01*
X134057789Y-103803921D01*
X134034632Y-103778440D01*
X134033713Y-103775675D01*
X134039229Y-103751904D01*
X134055362Y-103689349D01*
X134081595Y-103589910D01*
X134117410Y-103455485D01*
X134162289Y-103287974D01*
X134215715Y-103089275D01*
X134277170Y-102861287D01*
X134346137Y-102605909D01*
X134422097Y-102325040D01*
X134504535Y-102020579D01*
X134592931Y-101694425D01*
X134686768Y-101348476D01*
X134785529Y-100984633D01*
X134888695Y-100604793D01*
X134995751Y-100210856D01*
X135106177Y-99804720D01*
X135219457Y-99388284D01*
X135335072Y-98963448D01*
X135452505Y-98532111D01*
X135571239Y-98096170D01*
X135690756Y-97657526D01*
X135810538Y-97218077D01*
X135930067Y-96779721D01*
X136048827Y-96344359D01*
X136166300Y-95913889D01*
X136281967Y-95490209D01*
X136395312Y-95075219D01*
X136505817Y-94670818D01*
X136612964Y-94278904D01*
X136716235Y-93901377D01*
X136815113Y-93540135D01*
X136909081Y-93197078D01*
X136997621Y-92874104D01*
X137080215Y-92573112D01*
X137156345Y-92296001D01*
X137225495Y-92044670D01*
X137287146Y-91821019D01*
X137340781Y-91626945D01*
X137385882Y-91464348D01*
X137421932Y-91335127D01*
X137448413Y-91241181D01*
X137464808Y-91184408D01*
X137470558Y-91166633D01*
X137488209Y-91179451D01*
G36*
X118134054Y-86210963D02*
G01*
X118113314Y-86252648D01*
X118076128Y-86312068D01*
X118065591Y-86327532D01*
X117848221Y-86670484D01*
X117646105Y-87046514D01*
X117462132Y-87448215D01*
X117299191Y-87868177D01*
X117160170Y-88298993D01*
X117047958Y-88733255D01*
X116969334Y-89139041D01*
X116954571Y-89235089D01*
X116943090Y-89322517D01*
X116934508Y-89408712D01*
X116928440Y-89501061D01*
X116924502Y-89606953D01*
X116922311Y-89733774D01*
X116921483Y-89888912D01*
X116921585Y-90058157D01*
X116922219Y-90240431D01*
X116923543Y-90387574D01*
X116926008Y-90506787D01*
X116930064Y-90605272D01*
X116936163Y-90690231D01*
X116944757Y-90768864D01*
X116956295Y-90848374D01*
X116971229Y-90935962D01*
X116979395Y-90981121D01*
X117079685Y-91435731D01*
X117212003Y-91872958D01*
X117378128Y-92296570D01*
X117579838Y-92710335D01*
X117818912Y-93118020D01*
X118097129Y-93523393D01*
X118311170Y-93801627D01*
X118394924Y-93900632D01*
X118503998Y-94021445D01*
X118632091Y-94157729D01*
X118772898Y-94303148D01*
X118920117Y-94451368D01*
X119067443Y-94596052D01*
X119208575Y-94730865D01*
X119337207Y-94849473D01*
X119447038Y-94945538D01*
X119460250Y-94956575D01*
X119953877Y-95343807D01*
X120484761Y-95717319D01*
X121053369Y-96077364D01*
X121660170Y-96424193D01*
X122305632Y-96758058D01*
X122990222Y-97079210D01*
X123714407Y-97387901D01*
X124478656Y-97684384D01*
X124635500Y-97741927D01*
X125133146Y-97917333D01*
X125651223Y-98088999D01*
X126194177Y-98258274D01*
X126766450Y-98426505D01*
X127372487Y-98595042D01*
X127954813Y-98749228D01*
X128062475Y-98777842D01*
X128134320Y-98799212D01*
X128175779Y-98815620D01*
X128192283Y-98829349D01*
X128189261Y-98842681D01*
X128185936Y-98846376D01*
X128148287Y-98877883D01*
X128080425Y-98928481D01*
X127987804Y-98994460D01*
X127875880Y-99072111D01*
X127750106Y-99157721D01*
X127615937Y-99247581D01*
X127478828Y-99337980D01*
X127344233Y-99425209D01*
X127217606Y-99505555D01*
X127208919Y-99510990D01*
X126526015Y-99920619D01*
X125840991Y-100297579D01*
X125155998Y-100641000D01*
X124473190Y-100950009D01*
X123794721Y-101223735D01*
X123122743Y-101461307D01*
X122459410Y-101661853D01*
X121806874Y-101824501D01*
X121202310Y-101942552D01*
X120837123Y-101999402D01*
X120505461Y-102041387D01*
X120201464Y-102069173D01*
X119978834Y-102081452D01*
X119856720Y-102086146D01*
X119734497Y-102090945D01*
X119626223Y-102095291D01*
X119545957Y-102098627D01*
X119544917Y-102098671D01*
X119472925Y-102099949D01*
X119369535Y-102099369D01*
X119245633Y-102097109D01*
X119112104Y-102093347D01*
X119026334Y-102090221D01*
X118439705Y-102046654D01*
X117868255Y-101963613D01*
X117312301Y-101841264D01*
X116772162Y-101679774D01*
X116248157Y-101479309D01*
X115740604Y-101240036D01*
X115249823Y-100962119D01*
X114776131Y-100645725D01*
X114319848Y-100291022D01*
X113881293Y-99898173D01*
X113460783Y-99467347D01*
X113058637Y-98998709D01*
X113030599Y-98963761D01*
X112696759Y-98521895D01*
X112403621Y-98082385D01*
X112149876Y-97642392D01*
X112023752Y-97383132D01*
X116570509Y-97383132D01*
X116583618Y-97441979D01*
X116619139Y-97508540D01*
X116679625Y-97587546D01*
X116767629Y-97683728D01*
X116885703Y-97801818D01*
X116891507Y-97807473D01*
X116990610Y-97902852D01*
X117066276Y-97972029D01*
X117124601Y-98019131D01*
X117171681Y-98048286D01*
X117213613Y-98063621D01*
X117256491Y-98069263D01*
X117278867Y-98069740D01*
X117305775Y-98068576D01*
X117331459Y-98062809D01*
X117360078Y-98049025D01*
X117395792Y-98023811D01*
X117442761Y-97983753D01*
X117505145Y-97925438D01*
X117587103Y-97845453D01*
X117692796Y-97740385D01*
X117750407Y-97682814D01*
X117867841Y-97565227D01*
X117958728Y-97473334D01*
X118026469Y-97402909D01*
X118074466Y-97349724D01*
X118106120Y-97309555D01*
X118124833Y-97278174D01*
X118134005Y-97251356D01*
X118137040Y-97224875D01*
X118137334Y-97202079D01*
X118136472Y-97169481D01*
X118131316Y-97140698D01*
X118118009Y-97110678D01*
X118092695Y-97074368D01*
X118051517Y-97026715D01*
X117990618Y-96962666D01*
X117906143Y-96877170D01*
X117834901Y-96805839D01*
X117730103Y-96701740D01*
X117649990Y-96624307D01*
X117589872Y-96569723D01*
X117545055Y-96534175D01*
X117510851Y-96513844D01*
X117482566Y-96504917D01*
X117463093Y-96503407D01*
X117398751Y-96510654D01*
X117347484Y-96526843D01*
X117315620Y-96550490D01*
X117260073Y-96599346D01*
X117186333Y-96667942D01*
X117099892Y-96750812D01*
X117006242Y-96842490D01*
X116910874Y-96937509D01*
X116819280Y-97030402D01*
X116736950Y-97115703D01*
X116669377Y-97187945D01*
X116622052Y-97241662D01*
X116601311Y-97269647D01*
X116577257Y-97327265D01*
X116570509Y-97383132D01*
X112023752Y-97383132D01*
X111934213Y-97199076D01*
X111755320Y-96749596D01*
X111611889Y-96291112D01*
X111530987Y-95942926D01*
X115117045Y-95942926D01*
X115129701Y-95992748D01*
X115162038Y-96050133D01*
X115217031Y-96120536D01*
X115297655Y-96209414D01*
X115390193Y-96305229D01*
X115504571Y-96421448D01*
X115598302Y-96511641D01*
X115677039Y-96575434D01*
X115746438Y-96612453D01*
X115812150Y-96622324D01*
X115879829Y-96604673D01*
X115955130Y-96559125D01*
X116043705Y-96485307D01*
X116151208Y-96382844D01*
X116283294Y-96251362D01*
X116288912Y-96245749D01*
X116392141Y-96141262D01*
X116486091Y-96043538D01*
X116566261Y-95957473D01*
X116628149Y-95887960D01*
X116667255Y-95839893D01*
X116678430Y-95822220D01*
X116691586Y-95779077D01*
X116691706Y-95736492D01*
X116675752Y-95689565D01*
X116640685Y-95633395D01*
X116583468Y-95563084D01*
X116501063Y-95473730D01*
X116394984Y-95365029D01*
X116283577Y-95254237D01*
X116195412Y-95171635D01*
X116125373Y-95113977D01*
X116068344Y-95078022D01*
X116019209Y-95060526D01*
X115972853Y-95058247D01*
X115925688Y-95067510D01*
X115890400Y-95088286D01*
X115831780Y-95134892D01*
X115755194Y-95202032D01*
X115666005Y-95284412D01*
X115569577Y-95376737D01*
X115471275Y-95473712D01*
X115376462Y-95570042D01*
X115290502Y-95660434D01*
X115218760Y-95739591D01*
X115166600Y-95802219D01*
X115139386Y-95843024D01*
X115138886Y-95844141D01*
X115121099Y-95895209D01*
X115117045Y-95942926D01*
X111530987Y-95942926D01*
X111502607Y-95820786D01*
X111455798Y-95550907D01*
X111436949Y-95388678D01*
X111424186Y-95195025D01*
X111417442Y-94980410D01*
X111416650Y-94755294D01*
X111421744Y-94530137D01*
X111432657Y-94315401D01*
X111449322Y-94121545D01*
X111465710Y-93995157D01*
X111565415Y-93489885D01*
X111707228Y-92986015D01*
X111890939Y-92483823D01*
X112116339Y-91983588D01*
X112383217Y-91485589D01*
X112691362Y-90990102D01*
X113040566Y-90497406D01*
X113430618Y-90007780D01*
X113861307Y-89521501D01*
X114332424Y-89038846D01*
X114843759Y-88560095D01*
X115395101Y-88085526D01*
X115986241Y-87615415D01*
X116616968Y-87150041D01*
X116662532Y-87117696D01*
X116787960Y-87030345D01*
X116927468Y-86935725D01*
X117076662Y-86836592D01*
X117231147Y-86735699D01*
X117386530Y-86635800D01*
X117538418Y-86539651D01*
X117682415Y-86450005D01*
X117814129Y-86369616D01*
X117929165Y-86301240D01*
X118023129Y-86247630D01*
X118091628Y-86211541D01*
X118130267Y-86195728D01*
X118134088Y-86195240D01*
X118134054Y-86210963D01*
G37*
X118134054Y-86210963D02*
X118113314Y-86252648D01*
X118076128Y-86312068D01*
X118065591Y-86327532D01*
X117848221Y-86670484D01*
X117646105Y-87046514D01*
X117462132Y-87448215D01*
X117299191Y-87868177D01*
X117160170Y-88298993D01*
X117047958Y-88733255D01*
X116969334Y-89139041D01*
X116954571Y-89235089D01*
X116943090Y-89322517D01*
X116934508Y-89408712D01*
X116928440Y-89501061D01*
X116924502Y-89606953D01*
X116922311Y-89733774D01*
X116921483Y-89888912D01*
X116921585Y-90058157D01*
X116922219Y-90240431D01*
X116923543Y-90387574D01*
X116926008Y-90506787D01*
X116930064Y-90605272D01*
X116936163Y-90690231D01*
X116944757Y-90768864D01*
X116956295Y-90848374D01*
X116971229Y-90935962D01*
X116979395Y-90981121D01*
X117079685Y-91435731D01*
X117212003Y-91872958D01*
X117378128Y-92296570D01*
X117579838Y-92710335D01*
X117818912Y-93118020D01*
X118097129Y-93523393D01*
X118311170Y-93801627D01*
X118394924Y-93900632D01*
X118503998Y-94021445D01*
X118632091Y-94157729D01*
X118772898Y-94303148D01*
X118920117Y-94451368D01*
X119067443Y-94596052D01*
X119208575Y-94730865D01*
X119337207Y-94849473D01*
X119447038Y-94945538D01*
X119460250Y-94956575D01*
X119953877Y-95343807D01*
X120484761Y-95717319D01*
X121053369Y-96077364D01*
X121660170Y-96424193D01*
X122305632Y-96758058D01*
X122990222Y-97079210D01*
X123714407Y-97387901D01*
X124478656Y-97684384D01*
X124635500Y-97741927D01*
X125133146Y-97917333D01*
X125651223Y-98088999D01*
X126194177Y-98258274D01*
X126766450Y-98426505D01*
X127372487Y-98595042D01*
X127954813Y-98749228D01*
X128062475Y-98777842D01*
X128134320Y-98799212D01*
X128175779Y-98815620D01*
X128192283Y-98829349D01*
X128189261Y-98842681D01*
X128185936Y-98846376D01*
X128148287Y-98877883D01*
X128080425Y-98928481D01*
X127987804Y-98994460D01*
X127875880Y-99072111D01*
X127750106Y-99157721D01*
X127615937Y-99247581D01*
X127478828Y-99337980D01*
X127344233Y-99425209D01*
X127217606Y-99505555D01*
X127208919Y-99510990D01*
X126526015Y-99920619D01*
X125840991Y-100297579D01*
X125155998Y-100641000D01*
X124473190Y-100950009D01*
X123794721Y-101223735D01*
X123122743Y-101461307D01*
X122459410Y-101661853D01*
X121806874Y-101824501D01*
X121202310Y-101942552D01*
X120837123Y-101999402D01*
X120505461Y-102041387D01*
X120201464Y-102069173D01*
X119978834Y-102081452D01*
X119856720Y-102086146D01*
X119734497Y-102090945D01*
X119626223Y-102095291D01*
X119545957Y-102098627D01*
X119544917Y-102098671D01*
X119472925Y-102099949D01*
X119369535Y-102099369D01*
X119245633Y-102097109D01*
X119112104Y-102093347D01*
X119026334Y-102090221D01*
X118439705Y-102046654D01*
X117868255Y-101963613D01*
X117312301Y-101841264D01*
X116772162Y-101679774D01*
X116248157Y-101479309D01*
X115740604Y-101240036D01*
X115249823Y-100962119D01*
X114776131Y-100645725D01*
X114319848Y-100291022D01*
X113881293Y-99898173D01*
X113460783Y-99467347D01*
X113058637Y-98998709D01*
X113030599Y-98963761D01*
X112696759Y-98521895D01*
X112403621Y-98082385D01*
X112149876Y-97642392D01*
X112023752Y-97383132D01*
X116570509Y-97383132D01*
X116583618Y-97441979D01*
X116619139Y-97508540D01*
X116679625Y-97587546D01*
X116767629Y-97683728D01*
X116885703Y-97801818D01*
X116891507Y-97807473D01*
X116990610Y-97902852D01*
X117066276Y-97972029D01*
X117124601Y-98019131D01*
X117171681Y-98048286D01*
X117213613Y-98063621D01*
X117256491Y-98069263D01*
X117278867Y-98069740D01*
X117305775Y-98068576D01*
X117331459Y-98062809D01*
X117360078Y-98049025D01*
X117395792Y-98023811D01*
X117442761Y-97983753D01*
X117505145Y-97925438D01*
X117587103Y-97845453D01*
X117692796Y-97740385D01*
X117750407Y-97682814D01*
X117867841Y-97565227D01*
X117958728Y-97473334D01*
X118026469Y-97402909D01*
X118074466Y-97349724D01*
X118106120Y-97309555D01*
X118124833Y-97278174D01*
X118134005Y-97251356D01*
X118137040Y-97224875D01*
X118137334Y-97202079D01*
X118136472Y-97169481D01*
X118131316Y-97140698D01*
X118118009Y-97110678D01*
X118092695Y-97074368D01*
X118051517Y-97026715D01*
X117990618Y-96962666D01*
X117906143Y-96877170D01*
X117834901Y-96805839D01*
X117730103Y-96701740D01*
X117649990Y-96624307D01*
X117589872Y-96569723D01*
X117545055Y-96534175D01*
X117510851Y-96513844D01*
X117482566Y-96504917D01*
X117463093Y-96503407D01*
X117398751Y-96510654D01*
X117347484Y-96526843D01*
X117315620Y-96550490D01*
X117260073Y-96599346D01*
X117186333Y-96667942D01*
X117099892Y-96750812D01*
X117006242Y-96842490D01*
X116910874Y-96937509D01*
X116819280Y-97030402D01*
X116736950Y-97115703D01*
X116669377Y-97187945D01*
X116622052Y-97241662D01*
X116601311Y-97269647D01*
X116577257Y-97327265D01*
X116570509Y-97383132D01*
X112023752Y-97383132D01*
X111934213Y-97199076D01*
X111755320Y-96749596D01*
X111611889Y-96291112D01*
X111530987Y-95942926D01*
X115117045Y-95942926D01*
X115129701Y-95992748D01*
X115162038Y-96050133D01*
X115217031Y-96120536D01*
X115297655Y-96209414D01*
X115390193Y-96305229D01*
X115504571Y-96421448D01*
X115598302Y-96511641D01*
X115677039Y-96575434D01*
X115746438Y-96612453D01*
X115812150Y-96622324D01*
X115879829Y-96604673D01*
X115955130Y-96559125D01*
X116043705Y-96485307D01*
X116151208Y-96382844D01*
X116283294Y-96251362D01*
X116288912Y-96245749D01*
X116392141Y-96141262D01*
X116486091Y-96043538D01*
X116566261Y-95957473D01*
X116628149Y-95887960D01*
X116667255Y-95839893D01*
X116678430Y-95822220D01*
X116691586Y-95779077D01*
X116691706Y-95736492D01*
X116675752Y-95689565D01*
X116640685Y-95633395D01*
X116583468Y-95563084D01*
X116501063Y-95473730D01*
X116394984Y-95365029D01*
X116283577Y-95254237D01*
X116195412Y-95171635D01*
X116125373Y-95113977D01*
X116068344Y-95078022D01*
X116019209Y-95060526D01*
X115972853Y-95058247D01*
X115925688Y-95067510D01*
X115890400Y-95088286D01*
X115831780Y-95134892D01*
X115755194Y-95202032D01*
X115666005Y-95284412D01*
X115569577Y-95376737D01*
X115471275Y-95473712D01*
X115376462Y-95570042D01*
X115290502Y-95660434D01*
X115218760Y-95739591D01*
X115166600Y-95802219D01*
X115139386Y-95843024D01*
X115138886Y-95844141D01*
X115121099Y-95895209D01*
X115117045Y-95942926D01*
X111530987Y-95942926D01*
X111502607Y-95820786D01*
X111455798Y-95550907D01*
X111436949Y-95388678D01*
X111424186Y-95195025D01*
X111417442Y-94980410D01*
X111416650Y-94755294D01*
X111421744Y-94530137D01*
X111432657Y-94315401D01*
X111449322Y-94121545D01*
X111465710Y-93995157D01*
X111565415Y-93489885D01*
X111707228Y-92986015D01*
X111890939Y-92483823D01*
X112116339Y-91983588D01*
X112383217Y-91485589D01*
X112691362Y-90990102D01*
X113040566Y-90497406D01*
X113430618Y-90007780D01*
X113861307Y-89521501D01*
X114332424Y-89038846D01*
X114843759Y-88560095D01*
X115395101Y-88085526D01*
X115986241Y-87615415D01*
X116616968Y-87150041D01*
X116662532Y-87117696D01*
X116787960Y-87030345D01*
X116927468Y-86935725D01*
X117076662Y-86836592D01*
X117231147Y-86735699D01*
X117386530Y-86635800D01*
X117538418Y-86539651D01*
X117682415Y-86450005D01*
X117814129Y-86369616D01*
X117929165Y-86301240D01*
X118023129Y-86247630D01*
X118091628Y-86211541D01*
X118130267Y-86195728D01*
X118134088Y-86195240D01*
X118134054Y-86210963D01*
G36*
X159699118Y-79093114D02*
G01*
X160238207Y-79131845D01*
X160754232Y-79206013D01*
X161246995Y-79315459D01*
X161716295Y-79460023D01*
X162161933Y-79639546D01*
X162583708Y-79853870D01*
X162981421Y-80102833D01*
X163354872Y-80386278D01*
X163703861Y-80704044D01*
X164028188Y-81055973D01*
X164327653Y-81441905D01*
X164602056Y-81861680D01*
X164851198Y-82315139D01*
X165074879Y-82802123D01*
X165272899Y-83322472D01*
X165445057Y-83876027D01*
X165526139Y-84184407D01*
X165654687Y-84769606D01*
X165758572Y-85382664D01*
X165836974Y-86016458D01*
X165889072Y-86663866D01*
X165914046Y-87317766D01*
X165916256Y-87571074D01*
X165911062Y-87979515D01*
X165894576Y-88355741D01*
X165865952Y-88708558D01*
X165824342Y-89046776D01*
X165768902Y-89379202D01*
X165719000Y-89624240D01*
X165586510Y-90142371D01*
X165421302Y-90633659D01*
X165223463Y-91098020D01*
X164993079Y-91535369D01*
X164730237Y-91945623D01*
X164435023Y-92328697D01*
X164107523Y-92684506D01*
X163747824Y-93012968D01*
X163356012Y-93313997D01*
X162932173Y-93587509D01*
X162476393Y-93833420D01*
X161988759Y-94051645D01*
X161469357Y-94242102D01*
X160918274Y-94404705D01*
X160784694Y-94438739D01*
X160401110Y-94526188D01*
X160006169Y-94601018D01*
X159591033Y-94664673D01*
X159146866Y-94718597D01*
X158946667Y-94738966D01*
X158835733Y-94747360D01*
X158688879Y-94754975D01*
X158512510Y-94761737D01*
X158313034Y-94767573D01*
X158096856Y-94772408D01*
X157870384Y-94776169D01*
X157640024Y-94778780D01*
X157412184Y-94780168D01*
X157193268Y-94780259D01*
X156989685Y-94778978D01*
X156807840Y-94776252D01*
X156654140Y-94772006D01*
X156544250Y-94766767D01*
X155531811Y-94682648D01*
X154523997Y-94557821D01*
X153516847Y-94391756D01*
X153041167Y-94299020D01*
X152903663Y-94270138D01*
X152749461Y-94236455D01*
X152583962Y-94199271D01*
X152412566Y-94159886D01*
X152240672Y-94119598D01*
X152073682Y-94079708D01*
X151916995Y-94041514D01*
X151776011Y-94006316D01*
X151656131Y-93975413D01*
X151562754Y-93950105D01*
X151501281Y-93931691D01*
X151479426Y-93923223D01*
X151482498Y-93903805D01*
X151519612Y-93860913D01*
X151591005Y-93794307D01*
X151691048Y-93708634D01*
X152001713Y-93442181D01*
X152329589Y-93147671D01*
X152667824Y-92831878D01*
X153009564Y-92501572D01*
X153347957Y-92163528D01*
X153676151Y-91824517D01*
X153987292Y-91491312D01*
X154274529Y-91170686D01*
X154367390Y-91063574D01*
X154853666Y-90476369D01*
X155301437Y-89892121D01*
X155710368Y-89311441D01*
X156080127Y-88734936D01*
X156197397Y-88531923D01*
X159793334Y-88531923D01*
X159809339Y-88613699D01*
X159851002Y-88686800D01*
X159902653Y-88730886D01*
X159956879Y-88755719D01*
X160040038Y-88789407D01*
X160144808Y-88829391D01*
X160263865Y-88873112D01*
X160389889Y-88918010D01*
X160515557Y-88961526D01*
X160633546Y-89001101D01*
X160736535Y-89034175D01*
X160817201Y-89058190D01*
X160868222Y-89070587D01*
X160877791Y-89071709D01*
X160950932Y-89061462D01*
X161015448Y-89020437D01*
X161020740Y-89015699D01*
X161051776Y-88979621D01*
X161084619Y-88924099D01*
X161122053Y-88843331D01*
X161166865Y-88731510D01*
X161201062Y-88639990D01*
X161253337Y-88495718D01*
X161291321Y-88384811D01*
X161316041Y-88301169D01*
X161328522Y-88238691D01*
X161329787Y-88191276D01*
X161320864Y-88152825D01*
X161302777Y-88117237D01*
X161291757Y-88100289D01*
X161273159Y-88075817D01*
X161249757Y-88053740D01*
X161216328Y-88031587D01*
X161167647Y-88006886D01*
X161098490Y-87977164D01*
X161003633Y-87939949D01*
X160877851Y-87892770D01*
X160766190Y-87851604D01*
X160587217Y-87785948D01*
X160443107Y-87735862D01*
X160328632Y-87703310D01*
X160238569Y-87690254D01*
X160167692Y-87698658D01*
X160110775Y-87730484D01*
X160062594Y-87787696D01*
X160017923Y-87872258D01*
X159971537Y-87986131D01*
X159918210Y-88131279D01*
X159901856Y-88176330D01*
X159863405Y-88285768D01*
X159830945Y-88385273D01*
X159807125Y-88466163D01*
X159794593Y-88519759D01*
X159793334Y-88531923D01*
X156197397Y-88531923D01*
X156410381Y-88163215D01*
X156700798Y-87596887D01*
X156951043Y-87036562D01*
X157110775Y-86614872D01*
X160491834Y-86614872D01*
X160508612Y-86686411D01*
X160551013Y-86756643D01*
X160596389Y-86798490D01*
X160637254Y-86818833D01*
X160709804Y-86849188D01*
X160806716Y-86886961D01*
X160920667Y-86929561D01*
X161044333Y-86974393D01*
X161170391Y-87018865D01*
X161291520Y-87060382D01*
X161400394Y-87096353D01*
X161489692Y-87124183D01*
X161552090Y-87141280D01*
X161576291Y-87145489D01*
X161649732Y-87135194D01*
X161714998Y-87093997D01*
X161720043Y-87089532D01*
X161749031Y-87056927D01*
X161779135Y-87008020D01*
X161813117Y-86936959D01*
X161853742Y-86837894D01*
X161903773Y-86704976D01*
X161910876Y-86685549D01*
X161952362Y-86569131D01*
X161988108Y-86463703D01*
X162015686Y-86376842D01*
X162032669Y-86316123D01*
X162037000Y-86291804D01*
X162025435Y-86243454D01*
X161996827Y-86184546D01*
X161988809Y-86171912D01*
X161970552Y-86147986D01*
X161946850Y-86126116D01*
X161912510Y-86103854D01*
X161862338Y-86078755D01*
X161791141Y-86048369D01*
X161693723Y-86010250D01*
X161564892Y-85961951D01*
X161464934Y-85925074D01*
X161297404Y-85864183D01*
X161164207Y-85818108D01*
X161060292Y-85786143D01*
X160980610Y-85767581D01*
X160920108Y-85761716D01*
X160873735Y-85767840D01*
X160836442Y-85785248D01*
X160803176Y-85813233D01*
X160787129Y-85830245D01*
X160761511Y-85870980D01*
X160726489Y-85943445D01*
X160685325Y-86038979D01*
X160641279Y-86148918D01*
X160597610Y-86264598D01*
X160557580Y-86377356D01*
X160524449Y-86478529D01*
X160501477Y-86559454D01*
X160491925Y-86611466D01*
X160491834Y-86614872D01*
X157110775Y-86614872D01*
X157160786Y-86482847D01*
X157329692Y-85936353D01*
X157453168Y-85418812D01*
X157492400Y-85217420D01*
X157522866Y-85038758D01*
X157545574Y-84872172D01*
X157561533Y-84707007D01*
X157571752Y-84532607D01*
X157577238Y-84338320D01*
X157579000Y-84113489D01*
X157579010Y-84089157D01*
X157578438Y-83905413D01*
X157576453Y-83755514D01*
X157572588Y-83630981D01*
X157566372Y-83523337D01*
X157557337Y-83424103D01*
X157545013Y-83324800D01*
X157531751Y-83234964D01*
X157436268Y-82748857D01*
X157302815Y-82277319D01*
X157130795Y-81819133D01*
X156919608Y-81373081D01*
X156668655Y-80937945D01*
X156377337Y-80512508D01*
X156045056Y-80095551D01*
X155913975Y-79945818D01*
X155849388Y-79872519D01*
X155797607Y-79811322D01*
X155763869Y-79768593D01*
X155753410Y-79750698D01*
X155753434Y-79750673D01*
X155780088Y-79737677D01*
X155840535Y-79714948D01*
X155927949Y-79684681D01*
X156035506Y-79649075D01*
X156156381Y-79610328D01*
X156283748Y-79570637D01*
X156410784Y-79532199D01*
X156530664Y-79497213D01*
X156606322Y-79476047D01*
X157071168Y-79357201D01*
X157512523Y-79262114D01*
X157940800Y-79189195D01*
X158366415Y-79136856D01*
X158799782Y-79103509D01*
X159137167Y-79089980D01*
X159699118Y-79093114D01*
G37*
X159699118Y-79093114D02*
X160238207Y-79131845D01*
X160754232Y-79206013D01*
X161246995Y-79315459D01*
X161716295Y-79460023D01*
X162161933Y-79639546D01*
X162583708Y-79853870D01*
X162981421Y-80102833D01*
X163354872Y-80386278D01*
X163703861Y-80704044D01*
X164028188Y-81055973D01*
X164327653Y-81441905D01*
X164602056Y-81861680D01*
X164851198Y-82315139D01*
X165074879Y-82802123D01*
X165272899Y-83322472D01*
X165445057Y-83876027D01*
X165526139Y-84184407D01*
X165654687Y-84769606D01*
X165758572Y-85382664D01*
X165836974Y-86016458D01*
X165889072Y-86663866D01*
X165914046Y-87317766D01*
X165916256Y-87571074D01*
X165911062Y-87979515D01*
X165894576Y-88355741D01*
X165865952Y-88708558D01*
X165824342Y-89046776D01*
X165768902Y-89379202D01*
X165719000Y-89624240D01*
X165586510Y-90142371D01*
X165421302Y-90633659D01*
X165223463Y-91098020D01*
X164993079Y-91535369D01*
X164730237Y-91945623D01*
X164435023Y-92328697D01*
X164107523Y-92684506D01*
X163747824Y-93012968D01*
X163356012Y-93313997D01*
X162932173Y-93587509D01*
X162476393Y-93833420D01*
X161988759Y-94051645D01*
X161469357Y-94242102D01*
X160918274Y-94404705D01*
X160784694Y-94438739D01*
X160401110Y-94526188D01*
X160006169Y-94601018D01*
X159591033Y-94664673D01*
X159146866Y-94718597D01*
X158946667Y-94738966D01*
X158835733Y-94747360D01*
X158688879Y-94754975D01*
X158512510Y-94761737D01*
X158313034Y-94767573D01*
X158096856Y-94772408D01*
X157870384Y-94776169D01*
X157640024Y-94778780D01*
X157412184Y-94780168D01*
X157193268Y-94780259D01*
X156989685Y-94778978D01*
X156807840Y-94776252D01*
X156654140Y-94772006D01*
X156544250Y-94766767D01*
X155531811Y-94682648D01*
X154523997Y-94557821D01*
X153516847Y-94391756D01*
X153041167Y-94299020D01*
X152903663Y-94270138D01*
X152749461Y-94236455D01*
X152583962Y-94199271D01*
X152412566Y-94159886D01*
X152240672Y-94119598D01*
X152073682Y-94079708D01*
X151916995Y-94041514D01*
X151776011Y-94006316D01*
X151656131Y-93975413D01*
X151562754Y-93950105D01*
X151501281Y-93931691D01*
X151479426Y-93923223D01*
X151482498Y-93903805D01*
X151519612Y-93860913D01*
X151591005Y-93794307D01*
X151691048Y-93708634D01*
X152001713Y-93442181D01*
X152329589Y-93147671D01*
X152667824Y-92831878D01*
X153009564Y-92501572D01*
X153347957Y-92163528D01*
X153676151Y-91824517D01*
X153987292Y-91491312D01*
X154274529Y-91170686D01*
X154367390Y-91063574D01*
X154853666Y-90476369D01*
X155301437Y-89892121D01*
X155710368Y-89311441D01*
X156080127Y-88734936D01*
X156197397Y-88531923D01*
X159793334Y-88531923D01*
X159809339Y-88613699D01*
X159851002Y-88686800D01*
X159902653Y-88730886D01*
X159956879Y-88755719D01*
X160040038Y-88789407D01*
X160144808Y-88829391D01*
X160263865Y-88873112D01*
X160389889Y-88918010D01*
X160515557Y-88961526D01*
X160633546Y-89001101D01*
X160736535Y-89034175D01*
X160817201Y-89058190D01*
X160868222Y-89070587D01*
X160877791Y-89071709D01*
X160950932Y-89061462D01*
X161015448Y-89020437D01*
X161020740Y-89015699D01*
X161051776Y-88979621D01*
X161084619Y-88924099D01*
X161122053Y-88843331D01*
X161166865Y-88731510D01*
X161201062Y-88639990D01*
X161253337Y-88495718D01*
X161291321Y-88384811D01*
X161316041Y-88301169D01*
X161328522Y-88238691D01*
X161329787Y-88191276D01*
X161320864Y-88152825D01*
X161302777Y-88117237D01*
X161291757Y-88100289D01*
X161273159Y-88075817D01*
X161249757Y-88053740D01*
X161216328Y-88031587D01*
X161167647Y-88006886D01*
X161098490Y-87977164D01*
X161003633Y-87939949D01*
X160877851Y-87892770D01*
X160766190Y-87851604D01*
X160587217Y-87785948D01*
X160443107Y-87735862D01*
X160328632Y-87703310D01*
X160238569Y-87690254D01*
X160167692Y-87698658D01*
X160110775Y-87730484D01*
X160062594Y-87787696D01*
X160017923Y-87872258D01*
X159971537Y-87986131D01*
X159918210Y-88131279D01*
X159901856Y-88176330D01*
X159863405Y-88285768D01*
X159830945Y-88385273D01*
X159807125Y-88466163D01*
X159794593Y-88519759D01*
X159793334Y-88531923D01*
X156197397Y-88531923D01*
X156410381Y-88163215D01*
X156700798Y-87596887D01*
X156951043Y-87036562D01*
X157110775Y-86614872D01*
X160491834Y-86614872D01*
X160508612Y-86686411D01*
X160551013Y-86756643D01*
X160596389Y-86798490D01*
X160637254Y-86818833D01*
X160709804Y-86849188D01*
X160806716Y-86886961D01*
X160920667Y-86929561D01*
X161044333Y-86974393D01*
X161170391Y-87018865D01*
X161291520Y-87060382D01*
X161400394Y-87096353D01*
X161489692Y-87124183D01*
X161552090Y-87141280D01*
X161576291Y-87145489D01*
X161649732Y-87135194D01*
X161714998Y-87093997D01*
X161720043Y-87089532D01*
X161749031Y-87056927D01*
X161779135Y-87008020D01*
X161813117Y-86936959D01*
X161853742Y-86837894D01*
X161903773Y-86704976D01*
X161910876Y-86685549D01*
X161952362Y-86569131D01*
X161988108Y-86463703D01*
X162015686Y-86376842D01*
X162032669Y-86316123D01*
X162037000Y-86291804D01*
X162025435Y-86243454D01*
X161996827Y-86184546D01*
X161988809Y-86171912D01*
X161970552Y-86147986D01*
X161946850Y-86126116D01*
X161912510Y-86103854D01*
X161862338Y-86078755D01*
X161791141Y-86048369D01*
X161693723Y-86010250D01*
X161564892Y-85961951D01*
X161464934Y-85925074D01*
X161297404Y-85864183D01*
X161164207Y-85818108D01*
X161060292Y-85786143D01*
X160980610Y-85767581D01*
X160920108Y-85761716D01*
X160873735Y-85767840D01*
X160836442Y-85785248D01*
X160803176Y-85813233D01*
X160787129Y-85830245D01*
X160761511Y-85870980D01*
X160726489Y-85943445D01*
X160685325Y-86038979D01*
X160641279Y-86148918D01*
X160597610Y-86264598D01*
X160557580Y-86377356D01*
X160524449Y-86478529D01*
X160501477Y-86559454D01*
X160491925Y-86611466D01*
X160491834Y-86614872D01*
X157110775Y-86614872D01*
X157160786Y-86482847D01*
X157329692Y-85936353D01*
X157453168Y-85418812D01*
X157492400Y-85217420D01*
X157522866Y-85038758D01*
X157545574Y-84872172D01*
X157561533Y-84707007D01*
X157571752Y-84532607D01*
X157577238Y-84338320D01*
X157579000Y-84113489D01*
X157579010Y-84089157D01*
X157578438Y-83905413D01*
X157576453Y-83755514D01*
X157572588Y-83630981D01*
X157566372Y-83523337D01*
X157557337Y-83424103D01*
X157545013Y-83324800D01*
X157531751Y-83234964D01*
X157436268Y-82748857D01*
X157302815Y-82277319D01*
X157130795Y-81819133D01*
X156919608Y-81373081D01*
X156668655Y-80937945D01*
X156377337Y-80512508D01*
X156045056Y-80095551D01*
X155913975Y-79945818D01*
X155849388Y-79872519D01*
X155797607Y-79811322D01*
X155763869Y-79768593D01*
X155753410Y-79750698D01*
X155753434Y-79750673D01*
X155780088Y-79737677D01*
X155840535Y-79714948D01*
X155927949Y-79684681D01*
X156035506Y-79649075D01*
X156156381Y-79610328D01*
X156283748Y-79570637D01*
X156410784Y-79532199D01*
X156530664Y-79497213D01*
X156606322Y-79476047D01*
X157071168Y-79357201D01*
X157512523Y-79262114D01*
X157940800Y-79189195D01*
X158366415Y-79136856D01*
X158799782Y-79103509D01*
X159137167Y-79089980D01*
X159699118Y-79093114D01*
%TD*%
M02*
