%FSLAX45Y45*%
G04 Gerber Fmt 4.5, Leading zero omitted, Abs format (unit mm)*
G04 Created by KiCad (PCBNEW (5.1.7-0-10_14)) date 2020-10-21 09:08:39*
%MOMM*%
%LPD*%
G01*
G04 APERTURE LIST*
%ADD10C,0.200000*%
%ADD11C,0.300000*%
G04 APERTURE END LIST*
D10*
D11*
X9933256Y-15365838D02*
X9933256Y-15065838D01*
X10004685Y-15065838D01*
X10047542Y-15080124D01*
X10076113Y-15108695D01*
X10090399Y-15137267D01*
X10104685Y-15194410D01*
X10104685Y-15237267D01*
X10090399Y-15294410D01*
X10076113Y-15322981D01*
X10047542Y-15351553D01*
X10004685Y-15365838D01*
X9933256Y-15365838D01*
X10233256Y-15365838D02*
X10233256Y-15165838D01*
X10233256Y-15222981D02*
X10247542Y-15194410D01*
X10261828Y-15180124D01*
X10290399Y-15165838D01*
X10318970Y-15165838D01*
X10418970Y-15365838D02*
X10418970Y-15165838D01*
X10418970Y-15065838D02*
X10404685Y-15080124D01*
X10418970Y-15094410D01*
X10433256Y-15080124D01*
X10418970Y-15065838D01*
X10418970Y-15094410D01*
X10604685Y-15365838D02*
X10576113Y-15351553D01*
X10561828Y-15322981D01*
X10561828Y-15065838D01*
X10761828Y-15365838D02*
X10733256Y-15351553D01*
X10718970Y-15322981D01*
X10718970Y-15065838D01*
X11104685Y-15365838D02*
X11104685Y-15065838D01*
X11204685Y-15280124D01*
X11304685Y-15065838D01*
X11304685Y-15365838D01*
X11576113Y-15365838D02*
X11576113Y-15208695D01*
X11561828Y-15180124D01*
X11533256Y-15165838D01*
X11476113Y-15165838D01*
X11447542Y-15180124D01*
X11576113Y-15351553D02*
X11547542Y-15365838D01*
X11476113Y-15365838D01*
X11447542Y-15351553D01*
X11433256Y-15322981D01*
X11433256Y-15294410D01*
X11447542Y-15265838D01*
X11476113Y-15251553D01*
X11547542Y-15251553D01*
X11576113Y-15237267D01*
X11718970Y-15165838D02*
X11718970Y-15465838D01*
X11718970Y-15180124D02*
X11747542Y-15165838D01*
X11804685Y-15165838D01*
X11833256Y-15180124D01*
X11847542Y-15194410D01*
X11861828Y-15222981D01*
X11861828Y-15308695D01*
X11847542Y-15337267D01*
X11833256Y-15351553D01*
X11804685Y-15365838D01*
X11747542Y-15365838D01*
X11718970Y-15351553D01*
X11990399Y-15337267D02*
X12004685Y-15351553D01*
X11990399Y-15365838D01*
X11976113Y-15351553D01*
X11990399Y-15337267D01*
X11990399Y-15365838D01*
X11990399Y-15180124D02*
X12004685Y-15194410D01*
X11990399Y-15208695D01*
X11976113Y-15194410D01*
X11990399Y-15180124D01*
X11990399Y-15208695D01*
M02*
